<svg width="47" height="46" viewBox="0 0 47 46" fill="none" xmlns="http://www.w3.org/2000/svg">
<path d="M41.0195 33.6016C39.5928 32.1641 36.1374 30.0663 34.4609 29.2208C32.2777 28.1211 32.098 28.0313 30.382 29.3062C29.2374 30.157 28.4764 30.9171 27.1369 30.6314C25.7973 30.3457 22.8864 28.7348 20.3375 26.194C17.7886 23.6532 16.0843 20.6578 15.7977 19.3227C15.5111 17.9877 16.2837 17.2357 17.1265 16.0884C18.3142 14.4712 18.2244 14.2017 17.2091 12.0184C16.4176 10.3204 14.2587 6.89735 12.8158 5.47782C11.2723 3.95317 11.2723 4.2227 10.2777 4.63599C9.468 4.97666 8.6912 5.39077 7.95703 5.87313C6.51953 6.82817 5.72172 7.62149 5.16379 8.81372C4.60586 10.0059 4.35519 12.801 7.23648 18.0353C10.1178 23.2696 12.1393 25.946 16.3233 30.1184C20.5073 34.2907 23.7246 36.5341 28.4279 39.1719C34.2462 42.4306 36.4779 41.7954 37.6737 41.2383C38.8696 40.6813 39.6665 39.8907 40.6233 38.4532C41.1069 37.7202 41.522 36.9443 41.8632 36.1352C42.2773 35.1442 42.5469 35.1442 41.0195 33.6016Z" stroke="white" stroke-width="2" stroke-miterlimit="10"/>
</svg>
