<svg width="47" height="46" viewBox="0 0 47 46" fill="none" xmlns="http://www.w3.org/2000/svg">
<path d="M30.6875 18.6875V10.1523C30.6875 8.2461 29.9302 6.41793 28.5823 5.07001C27.2344 3.7221 25.4062 2.96484 23.5 2.96484C21.5938 2.96484 19.7656 3.7221 18.4177 5.07001C17.0698 6.41793 16.3125 8.2461 16.3125 10.1523V18.6875" stroke="white" stroke-width="2" stroke-linecap="round" stroke-linejoin="round"/>
<path d="M33.5625 18.6875H13.4375C11.0558 18.6875 9.125 20.6183 9.125 23V38.8125C9.125 41.1942 11.0558 43.125 13.4375 43.125H33.5625C35.9442 43.125 37.875 41.1942 37.875 38.8125V23C37.875 20.6183 35.9442 18.6875 33.5625 18.6875Z" stroke="white" stroke-width="2" stroke-linecap="round" stroke-linejoin="round"/>
</svg>
