<svg width="335" height="185" viewBox="0 0 335 185" fill="none" xmlns="http://www.w3.org/2000/svg">
<rect width="335" height="185" rx="20" fill="url(#paint0_linear_960_1626)"/>
<g filter="url(#filter0_b_960_1626)">
<rect width="335" height="185" rx="20" fill="white" fill-opacity="0.03"/>
</g>
<path fill-rule="evenodd" clip-rule="evenodd" d="M44.9798 0H20C8.95431 0 0 8.9543 0 20V165C0 176.046 8.95431 185 20 185H315C325.026 185 333.329 177.622 334.777 168C333.04 115.464 282.418 42.4787 44.9798 0Z" fill="white" fill-opacity="0.06"/>
<path d="M30.048 155V152.808H24.544V151.624L29.376 143.832H31.328V151.704H32.992V152.808H31.328V155H30.048ZM25.744 151.704H30.048V144.872H29.984L25.744 151.704ZM41.6098 145H36.6178L36.2978 149.272H36.4098C36.6871 148.899 36.9964 148.605 37.3378 148.392C37.6791 148.168 38.1484 148.056 38.7458 148.056C39.2364 148.056 39.6844 148.136 40.0898 148.296C40.5058 148.445 40.8631 148.669 41.1618 148.968C41.4604 149.267 41.6951 149.629 41.8658 150.056C42.0364 150.472 42.1218 150.952 42.1218 151.496C42.1218 152.04 42.0364 152.541 41.8658 153C41.6951 153.448 41.4444 153.837 41.1138 154.168C40.7831 154.488 40.3831 154.739 39.9138 154.92C39.4444 155.101 38.9111 155.192 38.3138 155.192C37.8444 155.192 37.4231 155.139 37.0498 155.032C36.6871 154.925 36.3618 154.781 36.0738 154.6C35.7964 154.419 35.5511 154.216 35.3378 153.992C35.1244 153.768 34.9324 153.533 34.7618 153.288L35.7698 152.52C35.9191 152.744 36.0684 152.947 36.2178 153.128C36.3778 153.309 36.5591 153.469 36.7618 153.608C36.9644 153.736 37.1938 153.837 37.4498 153.912C37.7058 153.987 38.0044 154.024 38.3458 154.024C39.1138 154.024 39.7004 153.816 40.1058 153.4C40.5218 152.984 40.7298 152.408 40.7298 151.672V151.544C40.7298 150.808 40.5218 150.232 40.1058 149.816C39.6898 149.4 39.0924 149.192 38.3138 149.192C37.7804 149.192 37.3644 149.283 37.0658 149.464C36.7778 149.645 36.5111 149.869 36.2658 150.136L35.1298 149.976L35.5298 143.832H41.6098V145ZM51.2035 145H46.2115L45.8915 149.272H46.0035C46.2808 148.899 46.5902 148.605 46.9315 148.392C47.2728 148.168 47.7422 148.056 48.3395 148.056C48.8302 148.056 49.2782 148.136 49.6835 148.296C50.0995 148.445 50.4568 148.669 50.7555 148.968C51.0542 149.267 51.2888 149.629 51.4595 150.056C51.6302 150.472 51.7155 150.952 51.7155 151.496C51.7155 152.04 51.6302 152.541 51.4595 153C51.2888 153.448 51.0382 153.837 50.7075 154.168C50.3768 154.488 49.9768 154.739 49.5075 154.92C49.0382 155.101 48.5048 155.192 47.9075 155.192C47.4382 155.192 47.0168 155.139 46.6435 155.032C46.2808 154.925 45.9555 154.781 45.6675 154.6C45.3902 154.419 45.1448 154.216 44.9315 153.992C44.7182 153.768 44.5262 153.533 44.3555 153.288L45.3635 152.52C45.5128 152.744 45.6622 152.947 45.8115 153.128C45.9715 153.309 46.1528 153.469 46.3555 153.608C46.5582 153.736 46.7875 153.837 47.0435 153.912C47.2995 153.987 47.5982 154.024 47.9395 154.024C48.7075 154.024 49.2942 153.816 49.6995 153.4C50.1155 152.984 50.3235 152.408 50.3235 151.672V151.544C50.3235 150.808 50.1155 150.232 49.6995 149.816C49.2835 149.4 48.6862 149.192 47.9075 149.192C47.3742 149.192 46.9582 149.283 46.6595 149.464C46.3715 149.645 46.1048 149.869 45.8595 150.136L44.7235 149.976L45.1235 143.832H51.2035V145ZM57.5973 155.192C57.0106 155.192 56.4826 155.096 56.0133 154.904C55.5439 154.701 55.1439 154.419 54.8133 154.056C54.4933 153.683 54.2426 153.229 54.0613 152.696C53.8906 152.163 53.8053 151.565 53.8053 150.904C53.8053 150.072 53.9279 149.293 54.1733 148.568C54.4293 147.832 54.7493 147.165 55.1332 146.568C55.5279 145.96 55.9653 145.427 56.4453 144.968C56.9253 144.499 57.3946 144.12 57.8533 143.832H59.5813C58.9733 144.269 58.4293 144.696 57.9493 145.112C57.4799 145.528 57.0639 145.965 56.7013 146.424C56.3386 146.872 56.0346 147.357 55.7893 147.88C55.5439 148.392 55.3413 148.973 55.1813 149.624L55.2613 149.656C55.5279 149.197 55.8799 148.819 56.3173 148.52C56.7546 148.211 57.3199 148.056 58.0133 148.056C58.5039 148.056 58.9519 148.136 59.3573 148.296C59.7626 148.456 60.1146 148.685 60.4133 148.984C60.7119 149.283 60.9413 149.645 61.1013 150.072C61.2719 150.499 61.3573 150.973 61.3573 151.496C61.3573 152.04 61.2666 152.541 61.0853 153C60.9039 153.448 60.6479 153.837 60.3173 154.168C59.9973 154.488 59.6026 154.739 59.1333 154.92C58.6746 155.101 58.1626 155.192 57.5973 155.192ZM57.5813 154.056C58.3493 154.056 58.9413 153.848 59.3573 153.432C59.7839 153.016 59.9973 152.429 59.9973 151.672V151.544C59.9973 150.787 59.7839 150.2 59.3573 149.784C58.9413 149.368 58.3493 149.16 57.5813 149.16C56.8133 149.16 56.2159 149.368 55.7893 149.784C55.3733 150.2 55.1653 150.787 55.1653 151.544V151.672C55.1653 152.429 55.3733 153.016 55.7893 153.432C56.2159 153.848 56.8133 154.056 57.5813 154.056ZM74.4488 150.808V149.464H79.0888V150.808H74.4488ZM99.1723 145H94.1803L93.8603 149.272H93.9723C94.2496 148.899 94.5589 148.605 94.9003 148.392C95.2416 148.168 95.7109 148.056 96.3083 148.056C96.7989 148.056 97.2469 148.136 97.6523 148.296C98.0683 148.445 98.4256 148.669 98.7243 148.968C99.0229 149.267 99.2576 149.629 99.4283 150.056C99.5989 150.472 99.6843 150.952 99.6843 151.496C99.6843 152.04 99.5989 152.541 99.4283 153C99.2576 153.448 99.0069 153.837 98.6763 154.168C98.3456 154.488 97.9456 154.739 97.4763 154.92C97.0069 155.101 96.4736 155.192 95.8763 155.192C95.4069 155.192 94.9856 155.139 94.6123 155.032C94.2496 154.925 93.9243 154.781 93.6363 154.6C93.3589 154.419 93.1136 154.216 92.9003 153.992C92.6869 153.768 92.4949 153.533 92.3243 153.288L93.3323 152.52C93.4816 152.744 93.6309 152.947 93.7803 153.128C93.9403 153.309 94.1216 153.469 94.3243 153.608C94.5269 153.736 94.7563 153.837 95.0123 153.912C95.2683 153.987 95.5669 154.024 95.9083 154.024C96.6763 154.024 97.2629 153.816 97.6683 153.4C98.0843 152.984 98.2923 152.408 98.2923 151.672V151.544C98.2923 150.808 98.0843 150.232 97.6683 149.816C97.2523 149.4 96.6549 149.192 95.8763 149.192C95.3429 149.192 94.9269 149.283 94.6283 149.464C94.3403 149.645 94.0736 149.869 93.8283 150.136L92.6923 149.976L93.0923 143.832H99.1723V145ZM105.566 155.192C104.979 155.192 104.451 155.096 103.982 154.904C103.513 154.701 103.113 154.419 102.782 154.056C102.462 153.683 102.211 153.229 102.03 152.696C101.859 152.163 101.774 151.565 101.774 150.904C101.774 150.072 101.897 149.293 102.142 148.568C102.398 147.832 102.718 147.165 103.102 146.568C103.497 145.96 103.934 145.427 104.414 144.968C104.894 144.499 105.363 144.12 105.822 143.832H107.55C106.942 144.269 106.398 144.696 105.918 145.112C105.449 145.528 105.033 145.965 104.67 146.424C104.307 146.872 104.003 147.357 103.758 147.88C103.513 148.392 103.31 148.973 103.15 149.624L103.23 149.656C103.497 149.197 103.849 148.819 104.286 148.52C104.723 148.211 105.289 148.056 105.982 148.056C106.473 148.056 106.921 148.136 107.326 148.296C107.731 148.456 108.083 148.685 108.382 148.984C108.681 149.283 108.91 149.645 109.07 150.072C109.241 150.499 109.326 150.973 109.326 151.496C109.326 152.04 109.235 152.541 109.054 153C108.873 153.448 108.617 153.837 108.286 154.168C107.966 154.488 107.571 154.739 107.102 154.92C106.643 155.101 106.131 155.192 105.566 155.192ZM105.55 154.056C106.318 154.056 106.91 153.848 107.326 153.432C107.753 153.016 107.966 152.429 107.966 151.672V151.544C107.966 150.787 107.753 150.2 107.326 149.784C106.91 149.368 106.318 149.16 105.55 149.16C104.782 149.16 104.185 149.368 103.758 149.784C103.342 150.2 103.134 150.787 103.134 151.544V151.672C103.134 152.429 103.342 153.016 103.758 153.432C104.185 153.848 104.782 154.056 105.55 154.056ZM116.392 155V152.808H110.888V151.624L115.72 143.832H117.672V151.704H119.336V152.808H117.672V155H116.392ZM112.088 151.704H116.392V144.872H116.328L112.088 151.704ZM128.53 155H121.074V153.624L124.802 150.264C125.346 149.773 125.794 149.272 126.146 148.76C126.498 148.237 126.674 147.688 126.674 147.112V146.92C126.674 146.248 126.498 145.731 126.146 145.368C125.794 144.995 125.271 144.808 124.578 144.808C123.895 144.808 123.367 144.984 122.994 145.336C122.631 145.677 122.359 146.136 122.178 146.712L120.978 146.264C121.084 145.933 121.228 145.613 121.41 145.304C121.602 144.984 121.842 144.701 122.13 144.456C122.418 144.211 122.764 144.013 123.17 143.864C123.586 143.715 124.066 143.64 124.61 143.64C125.164 143.64 125.655 143.72 126.082 143.88C126.519 144.04 126.882 144.264 127.17 144.552C127.468 144.84 127.692 145.181 127.842 145.576C128.002 145.971 128.082 146.403 128.082 146.872C128.082 147.299 128.018 147.699 127.89 148.072C127.772 148.445 127.602 148.803 127.378 149.144C127.164 149.485 126.903 149.821 126.594 150.152C126.295 150.472 125.959 150.792 125.586 151.112L122.466 153.832H128.53V155ZM141.605 150.808V149.464H146.245V150.808H141.605ZM163.113 155.192C162.43 155.192 161.843 155.064 161.353 154.808C160.862 154.541 160.457 154.163 160.137 153.672C159.817 153.181 159.582 152.579 159.433 151.864C159.283 151.149 159.209 150.333 159.209 149.416C159.209 148.509 159.283 147.699 159.433 146.984C159.582 146.259 159.817 145.651 160.137 145.16C160.457 144.669 160.862 144.296 161.353 144.04C161.843 143.773 162.43 143.64 163.113 143.64C163.795 143.64 164.382 143.773 164.873 144.04C165.363 144.296 165.769 144.669 166.089 145.16C166.409 145.651 166.643 146.259 166.793 146.984C166.942 147.699 167.017 148.509 167.017 149.416C167.017 150.333 166.942 151.149 166.793 151.864C166.643 152.579 166.409 153.181 166.089 153.672C165.769 154.163 165.363 154.541 164.873 154.808C164.382 155.064 163.795 155.192 163.113 155.192ZM163.113 154.024C163.561 154.024 163.945 153.939 164.265 153.768C164.585 153.587 164.841 153.336 165.033 153.016C165.235 152.696 165.385 152.312 165.481 151.864C165.577 151.405 165.625 150.893 165.625 150.328V148.504C165.625 147.949 165.577 147.443 165.481 146.984C165.385 146.525 165.235 146.136 165.033 145.816C164.841 145.496 164.585 145.251 164.265 145.08C163.945 144.899 163.561 144.808 163.113 144.808C162.665 144.808 162.281 144.899 161.961 145.08C161.641 145.251 161.379 145.496 161.177 145.816C160.985 146.136 160.841 146.525 160.745 146.984C160.649 147.443 160.601 147.949 160.601 148.504V150.328C160.601 150.893 160.649 151.405 160.745 151.864C160.841 152.312 160.985 152.696 161.177 153.016C161.379 153.336 161.641 153.587 161.961 153.768C162.281 153.939 162.665 154.024 163.113 154.024ZM163.113 150.36C162.739 150.36 162.478 150.285 162.329 150.136C162.19 149.987 162.121 149.805 162.121 149.592V149.24C162.121 149.027 162.19 148.845 162.329 148.696C162.478 148.547 162.739 148.472 163.113 148.472C163.486 148.472 163.742 148.547 163.881 148.696C164.03 148.845 164.105 149.027 164.105 149.24V149.592C164.105 149.805 164.03 149.987 163.881 150.136C163.742 150.285 163.486 150.36 163.113 150.36ZM172.722 155.192C172.136 155.192 171.608 155.096 171.138 154.904C170.669 154.701 170.269 154.419 169.938 154.056C169.618 153.683 169.368 153.229 169.186 152.696C169.016 152.163 168.93 151.565 168.93 150.904C168.93 150.072 169.053 149.293 169.298 148.568C169.554 147.832 169.874 147.165 170.258 146.568C170.653 145.96 171.09 145.427 171.57 144.968C172.05 144.499 172.52 144.12 172.978 143.832H174.706C174.098 144.269 173.554 144.696 173.074 145.112C172.605 145.528 172.189 145.965 171.826 146.424C171.464 146.872 171.16 147.357 170.914 147.88C170.669 148.392 170.466 148.973 170.306 149.624L170.386 149.656C170.653 149.197 171.005 148.819 171.442 148.52C171.88 148.211 172.445 148.056 173.138 148.056C173.629 148.056 174.077 148.136 174.482 148.296C174.888 148.456 175.24 148.685 175.538 148.984C175.837 149.283 176.066 149.645 176.226 150.072C176.397 150.499 176.482 150.973 176.482 151.496C176.482 152.04 176.392 152.541 176.21 153C176.029 153.448 175.773 153.837 175.442 154.168C175.122 154.488 174.728 154.739 174.258 154.92C173.8 155.101 173.288 155.192 172.722 155.192ZM172.706 154.056C173.474 154.056 174.066 153.848 174.482 153.432C174.909 153.016 175.122 152.429 175.122 151.672V151.544C175.122 150.787 174.909 150.2 174.482 149.784C174.066 149.368 173.474 149.16 172.706 149.16C171.938 149.16 171.341 149.368 170.914 149.784C170.498 150.2 170.29 150.787 170.29 151.544V151.672C170.29 152.429 170.498 153.016 170.914 153.432C171.341 153.848 171.938 154.056 172.706 154.056ZM186.076 147.928C186.076 148.76 185.948 149.544 185.692 150.28C185.447 151.005 185.127 151.672 184.732 152.28C184.337 152.877 183.9 153.411 183.42 153.88C182.951 154.339 182.487 154.712 182.028 155H180.3C180.908 154.563 181.447 154.136 181.916 153.72C182.396 153.304 182.817 152.872 183.18 152.424C183.543 151.965 183.847 151.48 184.092 150.968C184.337 150.445 184.54 149.859 184.7 149.208L184.62 149.176C184.343 149.635 183.985 150.019 183.548 150.328C183.121 150.627 182.561 150.776 181.868 150.776C181.377 150.776 180.924 150.696 180.508 150.536C180.103 150.376 179.751 150.147 179.452 149.848C179.164 149.549 178.935 149.192 178.764 148.776C178.604 148.349 178.524 147.869 178.524 147.336C178.524 146.792 178.609 146.296 178.78 145.848C178.961 145.389 179.217 145 179.548 144.68C179.879 144.349 180.273 144.093 180.732 143.912C181.201 143.731 181.719 143.64 182.284 143.64C182.871 143.64 183.399 143.741 183.868 143.944C184.337 144.136 184.732 144.419 185.052 144.792C185.383 145.155 185.633 145.603 185.804 146.136C185.985 146.669 186.076 147.267 186.076 147.928ZM182.3 149.672C183.068 149.672 183.66 149.464 184.076 149.048C184.503 148.632 184.716 148.045 184.716 147.288V147.16C184.716 146.403 184.503 145.816 184.076 145.4C183.66 144.984 183.068 144.776 182.3 144.776C181.532 144.776 180.935 144.984 180.508 145.4C180.092 145.816 179.884 146.403 179.884 147.16V147.288C179.884 148.045 180.092 148.632 180.508 149.048C180.935 149.464 181.532 149.672 182.3 149.672ZM195.11 145H190.118L189.798 149.272H189.91C190.187 148.899 190.496 148.605 190.838 148.392C191.179 148.168 191.648 148.056 192.246 148.056C192.736 148.056 193.184 148.136 193.59 148.296C194.006 148.445 194.363 148.669 194.662 148.968C194.96 149.267 195.195 149.629 195.366 150.056C195.536 150.472 195.622 150.952 195.622 151.496C195.622 152.04 195.536 152.541 195.366 153C195.195 153.448 194.944 153.837 194.614 154.168C194.283 154.488 193.883 154.739 193.414 154.92C192.944 155.101 192.411 155.192 191.814 155.192C191.344 155.192 190.923 155.139 190.55 155.032C190.187 154.925 189.862 154.781 189.574 154.6C189.296 154.419 189.051 154.216 188.838 153.992C188.624 153.768 188.432 153.533 188.262 153.288L189.27 152.52C189.419 152.744 189.568 152.947 189.718 153.128C189.878 153.309 190.059 153.469 190.262 153.608C190.464 153.736 190.694 153.837 190.95 153.912C191.206 153.987 191.504 154.024 191.846 154.024C192.614 154.024 193.2 153.816 193.606 153.4C194.022 152.984 194.23 152.408 194.23 151.672V151.544C194.23 150.808 194.022 150.232 193.606 149.816C193.19 149.4 192.592 149.192 191.814 149.192C191.28 149.192 190.864 149.283 190.566 149.464C190.278 149.645 190.011 149.869 189.766 150.136L188.63 149.976L189.03 143.832H195.11V145ZM208.761 150.808V149.464H213.401V150.808H208.761ZM233.485 145H228.493L228.173 149.272H228.285C228.562 148.899 228.871 148.605 229.213 148.392C229.554 148.168 230.023 148.056 230.621 148.056C231.111 148.056 231.559 148.136 231.965 148.296C232.381 148.445 232.738 148.669 233.037 148.968C233.335 149.267 233.57 149.629 233.741 150.056C233.911 150.472 233.997 150.952 233.997 151.496C233.997 152.04 233.911 152.541 233.741 153C233.57 153.448 233.319 153.837 232.989 154.168C232.658 154.488 232.258 154.739 231.789 154.92C231.319 155.101 230.786 155.192 230.189 155.192C229.719 155.192 229.298 155.139 228.925 155.032C228.562 154.925 228.237 154.781 227.949 154.6C227.671 154.419 227.426 154.216 227.213 153.992C226.999 153.768 226.807 153.533 226.637 153.288L227.645 152.52C227.794 152.744 227.943 152.947 228.093 153.128C228.253 153.309 228.434 153.469 228.637 153.608C228.839 153.736 229.069 153.837 229.325 153.912C229.581 153.987 229.879 154.024 230.221 154.024C230.989 154.024 231.575 153.816 231.981 153.4C232.397 152.984 232.605 152.408 232.605 151.672V151.544C232.605 150.808 232.397 150.232 231.981 149.816C231.565 149.4 230.967 149.192 230.189 149.192C229.655 149.192 229.239 149.283 228.941 149.464C228.653 149.645 228.386 149.869 228.141 150.136L227.005 149.976L227.405 143.832H233.485V145ZM236.423 155V153.832H239.623V144.824H239.511L236.695 147.448L235.911 146.6L238.871 143.832H240.967V153.832H243.911V155H236.423ZM249.472 155.192C248.886 155.192 248.358 155.096 247.888 154.904C247.419 154.701 247.019 154.419 246.688 154.056C246.368 153.683 246.118 153.229 245.936 152.696C245.766 152.163 245.68 151.565 245.68 150.904C245.68 150.072 245.803 149.293 246.048 148.568C246.304 147.832 246.624 147.165 247.008 146.568C247.403 145.96 247.84 145.427 248.32 144.968C248.8 144.499 249.27 144.12 249.728 143.832H251.456C250.848 144.269 250.304 144.696 249.824 145.112C249.355 145.528 248.939 145.965 248.576 146.424C248.214 146.872 247.91 147.357 247.664 147.88C247.419 148.392 247.216 148.973 247.056 149.624L247.136 149.656C247.403 149.197 247.755 148.819 248.192 148.52C248.63 148.211 249.195 148.056 249.888 148.056C250.379 148.056 250.827 148.136 251.232 148.296C251.638 148.456 251.99 148.685 252.288 148.984C252.587 149.283 252.816 149.645 252.976 150.072C253.147 150.499 253.232 150.973 253.232 151.496C253.232 152.04 253.142 152.541 252.96 153C252.779 153.448 252.523 153.837 252.192 154.168C251.872 154.488 251.478 154.739 251.008 154.92C250.55 155.101 250.038 155.192 249.472 155.192ZM249.456 154.056C250.224 154.056 250.816 153.848 251.232 153.432C251.659 153.016 251.872 152.429 251.872 151.672V151.544C251.872 150.787 251.659 150.2 251.232 149.784C250.816 149.368 250.224 149.16 249.456 149.16C248.688 149.16 248.091 149.368 247.664 149.784C247.248 150.2 247.04 150.787 247.04 151.544V151.672C247.04 152.429 247.248 153.016 247.664 153.432C248.091 153.848 248.688 154.056 249.456 154.056ZM259.05 155.192C258.399 155.192 257.829 155.112 257.338 154.952C256.847 154.781 256.437 154.552 256.106 154.264C255.786 153.976 255.541 153.635 255.37 153.24C255.21 152.845 255.13 152.419 255.13 151.96C255.13 151.192 255.338 150.584 255.754 150.136C256.17 149.688 256.719 149.373 257.402 149.192V149.064C256.805 148.861 256.33 148.536 255.978 148.088C255.637 147.629 255.466 147.08 255.466 146.44C255.466 145.587 255.781 144.909 256.41 144.408C257.039 143.896 257.919 143.64 259.05 143.64C260.181 143.64 261.061 143.896 261.69 144.408C262.319 144.909 262.634 145.587 262.634 146.44C262.634 147.08 262.458 147.629 262.106 148.088C261.765 148.536 261.295 148.861 260.698 149.064V149.192C261.381 149.373 261.93 149.688 262.346 150.136C262.762 150.584 262.97 151.192 262.97 151.96C262.97 152.419 262.885 152.845 262.714 153.24C262.554 153.635 262.309 153.976 261.978 154.264C261.647 154.552 261.237 154.781 260.746 154.952C260.266 155.112 259.701 155.192 259.05 155.192ZM259.05 154.056C259.839 154.056 260.458 153.88 260.906 153.528C261.354 153.176 261.578 152.68 261.578 152.04V151.688C261.578 151.048 261.354 150.552 260.906 150.2C260.469 149.848 259.85 149.672 259.05 149.672C258.25 149.672 257.626 149.848 257.178 150.2C256.741 150.552 256.522 151.048 256.522 151.688V152.04C256.522 152.68 256.746 153.176 257.194 153.528C257.642 153.88 258.261 154.056 259.05 154.056ZM259.05 148.584C259.775 148.584 260.325 148.429 260.698 148.12C261.082 147.811 261.274 147.368 261.274 146.792V146.568C261.274 145.992 261.077 145.549 260.682 145.24C260.298 144.931 259.754 144.776 259.05 144.776C258.346 144.776 257.797 144.931 257.402 145.24C257.018 145.549 256.826 145.992 256.826 146.568V146.792C256.826 147.368 257.013 147.811 257.386 148.12C257.77 148.429 258.325 148.584 259.05 148.584Z" fill="white"/>
<path d="M28.768 131.192C27.7653 131.192 26.944 131.011 26.304 130.648C25.664 130.275 25.136 129.8 24.72 129.224L25.696 128.424C26.1333 128.968 26.592 129.373 27.072 129.64C27.5627 129.907 28.144 130.04 28.816 130.04C29.6267 130.04 30.2453 129.853 30.672 129.48C31.0987 129.107 31.312 128.584 31.312 127.912C31.312 127.368 31.1573 126.947 30.848 126.648C30.5387 126.339 30 126.12 29.232 125.992L27.984 125.784C27.44 125.688 26.9813 125.544 26.608 125.352C26.2453 125.16 25.952 124.931 25.728 124.664C25.504 124.387 25.344 124.088 25.248 123.768C25.152 123.437 25.104 123.096 25.104 122.744C25.104 121.72 25.44 120.947 26.112 120.424C26.784 119.901 27.6907 119.64 28.832 119.64C29.728 119.64 30.48 119.789 31.088 120.088C31.7067 120.387 32.2027 120.808 32.576 121.352L31.632 122.168C31.3227 121.763 30.9493 121.432 30.512 121.176C30.0747 120.92 29.5093 120.792 28.816 120.792C28.0587 120.792 27.4773 120.952 27.072 121.272C26.6667 121.592 26.464 122.072 26.464 122.712C26.464 123.213 26.6133 123.624 26.912 123.944C27.2213 124.253 27.7707 124.477 28.56 124.616L29.76 124.824C30.304 124.92 30.7627 125.064 31.136 125.256C31.5093 125.448 31.808 125.677 32.032 125.944C32.2667 126.211 32.432 126.509 32.528 126.84C32.624 127.171 32.672 127.517 32.672 127.88C32.672 128.915 32.3307 129.725 31.648 130.312C30.976 130.899 30.016 131.192 28.768 131.192ZM41.5138 131C41.0124 131 40.6551 130.872 40.4418 130.616C40.2284 130.36 40.0951 130.04 40.0418 129.656H39.9618C39.7804 130.136 39.4871 130.515 39.0818 130.792C38.6871 131.059 38.1538 131.192 37.4818 131.192C36.6178 131.192 35.9298 130.968 35.4178 130.52C34.9058 130.072 34.6497 129.459 34.6497 128.68C34.6497 127.912 34.9271 127.32 35.4818 126.904C36.0471 126.488 36.9538 126.28 38.2018 126.28H39.9618V125.464C39.9618 124.856 39.7911 124.403 39.4498 124.104C39.1084 123.795 38.6231 123.64 37.9938 123.64C37.4391 123.64 36.9858 123.752 36.6338 123.976C36.2818 124.189 35.9991 124.483 35.7858 124.856L34.9218 124.216C35.0284 124.003 35.1724 123.795 35.3538 123.592C35.5351 123.389 35.7591 123.213 36.0258 123.064C36.2924 122.904 36.5964 122.781 36.9378 122.696C37.2791 122.6 37.6578 122.552 38.0738 122.552C39.0444 122.552 39.8124 122.797 40.3778 123.288C40.9538 123.779 41.2418 124.461 41.2418 125.336V129.88H42.3938V131H41.5138ZM37.7057 130.12C38.0364 130.12 38.3351 130.083 38.6018 130.008C38.8791 129.923 39.1191 129.816 39.3218 129.688C39.5244 129.549 39.6791 129.389 39.7858 129.208C39.9031 129.016 39.9618 128.813 39.9618 128.6V127.24H38.2018C37.4338 127.24 36.8738 127.347 36.5218 127.56C36.1698 127.773 35.9938 128.083 35.9938 128.488V128.824C35.9938 129.251 36.1431 129.576 36.4418 129.8C36.7511 130.013 37.1724 130.12 37.7057 130.12ZM44.0515 131V122.744H45.2355V123.704H45.2995C45.4275 123.384 45.6088 123.112 45.8435 122.888C46.0782 122.664 46.4248 122.552 46.8835 122.552C47.3635 122.552 47.7208 122.675 47.9555 122.92C48.1902 123.155 48.3342 123.464 48.3875 123.848H48.4355C48.5848 123.475 48.7982 123.165 49.0755 122.92C49.3528 122.675 49.7368 122.552 50.2275 122.552C50.8995 122.552 51.3475 122.787 51.5715 123.256C51.8062 123.725 51.9235 124.397 51.9235 125.272V131H50.7395V125.48C50.7395 124.776 50.6648 124.291 50.5155 124.024C50.3768 123.747 50.1155 123.608 49.7315 123.608C49.3902 123.608 49.1128 123.72 48.8995 123.944C48.6862 124.157 48.5795 124.488 48.5795 124.936V131H47.3955V125.48C47.3955 124.776 47.3208 124.291 47.1715 124.024C47.0328 123.747 46.7768 123.608 46.4035 123.608C46.0622 123.608 45.7795 123.72 45.5555 123.944C45.3422 124.157 45.2355 124.488 45.2355 124.936V131H44.0515ZM59.5333 129.656H59.4693C59.3839 129.859 59.2773 130.056 59.1493 130.248C59.0213 130.429 58.8613 130.589 58.6693 130.728C58.4879 130.867 58.2693 130.979 58.0133 131.064C57.7573 131.149 57.4586 131.192 57.1173 131.192C56.2533 131.192 55.5599 130.92 55.0373 130.376C54.5146 129.821 54.2533 129.043 54.2533 128.04V122.744H55.5333V127.816C55.5333 128.573 55.6986 129.139 56.0293 129.512C56.3599 129.875 56.8453 130.056 57.4852 130.056C57.7413 130.056 57.9919 130.024 58.2373 129.96C58.4826 129.896 58.7013 129.8 58.8933 129.672C59.0853 129.544 59.2399 129.384 59.3573 129.192C59.4746 128.989 59.5333 128.749 59.5333 128.472V122.744H60.8133V131H59.5333V129.656ZM67.319 131.192C66.7217 131.192 66.183 131.091 65.703 130.888C65.2337 130.685 64.8283 130.397 64.487 130.024C64.1563 129.64 63.9003 129.187 63.719 128.664C63.5377 128.131 63.447 127.539 63.447 126.888C63.447 126.227 63.5377 125.629 63.719 125.096C63.911 124.563 64.1723 124.109 64.503 123.736C64.8337 123.352 65.2283 123.059 65.687 122.856C66.1563 122.653 66.6737 122.552 67.239 122.552C67.7937 122.552 68.295 122.653 68.743 122.856C69.2017 123.059 69.591 123.341 69.911 123.704C70.231 124.056 70.4763 124.477 70.647 124.968C70.8177 125.459 70.903 125.997 70.903 126.584V127.192H64.791V127.576C64.791 127.939 64.8497 128.275 64.967 128.584C65.0843 128.893 65.2497 129.16 65.463 129.384C65.687 129.608 65.9537 129.784 66.263 129.912C66.583 130.029 66.935 130.088 67.319 130.088C67.8737 130.088 68.3537 129.96 68.759 129.704C69.1643 129.448 69.4737 129.096 69.687 128.648L70.631 129.288C70.3857 129.843 69.975 130.301 69.399 130.664C68.8337 131.016 68.1403 131.192 67.319 131.192ZM67.239 123.608C66.887 123.608 66.5617 123.672 66.263 123.8C65.9643 123.928 65.703 124.104 65.479 124.328C65.2657 124.552 65.095 124.819 64.967 125.128C64.8497 125.427 64.791 125.757 64.791 126.12V126.232H69.527V126.056C69.527 125.693 69.4683 125.363 69.351 125.064C69.2443 124.765 69.0897 124.509 68.887 124.296C68.695 124.072 68.455 123.901 68.167 123.784C67.8897 123.667 67.5803 123.608 67.239 123.608ZM73.2488 129.912H76.1288V120.248H73.2488V119.16H77.4088V129.912H80.2888V131H73.2488V129.912ZM92.5643 119.832H96.3563C97.3163 119.832 98.0683 120.093 98.6123 120.616C99.1563 121.139 99.4283 121.837 99.4283 122.712C99.4283 123.384 99.2629 123.912 98.9323 124.296C98.6123 124.68 98.1963 124.952 97.6843 125.112V125.16C98.3136 125.309 98.8309 125.592 99.2362 126.008C99.6416 126.413 99.8443 127.005 99.8443 127.784C99.8443 128.232 99.7696 128.653 99.6203 129.048C99.4709 129.443 99.2576 129.784 98.9803 130.072C98.7136 130.36 98.3936 130.589 98.0203 130.76C97.6576 130.92 97.2629 131 96.8363 131H92.5643V119.832ZM96.4363 129.832C97.0549 129.832 97.5403 129.693 97.8923 129.416C98.2443 129.139 98.4203 128.712 98.4203 128.136V127.48C98.4203 126.915 98.2443 126.493 97.8923 126.216C97.5403 125.928 97.0549 125.784 96.4363 125.784H93.9083V129.832H96.4363ZM96.2123 124.68C96.7776 124.68 97.2203 124.557 97.5403 124.312C97.8603 124.056 98.0203 123.672 98.0203 123.16V122.536C98.0203 122.024 97.8603 121.64 97.5403 121.384C97.2203 121.128 96.7776 121 96.2123 121H93.9083V124.68H96.2123ZM105.55 131.192C104.974 131.192 104.451 131.091 103.982 130.888C103.523 130.685 103.129 130.397 102.798 130.024C102.478 129.64 102.233 129.187 102.062 128.664C101.891 128.131 101.806 127.533 101.806 126.872C101.806 126.221 101.891 125.629 102.062 125.096C102.233 124.563 102.478 124.109 102.798 123.736C103.129 123.352 103.523 123.059 103.982 122.856C104.451 122.653 104.974 122.552 105.55 122.552C106.126 122.552 106.643 122.653 107.102 122.856C107.571 123.059 107.966 123.352 108.286 123.736C108.617 124.109 108.867 124.563 109.038 125.096C109.209 125.629 109.294 126.221 109.294 126.872C109.294 127.533 109.209 128.131 109.038 128.664C108.867 129.187 108.617 129.64 108.286 130.024C107.966 130.397 107.571 130.685 107.102 130.888C106.643 131.091 106.126 131.192 105.55 131.192ZM105.55 130.088C106.265 130.088 106.841 129.875 107.278 129.448C107.715 129.021 107.934 128.36 107.934 127.464V126.28C107.934 125.384 107.715 124.723 107.278 124.296C106.841 123.869 106.265 123.656 105.55 123.656C104.835 123.656 104.259 123.869 103.822 124.296C103.385 124.723 103.166 125.384 103.166 126.28V127.464C103.166 128.36 103.385 129.021 103.822 129.448C104.259 129.875 104.835 130.088 105.55 130.088ZM118.264 131C117.762 131 117.405 130.872 117.192 130.616C116.978 130.36 116.845 130.04 116.792 129.656H116.712C116.53 130.136 116.237 130.515 115.832 130.792C115.437 131.059 114.904 131.192 114.232 131.192C113.368 131.192 112.68 130.968 112.168 130.52C111.656 130.072 111.4 129.459 111.4 128.68C111.4 127.912 111.677 127.32 112.232 126.904C112.797 126.488 113.704 126.28 114.952 126.28H116.712V125.464C116.712 124.856 116.541 124.403 116.2 124.104C115.858 123.795 115.373 123.64 114.744 123.64C114.189 123.64 113.736 123.752 113.384 123.976C113.032 124.189 112.749 124.483 112.536 124.856L111.672 124.216C111.778 124.003 111.922 123.795 112.104 123.592C112.285 123.389 112.509 123.213 112.776 123.064C113.042 122.904 113.346 122.781 113.688 122.696C114.029 122.6 114.408 122.552 114.824 122.552C115.794 122.552 116.562 122.797 117.128 123.288C117.704 123.779 117.992 124.461 117.992 125.336V129.88H119.144V131H118.264ZM114.456 130.12C114.786 130.12 115.085 130.083 115.352 130.008C115.629 129.923 115.869 129.816 116.072 129.688C116.274 129.549 116.429 129.389 116.536 129.208C116.653 129.016 116.712 128.813 116.712 128.6V127.24H114.952C114.184 127.24 113.624 127.347 113.272 127.56C112.92 127.773 112.744 128.083 112.744 128.488V128.824C112.744 129.251 112.893 129.576 113.192 129.8C113.501 130.013 113.922 130.12 114.456 130.12ZM121.506 119.16H122.786V124.088H122.85C122.935 123.885 123.042 123.693 123.17 123.512C123.298 123.32 123.452 123.155 123.634 123.016C123.826 122.877 124.05 122.765 124.306 122.68C124.562 122.595 124.86 122.552 125.202 122.552C126.066 122.552 126.759 122.829 127.282 123.384C127.804 123.928 128.066 124.701 128.066 125.704V131H126.786V125.928C126.786 125.171 126.62 124.611 126.29 124.248C125.959 123.875 125.474 123.688 124.834 123.688C124.578 123.688 124.327 123.72 124.082 123.784C123.836 123.848 123.618 123.944 123.426 124.072C123.234 124.2 123.079 124.365 122.962 124.568C122.844 124.771 122.786 125.005 122.786 125.272V131H121.506V119.16ZM134.475 131.192C133.878 131.192 133.339 131.091 132.859 130.888C132.39 130.685 131.985 130.397 131.643 130.024C131.313 129.64 131.057 129.187 130.875 128.664C130.694 128.131 130.603 127.539 130.603 126.888C130.603 126.227 130.694 125.629 130.875 125.096C131.067 124.563 131.329 124.109 131.659 123.736C131.99 123.352 132.385 123.059 132.843 122.856C133.313 122.653 133.83 122.552 134.395 122.552C134.95 122.552 135.451 122.653 135.899 122.856C136.358 123.059 136.747 123.341 137.067 123.704C137.387 124.056 137.633 124.477 137.803 124.968C137.974 125.459 138.059 125.997 138.059 126.584V127.192H131.947V127.576C131.947 127.939 132.006 128.275 132.123 128.584C132.241 128.893 132.406 129.16 132.619 129.384C132.843 129.608 133.11 129.784 133.419 129.912C133.739 130.029 134.091 130.088 134.475 130.088C135.03 130.088 135.51 129.96 135.915 129.704C136.321 129.448 136.63 129.096 136.843 128.648L137.787 129.288C137.542 129.843 137.131 130.301 136.555 130.664C135.99 131.016 135.297 131.192 134.475 131.192ZM134.395 123.608C134.043 123.608 133.718 123.672 133.419 123.8C133.121 123.928 132.859 124.104 132.635 124.328C132.422 124.552 132.251 124.819 132.123 125.128C132.006 125.427 131.947 125.757 131.947 126.12V126.232H136.683V126.056C136.683 125.693 136.625 125.363 136.507 125.064C136.401 124.765 136.246 124.509 136.043 124.296C135.851 124.072 135.611 123.901 135.323 123.784C135.046 123.667 134.737 123.608 134.395 123.608ZM140.693 131V122.744H141.973V124.088H142.037C142.122 123.885 142.229 123.693 142.357 123.512C142.485 123.32 142.64 123.155 142.821 123.016C143.013 122.877 143.237 122.765 143.493 122.68C143.749 122.595 144.048 122.552 144.389 122.552C145.253 122.552 145.946 122.829 146.469 123.384C146.992 123.928 147.253 124.701 147.253 125.704V131H145.973V125.928C145.973 125.171 145.808 124.611 145.477 124.248C145.146 123.875 144.661 123.688 144.021 123.688C143.765 123.688 143.514 123.72 143.269 123.784C143.024 123.848 142.805 123.944 142.613 124.072C142.421 124.2 142.266 124.365 142.149 124.568C142.032 124.771 141.973 125.005 141.973 125.272V131H140.693Z" fill="white"/>
<path opacity="0.9" d="M28.32 34.8C29.8773 34.8 31.072 35.0987 31.904 35.696C32.7467 36.2827 33.168 37.1627 33.168 38.336C33.168 38.976 33.0507 39.5253 32.816 39.984C32.592 40.432 32.2613 40.8 31.824 41.088C31.3973 41.3653 30.8747 41.568 30.256 41.696C29.6373 41.824 28.9387 41.888 28.16 41.888H26.928V46H25.376V35.072C25.8133 34.9653 26.2987 34.896 26.832 34.864C27.376 34.8213 27.872 34.8 28.32 34.8ZM28.448 36.16C27.7867 36.16 27.28 36.176 26.928 36.208V40.56H28.096C28.6293 40.56 29.1093 40.528 29.536 40.464C29.9627 40.3893 30.32 40.272 30.608 40.112C30.9067 39.9413 31.136 39.712 31.296 39.424C31.456 39.136 31.536 38.768 31.536 38.32C31.536 37.8933 31.4507 37.5413 31.28 37.264C31.12 36.9867 30.896 36.768 30.608 36.608C30.3307 36.4373 30.0053 36.32 29.632 36.256C29.2587 36.192 28.864 36.16 28.448 36.16ZM38.0864 37.504C38.2144 37.504 38.3584 37.5147 38.5184 37.536C38.689 37.5467 38.8544 37.568 39.0144 37.6C39.1744 37.6213 39.3184 37.648 39.4464 37.68C39.585 37.7013 39.6864 37.7227 39.7504 37.744L39.4944 39.04C39.377 38.9973 39.1797 38.9493 38.9024 38.896C38.6357 38.832 38.289 38.8 37.8624 38.8C37.585 38.8 37.3077 38.832 37.0304 38.896C36.7637 38.9493 36.5877 38.9867 36.5024 39.008V46H35.0144V38.032C35.3664 37.904 35.8037 37.7867 36.3264 37.68C36.849 37.5627 37.4357 37.504 38.0864 37.504ZM40.7223 41.856C40.7223 41.12 40.8289 40.48 41.0423 39.936C41.2556 39.3813 41.5383 38.9227 41.8903 38.56C42.2423 38.1973 42.6476 37.9253 43.1063 37.744C43.5649 37.5627 44.0343 37.472 44.5143 37.472C45.6343 37.472 46.4929 37.824 47.0903 38.528C47.6876 39.2213 47.9862 40.2827 47.9862 41.712C47.9862 41.776 47.9862 41.8613 47.9862 41.968C47.9862 42.064 47.9809 42.1547 47.9703 42.24H42.2743C42.3383 43.104 42.5889 43.76 43.0263 44.208C43.4636 44.656 44.1463 44.88 45.0743 44.88C45.5969 44.88 46.0343 44.8373 46.3863 44.752C46.7489 44.656 47.0209 44.5653 47.2023 44.48L47.4103 45.728C47.2289 45.824 46.9089 45.9253 46.4503 46.032C46.0023 46.1387 45.4903 46.192 44.9143 46.192C44.1889 46.192 43.5596 46.0853 43.0263 45.872C42.5036 45.648 42.0716 45.344 41.7303 44.96C41.3889 44.576 41.1329 44.1227 40.9622 43.6C40.8023 43.0667 40.7223 42.4853 40.7223 41.856ZM46.4343 41.04C46.4449 40.368 46.2743 39.8187 45.9223 39.392C45.5809 38.9547 45.1063 38.736 44.4983 38.736C44.1569 38.736 43.8529 38.8053 43.5863 38.944C43.3303 39.072 43.1116 39.2427 42.9303 39.456C42.7489 39.6693 42.6049 39.9147 42.4983 40.192C42.4023 40.4693 42.3383 40.752 42.3063 41.04H46.4343ZM55.8998 41.856C55.8998 40.8853 55.6598 40.1387 55.1798 39.616C54.6998 39.0933 54.0598 38.832 53.2598 38.832C52.8118 38.832 52.4598 38.848 52.2038 38.88C51.9584 38.912 51.7611 38.9493 51.6118 38.992V44.24C51.7931 44.3893 52.0544 44.5333 52.3958 44.672C52.7371 44.8107 53.1104 44.88 53.5158 44.88C53.9424 44.88 54.3051 44.8053 54.6038 44.656C54.9131 44.496 55.1638 44.2827 55.3558 44.016C55.5478 43.7387 55.6864 43.4187 55.7718 43.056C55.8571 42.6827 55.8998 42.2827 55.8998 41.856ZM57.4518 41.856C57.4518 42.4853 57.3664 43.0667 57.1958 43.6C57.0358 44.1333 56.7958 44.592 56.4758 44.976C56.1558 45.36 55.7611 45.6587 55.2918 45.872C54.8331 46.0853 54.3051 46.192 53.7078 46.192C53.2278 46.192 52.8011 46.128 52.4278 46C52.0651 45.872 51.7931 45.7493 51.6118 45.632V48.96H50.1238V37.936C50.4758 37.8507 50.9131 37.76 51.4358 37.664C51.9691 37.5573 52.5824 37.504 53.2758 37.504C53.9158 37.504 54.4918 37.6053 55.0038 37.808C55.5158 38.0107 55.9531 38.2987 56.3158 38.672C56.6784 39.0453 56.9558 39.504 57.1478 40.048C57.3504 40.5813 57.4518 41.184 57.4518 41.856ZM62.3616 44.928C62.7136 44.928 63.023 44.9227 63.2896 44.912C63.567 44.8907 63.7963 44.8587 63.9776 44.816V42.336C63.871 42.2827 63.695 42.24 63.4496 42.208C63.215 42.1653 62.927 42.144 62.5856 42.144C62.3616 42.144 62.1216 42.16 61.8656 42.192C61.6203 42.224 61.391 42.2933 61.1776 42.4C60.975 42.496 60.8043 42.6347 60.6656 42.816C60.527 42.9867 60.4576 43.216 60.4576 43.504C60.4576 44.0373 60.6283 44.4107 60.9696 44.624C61.311 44.8267 61.775 44.928 62.3616 44.928ZM62.2336 37.472C62.831 37.472 63.3323 37.552 63.7376 37.712C64.1536 37.8613 64.4843 38.08 64.7296 38.368C64.9856 38.6453 65.167 38.9813 65.2736 39.376C65.3803 39.76 65.4336 40.1867 65.4336 40.656V45.856C65.3056 45.8773 65.1243 45.9093 64.8896 45.952C64.6656 45.984 64.4096 46.016 64.1216 46.048C63.8336 46.08 63.519 46.1067 63.1776 46.128C62.847 46.16 62.5163 46.176 62.1856 46.176C61.7163 46.176 61.2843 46.128 60.8896 46.032C60.495 45.936 60.1536 45.7867 59.8656 45.584C59.5776 45.3707 59.3536 45.0933 59.1936 44.752C59.0336 44.4107 58.9536 44 58.9536 43.52C58.9536 43.0613 59.0443 42.6667 59.2256 42.336C59.4176 42.0053 59.6736 41.7387 59.9936 41.536C60.3136 41.3333 60.687 41.184 61.1136 41.088C61.5403 40.992 61.9883 40.944 62.4576 40.944C62.607 40.944 62.7616 40.9547 62.9216 40.976C63.0816 40.9867 63.231 41.008 63.3696 41.04C63.519 41.0613 63.647 41.0827 63.7536 41.104C63.8603 41.1253 63.935 41.1413 63.9776 41.152V40.736C63.9776 40.4907 63.951 40.2507 63.8976 40.016C63.8443 39.7707 63.7483 39.5573 63.6096 39.376C63.471 39.184 63.279 39.0347 63.0336 38.928C62.799 38.8107 62.4896 38.752 62.1056 38.752C61.615 38.752 61.183 38.7893 60.8096 38.864C60.447 38.928 60.175 38.9973 59.9936 39.072L59.8176 37.84C60.0096 37.7547 60.3296 37.6747 60.7776 37.6C61.2256 37.5147 61.711 37.472 62.2336 37.472ZM69.393 46H67.905V37.68H69.393V46ZM68.641 36.176C68.3743 36.176 68.145 36.0907 67.953 35.92C67.7717 35.7387 67.681 35.4987 67.681 35.2C67.681 34.9013 67.7717 34.6667 67.953 34.496C68.145 34.3147 68.3743 34.224 68.641 34.224C68.9077 34.224 69.1317 34.3147 69.313 34.496C69.505 34.6667 69.601 34.9013 69.601 35.2C69.601 35.4987 69.505 35.7387 69.313 35.92C69.1317 36.0907 68.9077 36.176 68.641 36.176ZM77.3279 39.44C77.1465 39.2907 76.8852 39.1467 76.5439 39.008C76.2025 38.8693 75.8292 38.8 75.4239 38.8C74.9972 38.8 74.6292 38.88 74.3199 39.04C74.0212 39.1893 73.7759 39.4027 73.5839 39.68C73.3919 39.9467 73.2532 40.2667 73.1679 40.64C73.0825 41.0133 73.0399 41.4133 73.0399 41.84C73.0399 42.8107 73.2799 43.5627 73.7599 44.096C74.2399 44.6187 74.8799 44.88 75.6799 44.88C76.0852 44.88 76.4212 44.864 76.6879 44.832C76.9652 44.7893 77.1785 44.7467 77.3279 44.704V39.44ZM77.3279 33.84L78.8159 33.584V45.76C78.4745 45.856 78.0372 45.952 77.5039 46.048C76.9705 46.144 76.3572 46.192 75.6639 46.192C75.0239 46.192 74.4479 46.0907 73.9359 45.888C73.4239 45.6853 72.9865 45.3973 72.6239 45.024C72.2612 44.6507 71.9785 44.1973 71.7759 43.664C71.5839 43.12 71.4879 42.512 71.4879 41.84C71.4879 41.2 71.5679 40.6133 71.7279 40.08C71.8985 39.5467 72.1439 39.088 72.4639 38.704C72.7839 38.32 73.1732 38.0213 73.6319 37.808C74.1012 37.5947 74.6345 37.488 75.2319 37.488C75.7119 37.488 76.1332 37.552 76.4959 37.68C76.8692 37.808 77.1465 37.9307 77.3279 38.048V33.84ZM89.9409 46.24C89.1622 46.24 88.4529 46.112 87.8129 45.856C87.1729 45.6 86.6235 45.2267 86.1649 44.736C85.7062 44.2453 85.3489 43.6427 85.0929 42.928C84.8475 42.2027 84.7249 41.376 84.7249 40.448C84.7249 39.52 84.8635 38.6987 85.1409 37.984C85.4289 37.2587 85.8129 36.6507 86.2929 36.16C86.7729 35.6693 87.3329 35.296 87.9729 35.04C88.6129 34.784 89.2955 34.656 90.0209 34.656C90.4795 34.656 90.8902 34.688 91.2529 34.752C91.6262 34.816 91.9462 34.8907 92.2129 34.976C92.4902 35.0613 92.7142 35.1467 92.8849 35.232C93.0555 35.3173 93.1729 35.3813 93.2369 35.424L92.7889 36.704C92.6929 36.64 92.5542 36.5707 92.3729 36.496C92.1915 36.4213 91.9835 36.3467 91.7489 36.272C91.5249 36.1973 91.2742 36.1387 90.9969 36.096C90.7302 36.0427 90.4582 36.016 90.1809 36.016C89.5942 36.016 89.0662 36.1173 88.5969 36.32C88.1275 36.5227 87.7275 36.816 87.3969 37.2C87.0662 37.584 86.8102 38.0533 86.6289 38.608C86.4582 39.152 86.3729 39.7653 86.3729 40.448C86.3729 41.1093 86.4475 41.712 86.5969 42.256C86.7569 42.8 86.9915 43.2693 87.3009 43.664C87.6102 44.048 87.9942 44.3467 88.4529 44.56C88.9222 44.7733 89.4662 44.88 90.0849 44.88C90.7995 44.88 91.3915 44.8053 91.8609 44.656C92.3302 44.5067 92.6822 44.3733 92.9169 44.256L93.3169 45.536C93.2422 45.5893 93.1089 45.6587 92.9169 45.744C92.7249 45.8187 92.4849 45.8933 92.1969 45.968C91.9089 46.0427 91.5729 46.1067 91.1889 46.16C90.8049 46.2133 90.3889 46.24 89.9409 46.24ZM97.8148 44.928C98.1668 44.928 98.4761 44.9227 98.7428 44.912C99.0201 44.8907 99.2494 44.8587 99.4308 44.816V42.336C99.3241 42.2827 99.1481 42.24 98.9028 42.208C98.6681 42.1653 98.3801 42.144 98.0388 42.144C97.8148 42.144 97.5748 42.16 97.3188 42.192C97.0734 42.224 96.8441 42.2933 96.6308 42.4C96.4281 42.496 96.2574 42.6347 96.1188 42.816C95.9801 42.9867 95.9108 43.216 95.9108 43.504C95.9108 44.0373 96.0814 44.4107 96.4228 44.624C96.7641 44.8267 97.2281 44.928 97.8148 44.928ZM97.6868 37.472C98.2841 37.472 98.7854 37.552 99.1908 37.712C99.6068 37.8613 99.9374 38.08 100.183 38.368C100.439 38.6453 100.62 38.9813 100.727 39.376C100.833 39.76 100.887 40.1867 100.887 40.656V45.856C100.759 45.8773 100.577 45.9093 100.343 45.952C100.119 45.984 99.8628 46.016 99.5748 46.048C99.2868 46.08 98.9721 46.1067 98.6308 46.128C98.3001 46.16 97.9694 46.176 97.6388 46.176C97.1694 46.176 96.7374 46.128 96.3428 46.032C95.9481 45.936 95.6068 45.7867 95.3188 45.584C95.0308 45.3707 94.8068 45.0933 94.6468 44.752C94.4868 44.4107 94.4068 44 94.4068 43.52C94.4068 43.0613 94.4974 42.6667 94.6788 42.336C94.8708 42.0053 95.1268 41.7387 95.4468 41.536C95.7668 41.3333 96.1401 41.184 96.5668 41.088C96.9934 40.992 97.4414 40.944 97.9108 40.944C98.0601 40.944 98.2148 40.9547 98.3748 40.976C98.5348 40.9867 98.6841 41.008 98.8228 41.04C98.9721 41.0613 99.1001 41.0827 99.2068 41.104C99.3134 41.1253 99.3881 41.1413 99.4308 41.152V40.736C99.4308 40.4907 99.4041 40.2507 99.3508 40.016C99.2974 39.7707 99.2014 39.5573 99.0628 39.376C98.9241 39.184 98.7321 39.0347 98.4868 38.928C98.2521 38.8107 97.9428 38.752 97.5588 38.752C97.0681 38.752 96.6361 38.7893 96.2628 38.864C95.9001 38.928 95.6281 38.9973 95.4468 39.072L95.2708 37.84C95.4628 37.7547 95.7828 37.6747 96.2308 37.6C96.6788 37.5147 97.1641 37.472 97.6868 37.472ZM106.43 37.504C106.558 37.504 106.702 37.5147 106.862 37.536C107.033 37.5467 107.198 37.568 107.358 37.6C107.518 37.6213 107.662 37.648 107.79 37.68C107.929 37.7013 108.03 37.7227 108.094 37.744L107.838 39.04C107.721 38.9973 107.523 38.9493 107.246 38.896C106.979 38.832 106.633 38.8 106.206 38.8C105.929 38.8 105.651 38.832 105.374 38.896C105.107 38.9493 104.931 38.9867 104.846 39.008V46H103.358V38.032C103.71 37.904 104.147 37.7867 104.67 37.68C105.193 37.5627 105.779 37.504 106.43 37.504ZM114.906 39.44C114.725 39.2907 114.463 39.1467 114.122 39.008C113.781 38.8693 113.407 38.8 113.002 38.8C112.575 38.8 112.207 38.88 111.898 39.04C111.599 39.1893 111.354 39.4027 111.162 39.68C110.97 39.9467 110.831 40.2667 110.746 40.64C110.661 41.0133 110.618 41.4133 110.618 41.84C110.618 42.8107 110.858 43.5627 111.338 44.096C111.818 44.6187 112.458 44.88 113.258 44.88C113.663 44.88 113.999 44.864 114.266 44.832C114.543 44.7893 114.757 44.7467 114.906 44.704V39.44ZM114.906 33.84L116.394 33.584V45.76C116.053 45.856 115.615 45.952 115.082 46.048C114.549 46.144 113.935 46.192 113.242 46.192C112.602 46.192 112.026 46.0907 111.514 45.888C111.002 45.6853 110.565 45.3973 110.202 45.024C109.839 44.6507 109.557 44.1973 109.354 43.664C109.162 43.12 109.066 42.512 109.066 41.84C109.066 41.2 109.146 40.6133 109.306 40.08C109.477 39.5467 109.722 39.088 110.042 38.704C110.362 38.32 110.751 38.0213 111.21 37.808C111.679 37.5947 112.213 37.488 112.81 37.488C113.29 37.488 113.711 37.552 114.074 37.68C114.447 37.808 114.725 37.9307 114.906 38.048V33.84Z" fill="white"/>
<path d="M281.224 28.524L274.94 43.516H270.84L267.748 31.55C267.56 30.814 267.398 30.544 266.826 30.234C265.894 29.728 264.354 29.254 263 28.958L263.092 28.524H269.692C270.123 28.5236 270.541 28.6774 270.868 28.9576C271.196 29.2378 271.413 29.626 271.48 30.052L273.114 38.728L277.15 28.524H281.224ZM297.29 38.622C297.306 34.664 291.818 34.446 291.856 32.678C291.868 32.14 292.38 31.568 293.5 31.422C294.813 31.2974 296.134 31.5296 297.326 32.094L298.006 28.914C296.846 28.4779 295.617 28.2524 294.378 28.248C290.544 28.248 287.846 30.288 287.822 33.206C287.798 35.364 289.748 36.566 291.218 37.286C292.73 38.02 293.238 38.492 293.23 39.148C293.22 40.156 292.026 40.598 290.91 40.616C288.96 40.646 287.83 40.09 286.926 39.67L286.224 42.954C287.13 43.37 288.802 43.734 290.536 43.75C294.61 43.75 297.276 41.738 297.29 38.622ZM307.412 43.516H311L307.87 28.524H304.558C304.204 28.5208 303.857 28.6239 303.563 28.82C303.268 29.0162 303.039 29.2963 302.906 29.624L297.088 43.516H301.16L301.97 41.276H306.946L307.412 43.516ZM303.086 38.204L305.126 32.574L306.302 38.204H303.086ZM286.766 28.524L283.56 43.516H279.68L282.89 28.524H286.766Z" fill="white"/>
<defs>
<filter id="filter0_b_960_1626" x="-80" y="-80" width="495" height="345" filterUnits="userSpaceOnUse" color-interpolation-filters="sRGB">
<feFlood flood-opacity="0" result="BackgroundImageFix"/>
<feGaussianBlur in="BackgroundImageFix" stdDeviation="40"/>
<feComposite in2="SourceAlpha" operator="in" result="effect1_backgroundBlur_960_1626"/>
<feBlend mode="normal" in="SourceGraphic" in2="effect1_backgroundBlur_960_1626" result="shape"/>
</filter>
<linearGradient id="paint0_linear_960_1626" x1="-48" y1="-20" x2="382" y2="205.5" gradientUnits="userSpaceOnUse">
<stop offset="0.119355" stop-color="#282828"/>
<stop offset="0.843296" stop-color="#0B0B0B"/>
</linearGradient>
</defs>
</svg>
