<svg width="378" height="209" viewBox="0 0 378 209" fill="none" xmlns="http://www.w3.org/2000/svg">
<rect width="378" height="208.746" rx="22.5672" fill="url(#paint0_linear_960_1729)"/>
<g filter="url(#filter0_b_960_1729)">
<rect width="378" height="208.746" rx="22.5672" fill="white" fill-opacity="0.03"/>
</g>
<path fill-rule="evenodd" clip-rule="evenodd" d="M50.7535 0H22.5672C10.1037 0 0 10.1037 0 22.5672V186.179C0 198.643 10.1037 208.746 22.5672 208.746H355.433C366.746 208.746 376.115 200.422 377.748 189.564C375.789 130.285 318.668 47.9312 50.7535 0Z" fill="white" fill-opacity="0.06"/>
<path d="M33.9049 174.585V172.112H27.6945V170.776L33.1467 161.984H35.3492V170.866H37.2268V172.112H35.3492V174.585H33.9049ZM29.0485 170.866H33.9049V163.157H33.8327L29.0485 170.866ZM46.9507 163.301H41.318L40.9569 168.122H41.0833C41.3962 167.701 41.7452 167.37 42.1304 167.129C42.5155 166.876 43.0451 166.75 43.7191 166.75C44.2728 166.75 44.7783 166.84 45.2356 167.021C45.705 167.189 46.1082 167.442 46.4452 167.779C46.7822 168.116 47.047 168.525 47.2396 169.006C47.4322 169.476 47.5285 170.017 47.5285 170.631C47.5285 171.245 47.4322 171.811 47.2396 172.328C47.047 172.834 46.7642 173.273 46.3911 173.646C46.018 174.007 45.5666 174.29 45.037 174.495C44.5075 174.699 43.9057 174.802 43.2317 174.802C42.7021 174.802 42.2267 174.741 41.8054 174.621C41.3962 174.501 41.0291 174.338 40.7041 174.134C40.3912 173.929 40.1144 173.7 39.8737 173.448C39.633 173.195 39.4163 172.93 39.2237 172.653L40.3611 171.787C40.5296 172.039 40.6981 172.268 40.8666 172.473C41.0472 172.677 41.2518 172.858 41.4805 173.014C41.7091 173.159 41.9679 173.273 42.2568 173.357C42.5456 173.442 42.8826 173.484 43.2678 173.484C44.1344 173.484 44.7963 173.249 45.2537 172.78C45.7231 172.31 45.9578 171.66 45.9578 170.83V170.685C45.9578 169.855 45.7231 169.205 45.2537 168.736C44.7843 168.266 44.1103 168.032 43.2317 168.032C42.6299 168.032 42.1605 168.134 41.8235 168.338C41.4985 168.543 41.1976 168.796 40.9208 169.097L39.639 168.916L40.0903 161.984H46.9507V163.301ZM57.7759 163.301H52.1432L51.7821 168.122H51.9085C52.2214 167.701 52.5704 167.37 52.9556 167.129C53.3407 166.876 53.8703 166.75 54.5443 166.75C55.098 166.75 55.6035 166.84 56.0608 167.021C56.5302 167.189 56.9334 167.442 57.2704 167.779C57.6074 168.116 57.8722 168.525 58.0648 169.006C58.2574 169.476 58.3536 170.017 58.3536 170.631C58.3536 171.245 58.2574 171.811 58.0648 172.328C57.8722 172.834 57.5894 173.273 57.2163 173.646C56.8431 174.007 56.3918 174.29 55.8622 174.495C55.3326 174.699 54.7309 174.802 54.0569 174.802C53.5273 174.802 53.0519 174.741 52.6306 174.621C52.2214 174.501 51.8543 174.338 51.5293 174.134C51.2164 173.929 50.9396 173.7 50.6989 173.448C50.4581 173.195 50.2415 172.93 50.0489 172.653L51.1863 171.787C51.3548 172.039 51.5233 172.268 51.6918 172.473C51.8724 172.677 52.077 172.858 52.3056 173.014C52.5343 173.159 52.7931 173.273 53.082 173.357C53.3708 173.442 53.7078 173.484 54.093 173.484C54.9595 173.484 55.6215 173.249 56.0789 172.78C56.5483 172.31 56.783 171.66 56.783 170.83V170.685C56.783 169.855 56.5483 169.205 56.0789 168.736C55.6095 168.266 54.9355 168.032 54.0569 168.032C53.4551 168.032 52.9857 168.134 52.6487 168.338C52.3237 168.543 52.0228 168.796 51.746 169.097L50.4642 168.916L50.9155 161.984H57.7759V163.301ZM64.9904 174.802C64.3284 174.802 63.7326 174.693 63.203 174.477C62.6735 174.248 62.2221 173.929 61.849 173.52C61.4879 173.099 61.2051 172.587 61.0005 171.985C60.8079 171.383 60.7116 170.709 60.7116 169.963C60.7116 169.024 60.85 168.146 61.1269 167.327C61.4157 166.497 61.7768 165.745 62.2101 165.071C62.6554 164.385 63.1489 163.783 63.6905 163.265C64.2321 162.736 64.7617 162.308 65.2792 161.984H67.229C66.543 162.477 65.9292 162.958 65.3875 163.428C64.858 163.897 64.3886 164.391 63.9794 164.908C63.5701 165.414 63.2271 165.961 62.9503 166.551C62.6735 167.129 62.4448 167.785 62.2642 168.519L62.3545 168.555C62.6554 168.038 63.0526 167.61 63.5461 167.273C64.0395 166.924 64.6774 166.75 65.4598 166.75C66.0134 166.75 66.5189 166.84 66.9763 167.021C67.4336 167.201 67.8308 167.46 68.1678 167.797C68.5048 168.134 68.7636 168.543 68.9441 169.024C69.1367 169.506 69.233 170.041 69.233 170.631C69.233 171.245 69.1307 171.811 68.9261 172.328C68.7215 172.834 68.4326 173.273 68.0595 173.646C67.6984 174.007 67.2531 174.29 66.7235 174.495C66.206 174.699 65.6283 174.802 64.9904 174.802ZM64.9723 173.52C65.8389 173.52 66.5069 173.285 66.9763 172.816C67.4577 172.346 67.6984 171.684 67.6984 170.83V170.685C67.6984 169.831 67.4577 169.169 66.9763 168.7C66.5069 168.23 65.8389 167.995 64.9723 167.995C64.1057 167.995 63.4317 168.23 62.9503 168.7C62.4809 169.169 62.2462 169.831 62.2462 170.685V170.83C62.2462 171.684 62.4809 172.346 62.9503 172.816C63.4317 173.285 64.1057 173.52 64.9723 173.52ZM84.0049 169.855V168.338H89.2405V169.855H84.0049ZM111.902 163.301H106.269L105.908 168.122H106.034C106.347 167.701 106.696 167.37 107.082 167.129C107.467 166.876 107.996 166.75 108.67 166.75C109.224 166.75 109.729 166.84 110.187 167.021C110.656 167.189 111.059 167.442 111.396 167.779C111.733 168.116 111.998 168.525 112.191 169.006C112.383 169.476 112.48 170.017 112.48 170.631C112.48 171.245 112.383 171.811 112.191 172.328C111.998 172.834 111.715 173.273 111.342 173.646C110.969 174.007 110.518 174.29 109.988 174.495C109.459 174.699 108.857 174.802 108.183 174.802C107.653 174.802 107.178 174.741 106.757 174.621C106.347 174.501 105.98 174.338 105.655 174.134C105.342 173.929 105.066 173.7 104.825 173.448C104.584 173.195 104.367 172.93 104.175 172.653L105.312 171.787C105.481 172.039 105.649 172.268 105.818 172.473C105.998 172.677 106.203 172.858 106.432 173.014C106.66 173.159 106.919 173.273 107.208 173.357C107.497 173.442 107.834 173.484 108.219 173.484C109.085 173.484 109.747 173.249 110.205 172.78C110.674 172.31 110.909 171.66 110.909 170.83V170.685C110.909 169.855 110.674 169.205 110.205 168.736C109.735 168.266 109.061 168.032 108.183 168.032C107.581 168.032 107.112 168.134 106.775 168.338C106.45 168.543 106.149 168.796 105.872 169.097L104.59 168.916L105.041 161.984H111.902V163.301ZM119.116 174.802C118.454 174.802 117.859 174.693 117.329 174.477C116.799 174.248 116.348 173.929 115.975 173.52C115.614 173.099 115.331 172.587 115.126 171.985C114.934 171.383 114.838 170.709 114.838 169.963C114.838 169.024 114.976 168.146 115.253 167.327C115.542 166.497 115.903 165.745 116.336 165.071C116.781 164.385 117.275 163.783 117.816 163.265C118.358 162.736 118.888 162.308 119.405 161.984H121.355C120.669 162.477 120.055 162.958 119.513 163.428C118.984 163.897 118.515 164.391 118.105 164.908C117.696 165.414 117.353 165.961 117.076 166.551C116.799 167.129 116.571 167.785 116.39 168.519L116.48 168.555C116.781 168.038 117.179 167.61 117.672 167.273C118.165 166.924 118.803 166.75 119.586 166.75C120.139 166.75 120.645 166.84 121.102 167.021C121.56 167.201 121.957 167.46 122.294 167.797C122.631 168.134 122.89 168.543 123.07 169.024C123.263 169.506 123.359 170.041 123.359 170.631C123.359 171.245 123.257 171.811 123.052 172.328C122.847 172.834 122.559 173.273 122.185 173.646C121.824 174.007 121.379 174.29 120.849 174.495C120.332 174.699 119.754 174.802 119.116 174.802ZM119.098 173.52C119.965 173.52 120.633 173.285 121.102 172.816C121.584 172.346 121.824 171.684 121.824 170.83V170.685C121.824 169.831 121.584 169.169 121.102 168.7C120.633 168.23 119.965 167.995 119.098 167.995C118.232 167.995 117.558 168.23 117.076 168.7C116.607 169.169 116.372 169.831 116.372 170.685V170.83C116.372 171.684 116.607 172.346 117.076 172.816C117.558 173.285 118.232 173.52 119.098 173.52ZM131.332 174.585V172.112H125.121V170.776L130.573 161.984H132.776V170.866H134.654V172.112H132.776V174.585H131.332ZM126.475 170.866H131.332V163.157H131.259L126.475 170.866ZM145.027 174.585H136.614V173.032L140.821 169.241C141.435 168.687 141.94 168.122 142.337 167.544C142.735 166.954 142.933 166.334 142.933 165.685V165.468C142.933 164.71 142.735 164.126 142.337 163.717C141.94 163.295 141.35 163.085 140.568 163.085C139.798 163.085 139.202 163.283 138.781 163.681C138.372 164.066 138.065 164.583 137.86 165.233L136.506 164.728C136.626 164.355 136.789 163.993 136.993 163.644C137.21 163.283 137.481 162.964 137.806 162.688C138.131 162.411 138.522 162.188 138.979 162.02C139.449 161.851 139.99 161.767 140.604 161.767C141.23 161.767 141.784 161.857 142.265 162.038C142.759 162.218 143.168 162.471 143.493 162.796C143.83 163.121 144.083 163.506 144.251 163.951C144.432 164.397 144.522 164.884 144.522 165.414C144.522 165.895 144.45 166.347 144.305 166.768C144.173 167.189 143.98 167.592 143.727 167.977C143.487 168.363 143.192 168.742 142.843 169.115C142.506 169.476 142.127 169.837 141.705 170.198L138.185 173.267H145.027V174.585ZM159.781 169.855V168.338H165.017V169.855H159.781ZM184.049 174.802C183.279 174.802 182.617 174.657 182.063 174.368C181.51 174.067 181.052 173.64 180.691 173.087C180.33 172.533 180.066 171.853 179.897 171.046C179.728 170.24 179.644 169.319 179.644 168.284C179.644 167.261 179.728 166.347 179.897 165.54C180.066 164.722 180.33 164.036 180.691 163.482C181.052 162.928 181.51 162.507 182.063 162.218C182.617 161.917 183.279 161.767 184.049 161.767C184.82 161.767 185.482 161.917 186.035 162.218C186.589 162.507 187.046 162.928 187.407 163.482C187.768 164.036 188.033 164.722 188.202 165.54C188.37 166.347 188.454 167.261 188.454 168.284C188.454 169.319 188.37 170.24 188.202 171.046C188.033 171.853 187.768 172.533 187.407 173.087C187.046 173.64 186.589 174.067 186.035 174.368C185.482 174.657 184.82 174.802 184.049 174.802ZM184.049 173.484C184.555 173.484 184.988 173.387 185.349 173.195C185.71 172.99 185.999 172.707 186.216 172.346C186.444 171.985 186.613 171.552 186.721 171.046C186.83 170.529 186.884 169.951 186.884 169.313V167.255C186.884 166.629 186.83 166.058 186.721 165.54C186.613 165.023 186.444 164.583 186.216 164.222C185.999 163.861 185.71 163.584 185.349 163.392C184.988 163.187 184.555 163.085 184.049 163.085C183.544 163.085 183.111 163.187 182.749 163.392C182.388 163.584 182.094 163.861 181.865 164.222C181.648 164.583 181.486 165.023 181.377 165.54C181.269 166.058 181.215 166.629 181.215 167.255V169.313C181.215 169.951 181.269 170.529 181.377 171.046C181.486 171.552 181.648 171.985 181.865 172.346C182.094 172.707 182.388 172.99 182.749 173.195C183.111 173.387 183.544 173.484 184.049 173.484ZM184.049 169.349C183.628 169.349 183.333 169.265 183.165 169.097C183.008 168.928 182.93 168.724 182.93 168.483V168.086C182.93 167.845 183.008 167.64 183.165 167.472C183.333 167.303 183.628 167.219 184.049 167.219C184.471 167.219 184.759 167.303 184.916 167.472C185.084 167.64 185.169 167.845 185.169 168.086V168.483C185.169 168.724 185.084 168.928 184.916 169.097C184.759 169.265 184.471 169.349 184.049 169.349ZM194.893 174.802C194.231 174.802 193.635 174.693 193.105 174.477C192.576 174.248 192.124 173.929 191.751 173.52C191.39 173.099 191.107 172.587 190.903 171.985C190.71 171.383 190.614 170.709 190.614 169.963C190.614 169.024 190.752 168.146 191.029 167.327C191.318 166.497 191.679 165.745 192.112 165.071C192.558 164.385 193.051 163.783 193.593 163.265C194.134 162.736 194.664 162.308 195.181 161.984H197.131C196.445 162.477 195.831 162.958 195.29 163.428C194.76 163.897 194.291 164.391 193.882 164.908C193.472 165.414 193.129 165.961 192.853 166.551C192.576 167.129 192.347 167.785 192.166 168.519L192.257 168.555C192.558 168.038 192.955 167.61 193.448 167.273C193.942 166.924 194.58 166.75 195.362 166.75C195.916 166.75 196.421 166.84 196.879 167.021C197.336 167.201 197.733 167.46 198.07 167.797C198.407 168.134 198.666 168.543 198.846 169.024C199.039 169.506 199.135 170.041 199.135 170.631C199.135 171.245 199.033 171.811 198.828 172.328C198.624 172.834 198.335 173.273 197.962 173.646C197.601 174.007 197.155 174.29 196.626 174.495C196.108 174.699 195.531 174.802 194.893 174.802ZM194.875 173.52C195.741 173.52 196.409 173.285 196.879 172.816C197.36 172.346 197.601 171.684 197.601 170.83V170.685C197.601 169.831 197.36 169.169 196.879 168.7C196.409 168.23 195.741 167.995 194.875 167.995C194.008 167.995 193.334 168.23 192.853 168.7C192.383 169.169 192.148 169.831 192.148 170.685V170.83C192.148 171.684 192.383 172.346 192.853 172.816C193.334 173.285 194.008 173.52 194.875 173.52ZM209.96 166.605C209.96 167.544 209.816 168.429 209.527 169.259C209.25 170.078 208.889 170.83 208.444 171.516C207.999 172.19 207.505 172.792 206.963 173.321C206.434 173.839 205.91 174.26 205.393 174.585H203.443C204.129 174.092 204.737 173.61 205.266 173.141C205.808 172.671 206.283 172.184 206.693 171.678C207.102 171.161 207.445 170.613 207.722 170.035C207.999 169.446 208.227 168.784 208.408 168.05L208.318 168.013C208.005 168.531 207.601 168.964 207.108 169.313C206.626 169.65 205.995 169.819 205.212 169.819C204.659 169.819 204.147 169.729 203.678 169.548C203.22 169.367 202.823 169.109 202.486 168.772C202.161 168.435 201.902 168.032 201.71 167.562C201.529 167.081 201.439 166.539 201.439 165.937C201.439 165.323 201.535 164.764 201.728 164.258C201.933 163.741 202.221 163.301 202.594 162.94C202.968 162.567 203.413 162.278 203.93 162.074C204.46 161.869 205.044 161.767 205.682 161.767C206.344 161.767 206.939 161.881 207.469 162.11C207.999 162.327 208.444 162.645 208.805 163.067C209.178 163.476 209.461 163.981 209.654 164.583C209.858 165.185 209.96 165.859 209.96 166.605ZM205.7 168.573C206.566 168.573 207.234 168.338 207.704 167.869C208.185 167.4 208.426 166.738 208.426 165.883V165.739C208.426 164.884 208.185 164.222 207.704 163.753C207.234 163.283 206.566 163.049 205.7 163.049C204.833 163.049 204.159 163.283 203.678 163.753C203.208 164.222 202.974 164.884 202.974 165.739V165.883C202.974 166.738 203.208 167.4 203.678 167.869C204.159 168.338 204.833 168.573 205.7 168.573ZM220.154 163.301H214.521L214.16 168.122H214.286C214.599 167.701 214.948 167.37 215.333 167.129C215.719 166.876 216.248 166.75 216.922 166.75C217.476 166.75 217.981 166.84 218.439 167.021C218.908 167.189 219.311 167.442 219.648 167.779C219.985 168.116 220.25 168.525 220.443 169.006C220.635 169.476 220.731 170.017 220.731 170.631C220.731 171.245 220.635 171.811 220.443 172.328C220.25 172.834 219.967 173.273 219.594 173.646C219.221 174.007 218.77 174.29 218.24 174.495C217.71 174.699 217.109 174.802 216.435 174.802C215.905 174.802 215.43 174.741 215.008 174.621C214.599 174.501 214.232 174.338 213.907 174.134C213.594 173.929 213.317 173.7 213.077 173.448C212.836 173.195 212.619 172.93 212.427 172.653L213.564 171.787C213.733 172.039 213.901 172.268 214.07 172.473C214.25 172.677 214.455 172.858 214.683 173.014C214.912 173.159 215.171 173.273 215.46 173.357C215.749 173.442 216.086 173.484 216.471 173.484C217.337 173.484 217.999 173.249 218.457 172.78C218.926 172.31 219.161 171.66 219.161 170.83V170.685C219.161 169.855 218.926 169.205 218.457 168.736C217.987 168.266 217.313 168.032 216.435 168.032C215.833 168.032 215.363 168.134 215.026 168.338C214.701 168.543 214.401 168.796 214.124 169.097L212.842 168.916L213.293 161.984H220.154V163.301ZM235.557 169.855V168.338H240.793V169.855H235.557ZM263.454 163.301H257.822L257.461 168.122H257.587C257.9 167.701 258.249 167.37 258.634 167.129C259.019 166.876 259.549 166.75 260.223 166.75C260.776 166.75 261.282 166.84 261.739 167.021C262.209 167.189 262.612 167.442 262.949 167.779C263.286 168.116 263.551 168.525 263.743 169.006C263.936 169.476 264.032 170.017 264.032 170.631C264.032 171.245 263.936 171.811 263.743 172.328C263.551 172.834 263.268 173.273 262.895 173.646C262.522 174.007 262.07 174.29 261.541 174.495C261.011 174.699 260.409 174.802 259.735 174.802C259.206 174.802 258.73 174.741 258.309 174.621C257.9 174.501 257.533 174.338 257.208 174.134C256.895 173.929 256.618 173.7 256.377 173.448C256.137 173.195 255.92 172.93 255.727 172.653L256.865 171.787C257.033 172.039 257.202 172.268 257.37 172.473C257.551 172.677 257.756 172.858 257.984 173.014C258.213 173.159 258.472 173.273 258.76 173.357C259.049 173.442 259.386 173.484 259.772 173.484C260.638 173.484 261.3 173.249 261.757 172.78C262.227 172.31 262.462 171.66 262.462 170.83V170.685C262.462 169.855 262.227 169.205 261.757 168.736C261.288 168.266 260.614 168.032 259.735 168.032C259.134 168.032 258.664 168.134 258.327 168.338C258.002 168.543 257.701 168.796 257.425 169.097L256.143 168.916L256.594 161.984H263.454V163.301ZM266.769 174.585V173.267H270.38V163.103H270.254L267.076 166.064L266.192 165.107L269.532 161.984H271.897V173.267H275.218V174.585H266.769ZM281.494 174.802C280.832 174.802 280.236 174.693 279.707 174.477C279.177 174.248 278.726 173.929 278.353 173.52C277.992 173.099 277.709 172.587 277.504 171.985C277.312 171.383 277.215 170.709 277.215 169.963C277.215 169.024 277.354 168.146 277.631 167.327C277.919 166.497 278.281 165.745 278.714 165.071C279.159 164.385 279.653 163.783 280.194 163.265C280.736 162.736 281.265 162.308 281.783 161.984H283.733C283.047 162.477 282.433 162.958 281.891 163.428C281.362 163.897 280.892 164.391 280.483 164.908C280.074 165.414 279.731 165.961 279.454 166.551C279.177 167.129 278.949 167.785 278.768 168.519L278.858 168.555C279.159 168.038 279.556 167.61 280.05 167.273C280.543 166.924 281.181 166.75 281.963 166.75C282.517 166.75 283.023 166.84 283.48 167.021C283.937 167.201 284.335 167.46 284.672 167.797C285.009 168.134 285.267 168.543 285.448 169.024C285.64 169.506 285.737 170.041 285.737 170.631C285.737 171.245 285.634 171.811 285.43 172.328C285.225 172.834 284.936 173.273 284.563 173.646C284.202 174.007 283.757 174.29 283.227 174.495C282.71 174.699 282.132 174.802 281.494 174.802ZM281.476 173.52C282.343 173.52 283.011 173.285 283.48 172.816C283.961 172.346 284.202 171.684 284.202 170.83V170.685C284.202 169.831 283.961 169.169 283.48 168.7C283.011 168.23 282.343 167.995 281.476 167.995C280.609 167.995 279.935 168.23 279.454 168.7C278.985 169.169 278.75 169.831 278.75 170.685V170.83C278.75 171.684 278.985 172.346 279.454 172.816C279.935 173.285 280.609 173.52 281.476 173.52ZM292.301 174.802C291.567 174.802 290.923 174.711 290.369 174.531C289.816 174.338 289.352 174.08 288.979 173.755C288.618 173.43 288.341 173.044 288.149 172.599C287.968 172.154 287.878 171.672 287.878 171.155C287.878 170.288 288.113 169.602 288.582 169.097C289.052 168.591 289.671 168.236 290.442 168.032V167.887C289.768 167.658 289.232 167.291 288.835 166.786C288.45 166.268 288.257 165.648 288.257 164.926C288.257 163.963 288.612 163.199 289.322 162.633C290.032 162.056 291.025 161.767 292.301 161.767C293.577 161.767 294.57 162.056 295.28 162.633C295.99 163.199 296.345 163.963 296.345 164.926C296.345 165.648 296.147 166.268 295.749 166.786C295.364 167.291 294.835 167.658 294.161 167.887V168.032C294.931 168.236 295.551 168.591 296.02 169.097C296.49 169.602 296.724 170.288 296.724 171.155C296.724 171.672 296.628 172.154 296.436 172.599C296.255 173.044 295.978 173.43 295.605 173.755C295.232 174.08 294.769 174.338 294.215 174.531C293.673 174.711 293.035 174.802 292.301 174.802ZM292.301 173.52C293.192 173.52 293.89 173.321 294.395 172.924C294.901 172.527 295.154 171.967 295.154 171.245V170.848C295.154 170.126 294.901 169.566 294.395 169.169C293.902 168.772 293.204 168.573 292.301 168.573C291.399 168.573 290.694 168.772 290.189 169.169C289.695 169.566 289.449 170.126 289.449 170.848V171.245C289.449 171.967 289.701 172.527 290.207 172.924C290.712 173.321 291.411 173.52 292.301 173.52ZM292.301 167.345C293.12 167.345 293.74 167.171 294.161 166.822C294.594 166.473 294.811 165.973 294.811 165.323V165.071C294.811 164.421 294.588 163.921 294.143 163.572C293.709 163.223 293.096 163.049 292.301 163.049C291.507 163.049 290.887 163.223 290.442 163.572C290.008 163.921 289.792 164.421 289.792 165.071V165.323C289.792 165.973 290.002 166.473 290.424 166.822C290.857 167.171 291.483 167.345 292.301 167.345Z" fill="white"/>
<path d="M32.4606 147.721C31.3293 147.721 30.4025 147.517 29.6804 147.107C28.9582 146.686 28.3624 146.15 27.893 145.501L28.9943 144.598C29.4878 145.212 30.0053 145.669 30.5469 145.97C31.1006 146.271 31.7565 146.421 32.5148 146.421C33.4295 146.421 34.1276 146.211 34.609 145.789C35.0905 145.368 35.3312 144.778 35.3312 144.02C35.3312 143.406 35.1567 142.931 34.8076 142.594C34.4586 142.245 33.8508 141.998 32.9842 141.854L31.576 141.619C30.9622 141.511 30.4446 141.348 30.0234 141.132C29.6142 140.915 29.2832 140.656 29.0304 140.355C28.7777 140.042 28.5971 139.705 28.4888 139.344C28.3805 138.971 28.3263 138.586 28.3263 138.189C28.3263 137.033 28.7055 136.161 29.4637 135.571C30.222 134.981 31.245 134.686 32.5329 134.686C33.5439 134.686 34.3924 134.855 35.0784 135.192C35.7765 135.529 36.3362 136.004 36.7574 136.618L35.6923 137.539C35.3432 137.081 34.922 136.708 34.4285 136.42C33.935 136.131 33.2971 135.986 32.5148 135.986C31.6603 135.986 31.0043 136.167 30.5469 136.528C30.0896 136.889 29.8609 137.431 29.8609 138.153C29.8609 138.718 30.0294 139.182 30.3664 139.543C30.7154 139.892 31.3353 140.145 32.2259 140.301L33.58 140.536C34.1938 140.644 34.7113 140.807 35.1326 141.023C35.5538 141.24 35.8908 141.499 36.1436 141.8C36.4084 142.1 36.5949 142.437 36.7033 142.811C36.8116 143.184 36.8658 143.575 36.8658 143.984C36.8658 145.152 36.4806 146.066 35.7103 146.728C34.9521 147.39 33.8688 147.721 32.4606 147.721ZM46.8424 147.505C46.2767 147.505 45.8735 147.36 45.6328 147.071C45.3921 146.782 45.2416 146.421 45.1815 145.988H45.0912C44.8866 146.53 44.5556 146.957 44.0982 147.27C43.6529 147.571 43.0511 147.721 42.2929 147.721C41.318 147.721 40.5417 147.468 39.9639 146.963C39.3862 146.457 39.0974 145.765 39.0974 144.887C39.0974 144.02 39.4103 143.352 40.0362 142.883C40.6741 142.413 41.6971 142.179 43.1053 142.179H45.0912V141.258C45.0912 140.572 44.8986 140.06 44.5135 139.723C44.1283 139.374 43.5807 139.2 42.8706 139.2C42.2447 139.2 41.7332 139.326 41.336 139.579C40.9388 139.82 40.6199 140.151 40.3792 140.572L39.4043 139.85C39.5246 139.609 39.6871 139.374 39.8917 139.146C40.0963 138.917 40.3491 138.718 40.65 138.55C40.9509 138.369 41.2939 138.231 41.679 138.135C42.0642 138.026 42.4915 137.972 42.9609 137.972C44.0561 137.972 44.9227 138.249 45.5606 138.803C46.2105 139.356 46.5355 140.127 46.5355 141.113V146.241H47.8354V147.505H46.8424ZM42.5456 146.512C42.9187 146.512 43.2557 146.469 43.5566 146.385C43.8696 146.289 44.1404 146.169 44.3691 146.024C44.5977 145.868 44.7723 145.687 44.8926 145.482C45.025 145.266 45.0912 145.037 45.0912 144.796V143.262H43.1053C42.2387 143.262 41.6068 143.382 41.2096 143.623C40.8125 143.864 40.6139 144.213 40.6139 144.67V145.049C40.6139 145.531 40.7824 145.898 41.1194 146.15C41.4684 146.391 41.9438 146.512 42.5456 146.512ZM49.7059 147.505V138.189H51.0419V139.272H51.1141C51.2585 138.911 51.4631 138.604 51.7279 138.351C51.9927 138.099 52.3839 137.972 52.9014 137.972C53.443 137.972 53.8462 138.111 54.111 138.387C54.3758 138.652 54.5383 139.001 54.5985 139.434H54.6526C54.8211 139.013 55.0618 138.664 55.3748 138.387C55.6877 138.111 56.121 137.972 56.6746 137.972C57.4329 137.972 57.9384 138.237 58.1912 138.767C58.4559 139.296 58.5883 140.054 58.5883 141.041V147.505H57.2524V141.276C57.2524 140.482 57.1681 139.934 56.9996 139.633C56.8431 139.32 56.5483 139.164 56.115 139.164C55.7298 139.164 55.4169 139.29 55.1762 139.543C54.9355 139.784 54.8151 140.157 54.8151 140.662V147.505H53.4791V141.276C53.4791 140.482 53.3949 139.934 53.2264 139.633C53.0699 139.32 52.7811 139.164 52.3598 139.164C51.9747 139.164 51.6557 139.29 51.403 139.543C51.1622 139.784 51.0419 140.157 51.0419 140.662V147.505H49.7059ZM67.1749 145.988H67.1026C67.0064 146.217 66.886 146.439 66.7416 146.656C66.5971 146.861 66.4166 147.041 66.2 147.198C65.9954 147.354 65.7486 147.48 65.4598 147.577C65.1709 147.673 64.8339 147.721 64.4487 147.721C63.4738 147.721 62.6915 147.414 62.1018 146.8C61.512 146.175 61.2171 145.296 61.2171 144.165V138.189H62.6614V143.912C62.6614 144.766 62.848 145.404 63.2211 145.826C63.5942 146.235 64.1418 146.439 64.864 146.439C65.1528 146.439 65.4357 146.403 65.7125 146.331C65.9893 146.259 66.2361 146.15 66.4527 146.006C66.6694 145.862 66.8439 145.681 66.9763 145.464C67.1087 145.236 67.1749 144.965 67.1749 144.652V138.189H68.6192V147.505H67.1749V145.988ZM75.96 147.721C75.286 147.721 74.6782 147.607 74.1366 147.378C73.607 147.149 73.1496 146.824 72.7645 146.403C72.3914 145.97 72.1025 145.458 71.8979 144.869C71.6933 144.267 71.591 143.599 71.591 142.865C71.591 142.118 71.6933 141.444 71.8979 140.843C72.1145 140.241 72.4094 139.729 72.7825 139.308C73.1556 138.875 73.601 138.544 74.1185 138.315C74.6481 138.086 75.2318 137.972 75.8697 137.972C76.4956 137.972 77.0613 138.086 77.5668 138.315C78.0843 138.544 78.5236 138.863 78.8847 139.272C79.2458 139.669 79.5226 140.145 79.7152 140.698C79.9077 141.252 80.004 141.86 80.004 142.522V143.208H73.1075V143.641C73.1075 144.05 73.1737 144.429 73.3061 144.778C73.4385 145.127 73.625 145.428 73.8657 145.681C74.1185 145.934 74.4194 146.132 74.7684 146.277C75.1295 146.409 75.5267 146.475 75.96 146.475C76.5858 146.475 77.1275 146.331 77.5848 146.042C78.0422 145.753 78.3912 145.356 78.6319 144.851L79.6971 145.573C79.4203 146.199 78.9569 146.716 78.307 147.125C77.6691 147.523 76.8867 147.721 75.96 147.721ZM75.8697 139.164C75.4725 139.164 75.1054 139.236 74.7684 139.38C74.4314 139.525 74.1366 139.723 73.8838 139.976C73.6431 140.229 73.4505 140.53 73.3061 140.879C73.1737 141.216 73.1075 141.589 73.1075 141.998V142.125H78.4514V141.926C78.4514 141.517 78.3852 141.144 78.2528 140.807C78.1324 140.47 77.9579 140.181 77.7292 139.94C77.5126 139.687 77.2418 139.495 76.9168 139.362C76.6039 139.23 76.2549 139.164 75.8697 139.164ZM82.6509 146.277H85.9005V135.372H82.6509V134.145H87.3448V146.277H90.5945V147.505H82.6509V146.277ZM104.446 134.903H108.724C109.808 134.903 110.656 135.198 111.27 135.788C111.884 136.377 112.191 137.166 112.191 138.153C112.191 138.911 112.004 139.507 111.631 139.94C111.27 140.373 110.801 140.68 110.223 140.861V140.915C110.933 141.083 111.517 141.402 111.974 141.872C112.431 142.329 112.66 142.997 112.66 143.876C112.66 144.381 112.576 144.857 112.407 145.302C112.239 145.747 111.998 146.132 111.685 146.457C111.384 146.782 111.023 147.041 110.602 147.234C110.193 147.414 109.747 147.505 109.266 147.505H104.446V134.903ZM108.815 146.187C109.513 146.187 110.06 146.03 110.458 145.717C110.855 145.404 111.053 144.923 111.053 144.273V143.533C111.053 142.895 110.855 142.419 110.458 142.106C110.06 141.781 109.513 141.619 108.815 141.619H105.962V146.187H108.815ZM108.562 140.373C109.2 140.373 109.699 140.235 110.06 139.958C110.421 139.669 110.602 139.236 110.602 138.658V137.954C110.602 137.376 110.421 136.943 110.06 136.654C109.699 136.365 109.2 136.221 108.562 136.221H105.962V140.373H108.562ZM119.098 147.721C118.448 147.721 117.859 147.607 117.329 147.378C116.811 147.149 116.366 146.824 115.993 146.403C115.632 145.97 115.355 145.458 115.163 144.869C114.97 144.267 114.874 143.593 114.874 142.847C114.874 142.112 114.97 141.444 115.163 140.843C115.355 140.241 115.632 139.729 115.993 139.308C116.366 138.875 116.811 138.544 117.329 138.315C117.859 138.086 118.448 137.972 119.098 137.972C119.748 137.972 120.332 138.086 120.849 138.315C121.379 138.544 121.824 138.875 122.185 139.308C122.559 139.729 122.841 140.241 123.034 140.843C123.227 141.444 123.323 142.112 123.323 142.847C123.323 143.593 123.227 144.267 123.034 144.869C122.841 145.458 122.559 145.97 122.185 146.403C121.824 146.824 121.379 147.149 120.849 147.378C120.332 147.607 119.748 147.721 119.098 147.721ZM119.098 146.475C119.905 146.475 120.555 146.235 121.048 145.753C121.542 145.272 121.788 144.526 121.788 143.515V142.179C121.788 141.168 121.542 140.421 121.048 139.94C120.555 139.459 119.905 139.218 119.098 139.218C118.292 139.218 117.642 139.459 117.148 139.94C116.655 140.421 116.408 141.168 116.408 142.179V143.515C116.408 144.526 116.655 145.272 117.148 145.753C117.642 146.235 118.292 146.475 119.098 146.475ZM133.444 147.505C132.878 147.505 132.475 147.36 132.234 147.071C131.994 146.782 131.843 146.421 131.783 145.988H131.693C131.488 146.53 131.157 146.957 130.7 147.27C130.254 147.571 129.653 147.721 128.894 147.721C127.919 147.721 127.143 147.468 126.565 146.963C125.988 146.457 125.699 145.765 125.699 144.887C125.699 144.02 126.012 143.352 126.638 142.883C127.276 142.413 128.299 142.179 129.707 142.179H131.693V141.258C131.693 140.572 131.5 140.06 131.115 139.723C130.73 139.374 130.182 139.2 129.472 139.2C128.846 139.2 128.335 139.326 127.938 139.579C127.54 139.82 127.221 140.151 126.981 140.572L126.006 139.85C126.126 139.609 126.289 139.374 126.493 139.146C126.698 138.917 126.951 138.718 127.251 138.55C127.552 138.369 127.895 138.231 128.281 138.135C128.666 138.026 129.093 137.972 129.562 137.972C130.658 137.972 131.524 138.249 132.162 138.803C132.812 139.356 133.137 140.127 133.137 141.113V146.241H134.437V147.505H133.444ZM129.147 146.512C129.52 146.512 129.857 146.469 130.158 146.385C130.471 146.289 130.742 146.169 130.971 146.024C131.199 145.868 131.374 145.687 131.494 145.482C131.626 145.266 131.693 145.037 131.693 144.796V143.262H129.707C128.84 143.262 128.208 143.382 127.811 143.623C127.414 143.864 127.215 144.213 127.215 144.67V145.049C127.215 145.531 127.384 145.898 127.721 146.15C128.07 146.391 128.545 146.512 129.147 146.512ZM137.102 134.145H138.546V139.705H138.618C138.715 139.477 138.835 139.26 138.979 139.055C139.124 138.839 139.298 138.652 139.503 138.496C139.72 138.339 139.972 138.213 140.261 138.117C140.55 138.02 140.887 137.972 141.272 137.972C142.247 137.972 143.029 138.285 143.619 138.911C144.209 139.525 144.504 140.397 144.504 141.529V147.505H143.059V141.781C143.059 140.927 142.873 140.295 142.5 139.886C142.127 139.465 141.579 139.254 140.857 139.254C140.568 139.254 140.285 139.29 140.008 139.362C139.732 139.434 139.485 139.543 139.268 139.687C139.052 139.832 138.877 140.018 138.745 140.247C138.612 140.476 138.546 140.74 138.546 141.041V147.505H137.102V134.145ZM151.736 147.721C151.062 147.721 150.454 147.607 149.913 147.378C149.383 147.149 148.926 146.824 148.541 146.403C148.168 145.97 147.879 145.458 147.674 144.869C147.47 144.267 147.367 143.599 147.367 142.865C147.367 142.118 147.47 141.444 147.674 140.843C147.891 140.241 148.186 139.729 148.559 139.308C148.932 138.875 149.377 138.544 149.895 138.315C150.424 138.086 151.008 137.972 151.646 137.972C152.272 137.972 152.838 138.086 153.343 138.315C153.861 138.544 154.3 138.863 154.661 139.272C155.022 139.669 155.299 140.145 155.491 140.698C155.684 141.252 155.78 141.86 155.78 142.522V143.208H148.884V143.641C148.884 144.05 148.95 144.429 149.082 144.778C149.215 145.127 149.401 145.428 149.642 145.681C149.895 145.934 150.196 146.132 150.545 146.277C150.906 146.409 151.303 146.475 151.736 146.475C152.362 146.475 152.904 146.331 153.361 146.042C153.818 145.753 154.168 145.356 154.408 144.851L155.473 145.573C155.197 146.199 154.733 146.716 154.083 147.125C153.445 147.523 152.663 147.721 151.736 147.721ZM151.646 139.164C151.249 139.164 150.882 139.236 150.545 139.38C150.208 139.525 149.913 139.723 149.66 139.976C149.419 140.229 149.227 140.53 149.082 140.879C148.95 141.216 148.884 141.589 148.884 141.998V142.125H154.228V141.926C154.228 141.517 154.162 141.144 154.029 140.807C153.909 140.47 153.734 140.181 153.506 139.94C153.289 139.687 153.018 139.495 152.693 139.362C152.38 139.23 152.031 139.164 151.646 139.164ZM158.752 147.505V138.189H160.196V139.705H160.269C160.365 139.477 160.485 139.26 160.63 139.055C160.774 138.839 160.949 138.652 161.153 138.496C161.37 138.339 161.623 138.213 161.912 138.117C162.2 138.02 162.537 137.972 162.923 137.972C163.897 137.972 164.68 138.285 165.27 138.911C165.859 139.525 166.154 140.397 166.154 141.529V147.505H164.71V141.781C164.71 140.927 164.523 140.295 164.15 139.886C163.777 139.465 163.229 139.254 162.507 139.254C162.218 139.254 161.936 139.29 161.659 139.362C161.382 139.434 161.135 139.543 160.919 139.687C160.702 139.832 160.527 140.018 160.395 140.247C160.263 140.476 160.196 140.74 160.196 141.041V147.505H158.752Z" fill="white"/>
<path opacity="0.9" d="M31.9551 38.9564C33.7124 38.9564 35.0604 39.2934 35.9992 39.9674C36.95 40.6294 37.4254 41.6223 37.4254 42.9463C37.4254 43.6684 37.293 44.2883 37.0282 44.8058C36.7755 45.3113 36.4024 45.7265 35.9089 46.0515C35.4275 46.3644 34.8377 46.5931 34.1396 46.7375C33.4416 46.882 32.6532 46.9542 31.7746 46.9542H30.3845V51.594H28.6332V39.2633C29.1267 39.1429 29.6743 39.0647 30.2761 39.0286C30.89 38.9805 31.4496 38.9564 31.9551 38.9564ZM32.0996 40.4909C31.3533 40.4909 30.7816 40.509 30.3845 40.5451V45.4557H31.7024C32.3042 45.4557 32.8458 45.4196 33.3272 45.3474C33.8087 45.2632 34.2119 45.1308 34.5368 44.9502C34.8738 44.7576 35.1326 44.4989 35.3131 44.1739C35.4937 43.8489 35.5839 43.4337 35.5839 42.9282C35.5839 42.4468 35.4876 42.0496 35.2951 41.7367C35.1145 41.4237 34.8618 41.177 34.5368 40.9965C34.2239 40.8039 33.8568 40.6715 33.4355 40.5993C33.0143 40.5271 32.569 40.4909 32.0996 40.4909ZM42.9751 42.0075C43.1195 42.0075 43.282 42.0195 43.4626 42.0436C43.6551 42.0556 43.8417 42.0797 44.0222 42.1158C44.2028 42.1399 44.3652 42.1699 44.5097 42.2061C44.6661 42.2301 44.7805 42.2542 44.8527 42.2783L44.5638 43.7406C44.4314 43.6925 44.2088 43.6383 43.8958 43.5781C43.5949 43.5059 43.2038 43.4698 42.7224 43.4698C42.4094 43.4698 42.0965 43.5059 41.7836 43.5781C41.4827 43.6383 41.2841 43.6804 41.1878 43.7045V51.594H39.5088V42.6032C39.906 42.4588 40.3994 42.3264 40.9892 42.2061C41.5789 42.0737 42.2409 42.0075 42.9751 42.0075ZM45.9493 46.9181C45.9493 46.0876 46.0697 45.3655 46.3104 44.7516C46.5511 44.1258 46.8701 43.6082 47.2672 43.199C47.6644 42.7898 48.1218 42.4829 48.6393 42.2783C49.1569 42.0737 49.6864 41.9714 50.2281 41.9714C51.4918 41.9714 52.4607 42.3685 53.1347 43.1629C53.8087 43.9452 54.1457 45.1428 54.1457 46.7556C54.1457 46.8278 54.1457 46.9241 54.1457 47.0445C54.1457 47.1528 54.1397 47.2551 54.1277 47.3514H47.7005C47.7727 48.3263 48.0556 49.0665 48.5491 49.572C49.0425 50.0775 49.8128 50.3302 50.8599 50.3302C51.4497 50.3302 51.9432 50.2821 52.3403 50.1858C52.7496 50.0775 53.0565 49.9752 53.2611 49.8789L53.4958 51.2871C53.2912 51.3954 52.9301 51.5097 52.4126 51.6301C51.907 51.7505 51.3293 51.8106 50.6794 51.8106C49.861 51.8106 49.1508 51.6903 48.5491 51.4496C47.9593 51.1968 47.4718 50.8538 47.0867 50.4205C46.7016 49.9872 46.4127 49.4757 46.2201 48.8859C46.0396 48.2841 45.9493 47.6282 45.9493 46.9181ZM52.3945 45.9973C52.4065 45.2391 52.214 44.6192 51.8168 44.1378C51.4316 43.6443 50.896 43.3976 50.21 43.3976C49.8249 43.3976 49.4818 43.4758 49.1809 43.6323C48.8921 43.7767 48.6453 43.9693 48.4407 44.21C48.2361 44.4507 48.0736 44.7276 47.9533 45.0405C47.845 45.3534 47.7727 45.6724 47.7366 45.9973H52.3945ZM56.5576 42.4769C56.9427 42.3806 57.4482 42.2783 58.0741 42.1699C58.712 42.0616 59.4462 42.0075 60.2766 42.0075C60.8784 42.0075 61.3839 42.0917 61.7932 42.2602C62.2024 42.4167 62.5454 42.6514 62.8222 42.9643C62.9065 42.9041 63.0389 42.8199 63.2194 42.7116C63.3999 42.6032 63.6226 42.5009 63.8874 42.4046C64.1522 42.2963 64.4471 42.2061 64.772 42.1338C65.097 42.0496 65.446 42.0075 65.8191 42.0075C66.5413 42.0075 67.131 42.1158 67.5884 42.3324C68.0458 42.537 68.4008 42.8319 68.6536 43.2171C68.9184 43.6022 69.0929 44.0596 69.1771 44.5891C69.2734 45.1187 69.3216 45.6964 69.3216 46.3223V51.594H67.6426V46.6834C67.6426 46.1297 67.6125 45.6543 67.5523 45.2571C67.5042 44.86 67.4019 44.529 67.2454 44.2642C67.101 43.9994 66.8963 43.8068 66.6316 43.6865C66.3788 43.5541 66.0478 43.4879 65.6386 43.4879C65.0729 43.4879 64.6035 43.5661 64.2304 43.7226C63.8693 43.867 63.6226 43.9994 63.4902 44.1197C63.5865 44.4327 63.6587 44.7757 63.7069 45.1488C63.755 45.5219 63.7791 45.9131 63.7791 46.3223V51.594H62.1001V46.6834C62.1001 46.1297 62.07 45.6543 62.0098 45.2571C61.9496 44.86 61.8413 44.529 61.6848 44.2642C61.5404 43.9994 61.3358 43.8068 61.071 43.6865C60.8183 43.5541 60.4933 43.4879 60.0961 43.4879C59.9276 43.4879 59.7471 43.4939 59.5545 43.5059C59.3619 43.518 59.1754 43.536 58.9948 43.5601C58.8263 43.5721 58.6699 43.5902 58.5254 43.6142C58.381 43.6383 58.2847 43.6564 58.2366 43.6684V51.594H56.5576V42.4769ZM73.7868 51.594H72.1078V42.2061H73.7868V51.594ZM72.9382 40.509C72.6373 40.509 72.3786 40.4127 72.1619 40.2201C71.9573 40.0155 71.855 39.7447 71.855 39.4077C71.855 39.0707 71.9573 38.8059 72.1619 38.6134C72.3786 38.4088 72.6373 38.3064 72.9382 38.3064C73.2391 38.3064 73.4919 38.4088 73.6965 38.6134C73.9131 38.8059 74.0215 39.0707 74.0215 39.4077C74.0215 39.7447 73.9131 40.0155 73.6965 40.2201C73.4919 40.4127 73.2391 40.509 72.9382 40.509ZM84.1483 51.3232C83.7632 51.4195 83.2517 51.5218 82.6138 51.6301C81.9879 51.7384 81.2597 51.7926 80.4293 51.7926C79.7071 51.7926 79.0993 51.6903 78.6058 51.4857C78.1124 51.269 77.7152 50.9681 77.4143 50.583C77.1134 50.1978 76.8968 49.7465 76.7644 49.229C76.632 48.6994 76.5658 48.1156 76.5658 47.4777V42.2061H78.2448V47.1167C78.2448 48.2601 78.4253 49.0785 78.7864 49.572C79.1474 50.0654 79.7553 50.3122 80.6098 50.3122C80.7903 50.3122 80.9769 50.3062 81.1695 50.2941C81.362 50.2821 81.5426 50.2701 81.7111 50.258C81.8796 50.2339 82.03 50.2159 82.1624 50.2039C82.3069 50.1798 82.4092 50.1557 82.4693 50.1316V42.2061H84.1483V51.3232ZM87.0409 42.4769C87.426 42.3806 87.9315 42.2783 88.5574 42.1699C89.1953 42.0616 89.9295 42.0075 90.7599 42.0075C91.3617 42.0075 91.8672 42.0917 92.2765 42.2602C92.6857 42.4167 93.0287 42.6514 93.3055 42.9643C93.3898 42.9041 93.5222 42.8199 93.7027 42.7116C93.8832 42.6032 94.1059 42.5009 94.3707 42.4046C94.6355 42.2963 94.9304 42.2061 95.2553 42.1338C95.5803 42.0496 95.9293 42.0075 96.3024 42.0075C97.0246 42.0075 97.6143 42.1158 98.0717 42.3324C98.5291 42.537 98.8841 42.8319 99.1369 43.2171C99.4017 43.6022 99.5762 44.0596 99.6604 44.5891C99.7567 45.1187 99.8049 45.6964 99.8049 46.3223V51.594H98.1259V46.6834C98.1259 46.1297 98.0958 45.6543 98.0356 45.2571C97.9875 44.86 97.8852 44.529 97.7287 44.2642C97.5843 43.9994 97.3796 43.8068 97.1149 43.6865C96.8621 43.5541 96.5311 43.4879 96.1219 43.4879C95.5562 43.4879 95.0868 43.5661 94.7137 43.7226C94.3526 43.867 94.1059 43.9994 93.9735 44.1197C94.0698 44.4327 94.142 44.7757 94.1902 45.1488C94.2383 45.5219 94.2624 45.9131 94.2624 46.3223V51.594H92.5834V46.6834C92.5834 46.1297 92.5533 45.6543 92.4931 45.2571C92.4329 44.86 92.3246 44.529 92.1681 44.2642C92.0237 43.9994 91.8191 43.8068 91.5543 43.6865C91.3016 43.5541 90.9766 43.4879 90.5794 43.4879C90.4109 43.4879 90.2304 43.4939 90.0378 43.5059C89.8452 43.518 89.6587 43.536 89.4781 43.5601C89.3096 43.5721 89.1532 43.5902 89.0087 43.6142C88.8643 43.6383 88.768 43.6564 88.7199 43.6684V51.594H87.0409V42.4769ZM112.258 51.8648C111.379 51.8648 110.579 51.7204 109.857 51.4315C109.135 51.1427 108.515 50.7214 107.997 50.1677C107.48 49.6141 107.076 48.9341 106.788 48.1277C106.511 47.3092 106.372 46.3765 106.372 45.3293C106.372 44.2822 106.529 43.3555 106.842 42.5491C107.167 41.7306 107.6 41.0446 108.142 40.4909C108.683 39.9373 109.315 39.516 110.037 39.2272C110.759 38.9383 111.53 38.7939 112.348 38.7939C112.866 38.7939 113.329 38.83 113.738 38.9022C114.16 38.9744 114.521 39.0587 114.821 39.155C115.134 39.2513 115.387 39.3475 115.58 39.4438C115.772 39.5401 115.905 39.6123 115.977 39.6605L115.471 41.1048C115.363 41.0326 115.207 40.9543 115.002 40.8701C114.797 40.7858 114.563 40.7016 114.298 40.6173C114.045 40.5331 113.762 40.4669 113.449 40.4187C113.149 40.3586 112.842 40.3285 112.529 40.3285C111.867 40.3285 111.271 40.4428 110.741 40.6715C110.212 40.9002 109.76 41.2312 109.387 41.6644C109.014 42.0977 108.725 42.6273 108.521 43.2532C108.328 43.867 108.232 44.5591 108.232 45.3293C108.232 46.0756 108.316 46.7556 108.485 47.3694C108.665 47.9832 108.93 48.5128 109.279 48.9581C109.628 49.3914 110.061 49.7284 110.579 49.9692C111.108 50.2099 111.722 50.3302 112.42 50.3302C113.227 50.3302 113.895 50.246 114.424 50.0775C114.954 49.909 115.351 49.7585 115.616 49.6261L116.067 51.0704C115.983 51.1306 115.832 51.2088 115.616 51.3051C115.399 51.3894 115.128 51.4736 114.803 51.5579C114.478 51.6421 114.099 51.7144 113.666 51.7745C113.233 51.8347 112.763 51.8648 112.258 51.8648ZM121.142 50.3844C121.54 50.3844 121.889 50.3784 122.19 50.3663C122.502 50.3423 122.761 50.3062 122.966 50.258V47.4597C122.845 47.3995 122.647 47.3514 122.37 47.3153C122.105 47.2671 121.78 47.243 121.395 47.243C121.142 47.243 120.872 47.2611 120.583 47.2972C120.306 47.3333 120.047 47.4115 119.806 47.5319C119.578 47.6402 119.385 47.7967 119.229 48.0013C119.072 48.1939 118.994 48.4526 118.994 48.7776C118.994 49.3794 119.187 49.8007 119.572 50.0414C119.957 50.2701 120.48 50.3844 121.142 50.3844ZM120.998 41.9714C121.672 41.9714 122.238 42.0616 122.695 42.2422C123.164 42.4107 123.538 42.6574 123.814 42.9824C124.103 43.2953 124.308 43.6744 124.428 44.1197C124.549 44.553 124.609 45.0345 124.609 45.564V51.4315C124.464 51.4556 124.26 51.4917 123.995 51.5398C123.742 51.5759 123.453 51.612 123.128 51.6482C122.803 51.6843 122.448 51.7144 122.063 51.7384C121.69 51.7745 121.317 51.7926 120.944 51.7926C120.414 51.7926 119.927 51.7384 119.481 51.6301C119.036 51.5218 118.651 51.3533 118.326 51.1246C118.001 50.8839 117.748 50.5709 117.568 50.1858C117.387 49.8007 117.297 49.3373 117.297 48.7957C117.297 48.2781 117.399 47.8328 117.604 47.4597C117.821 47.0866 118.109 46.7857 118.47 46.557C118.832 46.3283 119.253 46.1598 119.734 46.0515C120.216 45.9432 120.721 45.889 121.251 45.889C121.419 45.889 121.594 45.9011 121.774 45.9251C121.955 45.9372 122.123 45.9612 122.28 45.9973C122.448 46.0214 122.593 46.0455 122.713 46.0696C122.833 46.0936 122.918 46.1117 122.966 46.1237V45.6543C122.966 45.3775 122.936 45.1067 122.876 44.8419C122.815 44.5651 122.707 44.3244 122.551 44.1197C122.394 43.9031 122.177 43.7346 121.901 43.6142C121.636 43.4819 121.287 43.4157 120.854 43.4157C120.3 43.4157 119.812 43.4578 119.391 43.542C118.982 43.6142 118.675 43.6925 118.47 43.7767L118.272 42.3866C118.489 42.2903 118.85 42.2 119.355 42.1158C119.861 42.0195 120.408 41.9714 120.998 41.9714ZM130.864 42.0075C131.008 42.0075 131.171 42.0195 131.351 42.0436C131.544 42.0556 131.73 42.0797 131.911 42.1158C132.091 42.1399 132.254 42.1699 132.398 42.2061C132.555 42.2301 132.669 42.2542 132.741 42.2783L132.452 43.7406C132.32 43.6925 132.097 43.6383 131.784 43.5781C131.483 43.5059 131.092 43.4698 130.611 43.4698C130.298 43.4698 129.985 43.5059 129.672 43.5781C129.371 43.6383 129.173 43.6804 129.076 43.7045V51.594H127.397V42.6032C127.794 42.4588 128.288 42.3264 128.878 42.2061C129.467 42.0737 130.129 42.0075 130.864 42.0075ZM140.427 44.192C140.223 44.0235 139.928 43.861 139.543 43.7045C139.158 43.548 138.736 43.4698 138.279 43.4698C137.798 43.4698 137.382 43.5601 137.033 43.7406C136.696 43.9091 136.42 44.1498 136.203 44.4628C135.986 44.7637 135.83 45.1247 135.733 45.546C135.637 45.9672 135.589 46.4186 135.589 46.9C135.589 47.9953 135.86 48.8438 136.401 49.4456C136.943 50.0354 137.665 50.3302 138.568 50.3302C139.025 50.3302 139.404 50.3122 139.705 50.2761C140.018 50.2279 140.259 50.1798 140.427 50.1316V44.192ZM140.427 37.8732L142.106 37.5843V51.3232C141.721 51.4315 141.228 51.5398 140.626 51.6482C140.024 51.7565 139.332 51.8106 138.55 51.8106C137.828 51.8106 137.178 51.6963 136.6 51.4676C136.022 51.2389 135.529 50.914 135.12 50.4927C134.71 50.0715 134.391 49.5599 134.163 48.9581C133.946 48.3443 133.838 47.6583 133.838 46.9C133.838 46.1779 133.928 45.5159 134.109 44.9141C134.301 44.3123 134.578 43.7948 134.939 43.3615C135.3 42.9282 135.74 42.5912 136.257 42.3505C136.787 42.1098 137.388 41.9894 138.062 41.9894C138.604 41.9894 139.079 42.0616 139.489 42.2061C139.91 42.3505 140.223 42.4889 140.427 42.6213V37.8732Z" fill="white"/>
<g clip-path="url(#clip0_960_1729)">
<path d="M317.321 32.1853L310.231 49.1016H305.605L302.116 35.5997C301.904 34.7692 301.721 34.4646 301.075 34.1148C300.024 33.5438 298.286 33.009 296.758 32.675L296.862 32.1853H304.309C304.796 32.1848 305.267 32.3583 305.637 32.6744C306.007 32.9906 306.251 33.4286 306.327 33.9094L308.17 43.699L312.725 32.1853H317.321ZM335.45 43.5794C335.468 39.1134 329.275 38.8674 329.318 36.8725C329.332 36.2654 329.909 35.62 331.173 35.4553C332.654 35.3146 334.146 35.5766 335.49 36.2135L336.258 32.6253C334.949 32.1332 333.562 31.8788 332.164 31.8738C327.838 31.8738 324.793 34.1757 324.766 37.4682C324.739 39.9032 326.94 41.2595 328.598 42.0719C330.304 42.9002 330.878 43.4327 330.869 44.1729C330.857 45.3103 329.51 45.8091 328.251 45.8294C326.05 45.8632 324.775 45.2359 323.755 44.7619L322.963 48.4675C323.986 48.9369 325.872 49.3476 327.829 49.3656C332.426 49.3656 335.434 47.0954 335.45 43.5794ZM346.871 49.1016H350.919L347.388 32.1853H343.651C343.251 32.1816 342.86 32.2979 342.528 32.5192C342.195 32.7406 341.937 33.0566 341.786 33.4265L335.222 49.1016H339.816L340.73 46.5741H346.345L346.871 49.1016ZM341.99 43.1078L344.291 36.7551L345.618 43.1078H341.99ZM323.575 32.1853L319.957 49.1016H315.579L319.201 32.1853H323.575Z" fill="white"/>
</g>
<defs>
<filter id="filter0_b_960_1729" x="-90.2687" y="-90.2687" width="558.537" height="389.284" filterUnits="userSpaceOnUse" color-interpolation-filters="sRGB">
<feFlood flood-opacity="0" result="BackgroundImageFix"/>
<feGaussianBlur in="BackgroundImageFix" stdDeviation="45.1343"/>
<feComposite in2="SourceAlpha" operator="in" result="effect1_backgroundBlur_960_1729"/>
<feBlend mode="normal" in="SourceGraphic" in2="effect1_backgroundBlur_960_1729" result="shape"/>
</filter>
<linearGradient id="paint0_linear_960_1729" x1="-54.1612" y1="-22.5672" x2="431.033" y2="231.878" gradientUnits="userSpaceOnUse">
<stop offset="0.119355" stop-color="#282828"/>
<stop offset="0.843296" stop-color="#0B0B0B"/>
</linearGradient>
<clipPath id="clip0_960_1729">
<rect width="54.1612" height="54.1612" fill="white" transform="translate(296.758 13.5403)"/>
</clipPath>
</defs>
</svg>
