<svg width="46" height="46" viewBox="0 0 46 46" fill="none" xmlns="http://www.w3.org/2000/svg">
<path d="M39.1045 4.3125H28.0627C27.7194 4.31225 27.3899 4.44792 27.1463 4.68985L5.07168 26.7645C4.58833 27.2502 4.31699 27.9075 4.31699 28.5928C4.31699 29.278 4.58833 29.9354 5.07168 30.4211L15.5834 40.9328C16.0691 41.4162 16.7265 41.6875 17.4117 41.6875C18.097 41.6875 18.7543 41.4162 19.24 40.9328L41.3057 18.8672C41.5476 18.6236 41.6833 18.2941 41.683 17.9508V6.9C41.6847 6.5605 41.6192 6.22402 41.4903 5.90993C41.3614 5.59584 41.1717 5.31033 40.932 5.06985C40.6924 4.82936 40.4075 4.63864 40.0939 4.50867C39.7803 4.37869 39.444 4.31202 39.1045 4.3125Z" stroke="white" stroke-width="2" stroke-linecap="round" stroke-linejoin="round"/>
<path d="M34.5 14.375C33.9314 14.375 33.3755 14.2064 32.9027 13.8905C32.4299 13.5746 32.0614 13.1256 31.8438 12.6002C31.6262 12.0749 31.5693 11.4968 31.6802 10.9391C31.7912 10.3814 32.065 9.86915 32.4671 9.46707C32.8691 9.06499 33.3814 8.79118 33.9391 8.68024C34.4968 8.56931 35.0749 8.62625 35.6002 8.84385C36.1256 9.06145 36.5746 9.42995 36.8905 9.90274C37.2064 10.3755 37.375 10.9314 37.375 11.5C37.375 12.2625 37.0721 12.9938 36.5329 13.5329C35.9938 14.0721 35.2625 14.375 34.5 14.375Z" fill="white"/>
</svg>
