<svg width="335" height="185" viewBox="0 0 335 185" fill="none" xmlns="http://www.w3.org/2000/svg">
<rect width="335" height="185" rx="20" fill="url(#paint0_linear_960_1640)"/>
<g filter="url(#filter0_b_960_1640)">
<rect width="335" height="185" rx="20" fill="white" fill-opacity="0.03"/>
</g>
<path fill-rule="evenodd" clip-rule="evenodd" d="M257.364 185C264.87 166.301 269 145.883 269 124.5C269 74.5193 246.435 29.8088 210.938 0H20C8.95429 0 -1.52588e-05 8.9543 -1.52588e-05 20V165C-1.52588e-05 176.046 8.95429 185 20 185H257.364Z" fill="white" fill-opacity="0.06"/>
<path fill-rule="evenodd" clip-rule="evenodd" d="M239.635 185C245.699 167.964 249 149.617 249 130.5C249 77.0432 223.188 29.6152 183.347 0H20C8.95429 0 -1.52588e-05 8.9543 -1.52588e-05 20V165C-1.52588e-05 176.046 8.95429 185 20 185H239.635Z" fill="white" fill-opacity="0.06"/>
<path d="M32.016 145H27.024L26.704 149.272H26.816C27.0933 148.899 27.4027 148.605 27.744 148.392C28.0853 148.168 28.5547 148.056 29.152 148.056C29.6427 148.056 30.0907 148.136 30.496 148.296C30.912 148.445 31.2693 148.669 31.568 148.968C31.8667 149.267 32.1013 149.629 32.272 150.056C32.4427 150.472 32.528 150.952 32.528 151.496C32.528 152.04 32.4427 152.541 32.272 153C32.1013 153.448 31.8507 153.837 31.52 154.168C31.1893 154.488 30.7893 154.739 30.32 154.92C29.8507 155.101 29.3173 155.192 28.72 155.192C28.2507 155.192 27.8293 155.139 27.456 155.032C27.0933 154.925 26.768 154.781 26.48 154.6C26.2027 154.419 25.9573 154.216 25.744 153.992C25.5307 153.768 25.3387 153.533 25.168 153.288L26.176 152.52C26.3253 152.744 26.4747 152.947 26.624 153.128C26.784 153.309 26.9653 153.469 27.168 153.608C27.3707 153.736 27.6 153.837 27.856 153.912C28.112 153.987 28.4107 154.024 28.752 154.024C29.52 154.024 30.1067 153.816 30.512 153.4C30.928 152.984 31.136 152.408 31.136 151.672V151.544C31.136 150.808 30.928 150.232 30.512 149.816C30.096 149.4 29.4987 149.192 28.72 149.192C28.1867 149.192 27.7707 149.283 27.472 149.464C27.184 149.645 26.9173 149.869 26.672 150.136L25.536 149.976L25.936 143.832H32.016V145ZM42.1858 155H34.7298V153.624L38.4578 150.264C39.0018 149.773 39.4498 149.272 39.8018 148.76C40.1538 148.237 40.3298 147.688 40.3298 147.112V146.92C40.3298 146.248 40.1538 145.731 39.8018 145.368C39.4498 144.995 38.9271 144.808 38.2338 144.808C37.5511 144.808 37.0231 144.984 36.6498 145.336C36.2871 145.677 36.0151 146.136 35.8338 146.712L34.6338 146.264C34.7404 145.933 34.8844 145.613 35.0658 145.304C35.2578 144.984 35.4978 144.701 35.7858 144.456C36.0738 144.211 36.4204 144.013 36.8258 143.864C37.2418 143.715 37.7218 143.64 38.2658 143.64C38.8204 143.64 39.3111 143.72 39.7378 143.88C40.1751 144.04 40.5378 144.264 40.8258 144.552C41.1244 144.84 41.3484 145.181 41.4978 145.576C41.6578 145.971 41.7378 146.403 41.7378 146.872C41.7378 147.299 41.6738 147.699 41.5458 148.072C41.4284 148.445 41.2578 148.803 41.0338 149.144C40.8204 149.485 40.5591 149.821 40.2498 150.152C39.9511 150.472 39.6151 150.792 39.2418 151.112L36.1218 153.832H42.1858V155ZM49.2355 155V152.808H43.7315V151.624L48.5635 143.832H50.5155V151.704H52.1795V152.808H50.5155V155H49.2355ZM44.9315 151.704H49.2355V144.872H49.1715L44.9315 151.704ZM61.3733 155H53.9173V153.624L57.6453 150.264C58.1893 149.773 58.6373 149.272 58.9893 148.76C59.3413 148.237 59.5173 147.688 59.5173 147.112V146.92C59.5173 146.248 59.3413 145.731 58.9893 145.368C58.6373 144.995 58.1146 144.808 57.4213 144.808C56.7386 144.808 56.2106 144.984 55.8373 145.336C55.4746 145.677 55.2026 146.136 55.0213 146.712L53.8213 146.264C53.9279 145.933 54.0719 145.613 54.2533 145.304C54.4453 144.984 54.6853 144.701 54.9733 144.456C55.2613 144.211 55.6079 144.013 56.0133 143.864C56.4293 143.715 56.9093 143.64 57.4533 143.64C58.0079 143.64 58.4986 143.72 58.9253 143.88C59.3626 144.04 59.7253 144.264 60.0133 144.552C60.3119 144.84 60.5359 145.181 60.6853 145.576C60.8453 145.971 60.9253 146.403 60.9253 146.872C60.9253 147.299 60.8613 147.699 60.7333 148.072C60.6159 148.445 60.4453 148.803 60.2213 149.144C60.0079 149.485 59.7466 149.821 59.4373 150.152C59.1386 150.472 58.8026 150.792 58.4293 151.112L55.3093 153.832H61.3733V155ZM74.4488 150.808V149.464H79.0888V150.808H74.4488ZM97.2043 155V152.808H91.7003V151.624L96.5323 143.832H98.4843V151.704H100.148V152.808H98.4843V155H97.2043ZM92.9003 151.704H97.2043V144.872H97.1403L92.9003 151.704ZM105.07 148.568C105.849 148.568 106.43 148.397 106.814 148.056C107.209 147.704 107.406 147.256 107.406 146.712V146.6C107.406 146.003 107.214 145.555 106.83 145.256C106.457 144.957 105.966 144.808 105.358 144.808C104.761 144.808 104.275 144.941 103.902 145.208C103.539 145.464 103.241 145.805 103.006 146.232L101.998 145.464C102.137 145.24 102.307 145.021 102.51 144.808C102.713 144.584 102.947 144.387 103.214 144.216C103.491 144.045 103.806 143.907 104.158 143.8C104.521 143.693 104.931 143.64 105.39 143.64C105.87 143.64 106.318 143.704 106.734 143.832C107.15 143.949 107.513 144.131 107.822 144.376C108.131 144.611 108.371 144.904 108.542 145.256C108.723 145.608 108.814 146.008 108.814 146.456C108.814 146.819 108.755 147.144 108.638 147.432C108.531 147.72 108.377 147.971 108.174 148.184C107.982 148.397 107.753 148.579 107.486 148.728C107.219 148.877 106.937 148.989 106.638 149.064V149.128C106.947 149.192 107.246 149.299 107.534 149.448C107.822 149.587 108.078 149.773 108.302 150.008C108.526 150.232 108.702 150.509 108.83 150.84C108.969 151.16 109.038 151.528 109.038 151.944C109.038 152.424 108.942 152.867 108.75 153.272C108.569 153.667 108.307 154.008 107.966 154.296C107.635 154.573 107.23 154.792 106.75 154.952C106.281 155.112 105.758 155.192 105.182 155.192C104.691 155.192 104.254 155.139 103.87 155.032C103.497 154.925 103.161 154.781 102.862 154.6C102.574 154.419 102.318 154.216 102.094 153.992C101.881 153.768 101.689 153.533 101.518 153.288L102.526 152.52C102.675 152.744 102.83 152.947 102.99 153.128C103.15 153.309 103.331 153.469 103.534 153.608C103.747 153.736 103.987 153.837 104.254 153.912C104.521 153.987 104.83 154.024 105.182 154.024C105.971 154.024 106.574 153.843 106.99 153.48C107.417 153.117 107.63 152.6 107.63 151.928V151.8C107.63 151.139 107.422 150.627 107.006 150.264C106.601 149.901 105.987 149.72 105.166 149.72H103.838V148.568H105.07ZM116.392 155V152.808H110.888V151.624L115.72 143.832H117.672V151.704H119.336V152.808H117.672V155H116.392ZM112.088 151.704H116.392V144.872H116.328L112.088 151.704ZM124.258 148.568C125.036 148.568 125.618 148.397 126.002 148.056C126.396 147.704 126.594 147.256 126.594 146.712V146.6C126.594 146.003 126.402 145.555 126.018 145.256C125.644 144.957 125.154 144.808 124.546 144.808C123.948 144.808 123.463 144.941 123.09 145.208C122.727 145.464 122.428 145.805 122.194 146.232L121.186 145.464C121.324 145.24 121.495 145.021 121.698 144.808C121.9 144.584 122.135 144.387 122.402 144.216C122.679 144.045 122.994 143.907 123.346 143.8C123.708 143.693 124.119 143.64 124.578 143.64C125.058 143.64 125.506 143.704 125.922 143.832C126.338 143.949 126.7 144.131 127.01 144.376C127.319 144.611 127.559 144.904 127.73 145.256C127.911 145.608 128.002 146.008 128.002 146.456C128.002 146.819 127.943 147.144 127.826 147.432C127.719 147.72 127.564 147.971 127.362 148.184C127.17 148.397 126.94 148.579 126.674 148.728C126.407 148.877 126.124 148.989 125.826 149.064V149.128C126.135 149.192 126.434 149.299 126.722 149.448C127.01 149.587 127.266 149.773 127.49 150.008C127.714 150.232 127.89 150.509 128.017 150.84C128.156 151.16 128.226 151.528 128.226 151.944C128.226 152.424 128.13 152.867 127.938 153.272C127.756 153.667 127.495 154.008 127.154 154.296C126.823 154.573 126.418 154.792 125.938 154.952C125.468 155.112 124.946 155.192 124.37 155.192C123.879 155.192 123.442 155.139 123.058 155.032C122.684 154.925 122.348 154.781 122.049 154.6C121.762 154.419 121.506 154.216 121.282 153.992C121.068 153.768 120.876 153.533 120.706 153.288L121.714 152.52C121.863 152.744 122.018 152.947 122.178 153.128C122.338 153.309 122.519 153.469 122.722 153.608C122.935 153.736 123.175 153.837 123.442 153.912C123.708 153.987 124.018 154.024 124.37 154.024C125.159 154.024 125.762 153.843 126.178 153.48C126.604 153.117 126.818 152.6 126.818 151.928V151.8C126.818 151.139 126.61 150.627 126.194 150.264C125.788 149.901 125.175 149.72 124.354 149.72H123.026V148.568H124.258ZM141.605 150.808V149.464H146.245V150.808H141.605ZM163.113 155.192C162.462 155.192 161.891 155.112 161.401 154.952C160.91 154.781 160.499 154.552 160.169 154.264C159.849 153.976 159.603 153.635 159.433 153.24C159.273 152.845 159.193 152.419 159.193 151.96C159.193 151.192 159.401 150.584 159.817 150.136C160.233 149.688 160.782 149.373 161.465 149.192V149.064C160.867 148.861 160.393 148.536 160.041 148.088C159.699 147.629 159.529 147.08 159.529 146.44C159.529 145.587 159.843 144.909 160.473 144.408C161.102 143.896 161.982 143.64 163.113 143.64C164.243 143.64 165.123 143.896 165.753 144.408C166.382 144.909 166.697 145.587 166.697 146.44C166.697 147.08 166.521 147.629 166.169 148.088C165.827 148.536 165.358 148.861 164.761 149.064V149.192C165.443 149.373 165.993 149.688 166.409 150.136C166.825 150.584 167.033 151.192 167.033 151.96C167.033 152.419 166.947 152.845 166.777 153.24C166.617 153.635 166.371 153.976 166.041 154.264C165.71 154.552 165.299 154.781 164.809 154.952C164.329 155.112 163.763 155.192 163.113 155.192ZM163.113 154.056C163.902 154.056 164.521 153.88 164.969 153.528C165.417 153.176 165.641 152.68 165.641 152.04V151.688C165.641 151.048 165.417 150.552 164.969 150.2C164.531 149.848 163.913 149.672 163.113 149.672C162.313 149.672 161.689 149.848 161.241 150.2C160.803 150.552 160.585 151.048 160.585 151.688V152.04C160.585 152.68 160.809 153.176 161.257 153.528C161.705 153.88 162.323 154.056 163.113 154.056ZM163.113 148.584C163.838 148.584 164.387 148.429 164.761 148.12C165.145 147.811 165.337 147.368 165.337 146.792V146.568C165.337 145.992 165.139 145.549 164.745 145.24C164.361 144.931 163.817 144.776 163.113 144.776C162.409 144.776 161.859 144.931 161.465 145.24C161.081 145.549 160.889 145.992 160.889 146.568V146.792C160.889 147.368 161.075 147.811 161.449 148.12C161.833 148.429 162.387 148.584 163.113 148.584ZM172.226 148.568C173.005 148.568 173.586 148.397 173.97 148.056C174.365 147.704 174.562 147.256 174.562 146.712V146.6C174.562 146.003 174.37 145.555 173.986 145.256C173.613 144.957 173.122 144.808 172.514 144.808C171.917 144.808 171.432 144.941 171.058 145.208C170.696 145.464 170.397 145.805 170.162 146.232L169.154 145.464C169.293 145.24 169.464 145.021 169.666 144.808C169.869 144.584 170.104 144.387 170.37 144.216C170.648 144.045 170.962 143.907 171.314 143.8C171.677 143.693 172.088 143.64 172.546 143.64C173.026 143.64 173.474 143.704 173.89 143.832C174.306 143.949 174.669 144.131 174.978 144.376C175.288 144.611 175.528 144.904 175.698 145.256C175.88 145.608 175.97 146.008 175.97 146.456C175.97 146.819 175.912 147.144 175.794 147.432C175.688 147.72 175.533 147.971 175.33 148.184C175.138 148.397 174.909 148.579 174.642 148.728C174.376 148.877 174.093 148.989 173.794 149.064V149.128C174.104 149.192 174.402 149.299 174.69 149.448C174.978 149.587 175.234 149.773 175.458 150.008C175.682 150.232 175.858 150.509 175.986 150.84C176.125 151.16 176.194 151.528 176.194 151.944C176.194 152.424 176.098 152.867 175.906 153.272C175.725 153.667 175.464 154.008 175.122 154.296C174.792 154.573 174.386 154.792 173.906 154.952C173.437 155.112 172.914 155.192 172.338 155.192C171.848 155.192 171.41 155.139 171.026 155.032C170.653 154.925 170.317 154.781 170.018 154.6C169.73 154.419 169.474 154.216 169.25 153.992C169.037 153.768 168.845 153.533 168.674 153.288L169.682 152.52C169.832 152.744 169.986 152.947 170.146 153.128C170.306 153.309 170.488 153.469 170.69 153.608C170.904 153.736 171.144 153.837 171.41 153.912C171.677 153.987 171.986 154.024 172.338 154.024C173.128 154.024 173.73 153.843 174.146 153.48C174.573 153.117 174.786 152.6 174.786 151.928V151.8C174.786 151.139 174.578 150.627 174.162 150.264C173.757 149.901 173.144 149.72 172.322 149.72H170.994V148.568H172.226ZM183.548 155V152.808H178.044V151.624L182.876 143.832H184.828V151.704H186.492V152.808H184.828V155H183.548ZM179.244 151.704H183.548V144.872H183.484L179.244 151.704ZM191.894 155.192C191.243 155.192 190.672 155.112 190.182 154.952C189.691 154.781 189.28 154.552 188.95 154.264C188.63 153.976 188.384 153.635 188.214 153.24C188.054 152.845 187.974 152.419 187.974 151.96C187.974 151.192 188.182 150.584 188.598 150.136C189.014 149.688 189.563 149.373 190.246 149.192V149.064C189.648 148.861 189.174 148.536 188.822 148.088C188.48 147.629 188.31 147.08 188.31 146.44C188.31 145.587 188.624 144.909 189.254 144.408C189.883 143.896 190.763 143.64 191.894 143.64C193.024 143.64 193.904 143.896 194.534 144.408C195.163 144.909 195.478 145.587 195.478 146.44C195.478 147.08 195.302 147.629 194.95 148.088C194.608 148.536 194.139 148.861 193.542 149.064V149.192C194.224 149.373 194.774 149.688 195.19 150.136C195.606 150.584 195.814 151.192 195.814 151.96C195.814 152.419 195.728 152.845 195.558 153.24C195.398 153.635 195.152 153.976 194.822 154.264C194.491 154.552 194.08 154.781 193.59 154.952C193.11 155.112 192.544 155.192 191.894 155.192ZM191.894 154.056C192.683 154.056 193.302 153.88 193.75 153.528C194.198 153.176 194.422 152.68 194.422 152.04V151.688C194.422 151.048 194.198 150.552 193.75 150.2C193.312 149.848 192.694 149.672 191.894 149.672C191.094 149.672 190.47 149.848 190.022 150.2C189.584 150.552 189.366 151.048 189.366 151.688V152.04C189.366 152.68 189.59 153.176 190.038 153.528C190.486 153.88 191.104 154.056 191.894 154.056ZM191.894 148.584C192.619 148.584 193.168 148.429 193.542 148.12C193.926 147.811 194.118 147.368 194.118 146.792V146.568C194.118 145.992 193.92 145.549 193.526 145.24C193.142 144.931 192.598 144.776 191.894 144.776C191.19 144.776 190.64 144.931 190.246 145.24C189.862 145.549 189.67 145.992 189.67 146.568V146.792C189.67 147.368 189.856 147.811 190.23 148.12C190.614 148.429 191.168 148.584 191.894 148.584ZM208.761 150.808V149.464H213.401V150.808H208.761ZM231.517 155V152.808H226.013V151.624L230.845 143.832H232.797V151.704H234.461V152.808H232.797V155H231.517ZM227.213 151.704H231.517V144.872H231.453L227.213 151.704ZM239.863 155.192C239.212 155.192 238.641 155.112 238.151 154.952C237.66 154.781 237.249 154.552 236.919 154.264C236.599 153.976 236.353 153.635 236.183 153.24C236.023 152.845 235.943 152.419 235.943 151.96C235.943 151.192 236.151 150.584 236.567 150.136C236.983 149.688 237.532 149.373 238.215 149.192V149.064C237.617 148.861 237.143 148.536 236.791 148.088C236.449 147.629 236.279 147.08 236.279 146.44C236.279 145.587 236.593 144.909 237.223 144.408C237.852 143.896 238.732 143.64 239.863 143.64C240.993 143.64 241.873 143.896 242.503 144.408C243.132 144.909 243.447 145.587 243.447 146.44C243.447 147.08 243.271 147.629 242.919 148.088C242.577 148.536 242.108 148.861 241.511 149.064V149.192C242.193 149.373 242.743 149.688 243.159 150.136C243.575 150.584 243.783 151.192 243.783 151.96C243.783 152.419 243.697 152.845 243.527 153.24C243.367 153.635 243.121 153.976 242.791 154.264C242.46 154.552 242.049 154.781 241.559 154.952C241.079 155.112 240.513 155.192 239.863 155.192ZM239.863 154.056C240.652 154.056 241.271 153.88 241.719 153.528C242.167 153.176 242.391 152.68 242.391 152.04V151.688C242.391 151.048 242.167 150.552 241.719 150.2C241.281 149.848 240.663 149.672 239.863 149.672C239.063 149.672 238.439 149.848 237.991 150.2C237.553 150.552 237.335 151.048 237.335 151.688V152.04C237.335 152.68 237.559 153.176 238.007 153.528C238.455 153.88 239.073 154.056 239.863 154.056ZM239.863 148.584C240.588 148.584 241.137 148.429 241.511 148.12C241.895 147.811 242.087 147.368 242.087 146.792V146.568C242.087 145.992 241.889 145.549 241.495 145.24C241.111 144.931 240.567 144.776 239.863 144.776C239.159 144.776 238.609 144.931 238.215 145.24C237.831 145.549 237.639 145.992 237.639 146.568V146.792C237.639 147.368 237.825 147.811 238.199 148.12C238.583 148.429 239.137 148.584 239.863 148.584ZM247.424 155L251.792 144.984H246.896V147.064H245.696V143.832H253.152V145.016L248.864 155H247.424ZM259.05 155.192C258.399 155.192 257.829 155.112 257.338 154.952C256.847 154.781 256.437 154.552 256.106 154.264C255.786 153.976 255.541 153.635 255.37 153.24C255.21 152.845 255.13 152.419 255.13 151.96C255.13 151.192 255.338 150.584 255.754 150.136C256.17 149.688 256.719 149.373 257.402 149.192V149.064C256.805 148.861 256.33 148.536 255.978 148.088C255.637 147.629 255.466 147.08 255.466 146.44C255.466 145.587 255.781 144.909 256.41 144.408C257.039 143.896 257.919 143.64 259.05 143.64C260.181 143.64 261.061 143.896 261.69 144.408C262.319 144.909 262.634 145.587 262.634 146.44C262.634 147.08 262.458 147.629 262.106 148.088C261.765 148.536 261.295 148.861 260.698 149.064V149.192C261.381 149.373 261.93 149.688 262.346 150.136C262.762 150.584 262.97 151.192 262.97 151.96C262.97 152.419 262.885 152.845 262.714 153.24C262.554 153.635 262.309 153.976 261.978 154.264C261.647 154.552 261.237 154.781 260.746 154.952C260.266 155.112 259.701 155.192 259.05 155.192ZM259.05 154.056C259.839 154.056 260.458 153.88 260.906 153.528C261.354 153.176 261.578 152.68 261.578 152.04V151.688C261.578 151.048 261.354 150.552 260.906 150.2C260.469 149.848 259.85 149.672 259.05 149.672C258.25 149.672 257.626 149.848 257.178 150.2C256.741 150.552 256.522 151.048 256.522 151.688V152.04C256.522 152.68 256.746 153.176 257.194 153.528C257.642 153.88 258.261 154.056 259.05 154.056ZM259.05 148.584C259.775 148.584 260.325 148.429 260.698 148.12C261.082 147.811 261.274 147.368 261.274 146.792V146.568C261.274 145.992 261.077 145.549 260.682 145.24C260.298 144.931 259.754 144.776 259.05 144.776C258.346 144.776 257.797 144.931 257.402 145.24C257.018 145.549 256.826 145.992 256.826 146.568V146.792C256.826 147.368 257.013 147.811 257.386 148.12C257.77 148.429 258.325 148.584 259.05 148.584Z" fill="white"/>
<path d="M25.52 119.832H28.64C30.0053 119.832 31.024 120.301 31.696 121.24C32.368 122.179 32.704 123.571 32.704 125.416C32.704 127.261 32.368 128.653 31.696 129.592C31.024 130.531 30.0053 131 28.64 131H25.52V119.832ZM28.576 129.832C29.472 129.832 30.144 129.523 30.592 128.904C31.0507 128.285 31.28 127.411 31.28 126.28V124.552C31.28 123.421 31.0507 122.547 30.592 121.928C30.144 121.309 29.472 121 28.576 121H26.864V129.832H28.576ZM41.5138 131C41.0124 131 40.6551 130.872 40.4418 130.616C40.2284 130.36 40.0951 130.04 40.0418 129.656H39.9618C39.7804 130.136 39.4871 130.515 39.0818 130.792C38.6871 131.059 38.1538 131.192 37.4818 131.192C36.6178 131.192 35.9298 130.968 35.4178 130.52C34.9058 130.072 34.6497 129.459 34.6497 128.68C34.6497 127.912 34.9271 127.32 35.4818 126.904C36.0471 126.488 36.9538 126.28 38.2018 126.28H39.9618V125.464C39.9618 124.856 39.7911 124.403 39.4498 124.104C39.1084 123.795 38.6231 123.64 37.9938 123.64C37.4391 123.64 36.9858 123.752 36.6338 123.976C36.2818 124.189 35.9991 124.483 35.7858 124.856L34.9218 124.216C35.0284 124.003 35.1724 123.795 35.3538 123.592C35.5351 123.389 35.7591 123.213 36.0258 123.064C36.2924 122.904 36.5964 122.781 36.9378 122.696C37.2791 122.6 37.6578 122.552 38.0738 122.552C39.0444 122.552 39.8124 122.797 40.3778 123.288C40.9538 123.779 41.2418 124.461 41.2418 125.336V129.88H42.3938V131H41.5138ZM37.7057 130.12C38.0364 130.12 38.3351 130.083 38.6018 130.008C38.8791 129.923 39.1191 129.816 39.3218 129.688C39.5244 129.549 39.6791 129.389 39.7858 129.208C39.9031 129.016 39.9618 128.813 39.9618 128.6V127.24H38.2018C37.4338 127.24 36.8738 127.347 36.5218 127.56C36.1698 127.773 35.9938 128.083 35.9938 128.488V128.824C35.9938 129.251 36.1431 129.576 36.4418 129.8C36.7511 130.013 37.1724 130.12 37.7057 130.12ZM47.1715 131L44.2115 122.744H45.5075L46.6915 126.2L47.9715 129.928H48.0355L49.3155 126.2L50.4995 122.744H51.7635L48.8035 131H47.1715ZM58.0933 120.92C57.7199 120.92 57.4586 120.845 57.3093 120.696C57.1599 120.536 57.0853 120.339 57.0853 120.104V119.848C57.0853 119.613 57.1599 119.421 57.3093 119.272C57.4586 119.112 57.7199 119.032 58.0933 119.032C58.4666 119.032 58.7279 119.112 58.8773 119.272C59.0266 119.421 59.1013 119.613 59.1013 119.848V120.104C59.1013 120.339 59.0266 120.536 58.8773 120.696C58.7279 120.845 58.4666 120.92 58.0933 120.92ZM54.4773 129.912H57.4533V123.832H54.4773V122.744H58.7333V129.912H61.5173V131H54.4773V129.912ZM69.175 129.656H69.111C68.5777 130.68 67.7297 131.192 66.567 131.192C65.5537 131.192 64.759 130.813 64.183 130.056C63.6177 129.299 63.335 128.237 63.335 126.872C63.335 125.507 63.6177 124.445 64.183 123.688C64.759 122.931 65.5537 122.552 66.567 122.552C67.7297 122.552 68.5777 123.064 69.111 124.088H69.175V119.16H70.455V131H69.175V129.656ZM67.063 130.056C67.351 130.056 67.623 130.019 67.879 129.944C68.135 129.869 68.359 129.763 68.551 129.624C68.743 129.475 68.8923 129.299 68.999 129.096C69.1163 128.883 69.175 128.637 69.175 128.36V125.384C69.175 125.107 69.1163 124.867 68.999 124.664C68.8923 124.451 68.743 124.275 68.551 124.136C68.359 123.987 68.135 123.875 67.879 123.8C67.623 123.725 67.351 123.688 67.063 123.688C66.3163 123.688 65.735 123.917 65.319 124.376C64.9137 124.824 64.711 125.421 64.711 126.168V127.576C64.711 128.323 64.9137 128.925 65.319 129.384C65.735 129.832 66.3163 130.056 67.063 130.056ZM86.3305 131.192C85.3278 131.192 84.5065 131.011 83.8665 130.648C83.2265 130.275 82.6985 129.8 82.2825 129.224L83.2585 128.424C83.6958 128.968 84.1545 129.373 84.6345 129.64C85.1252 129.907 85.7065 130.04 86.3785 130.04C87.1892 130.04 87.8078 129.853 88.2345 129.48C88.6612 129.107 88.8745 128.584 88.8745 127.912C88.8745 127.368 88.7198 126.947 88.4105 126.648C88.1012 126.339 87.5625 126.12 86.7945 125.992L85.5465 125.784C85.0025 125.688 84.5438 125.544 84.1705 125.352C83.8078 125.16 83.5145 124.931 83.2905 124.664C83.0665 124.387 82.9065 124.088 82.8105 123.768C82.7145 123.437 82.6665 123.096 82.6665 122.744C82.6665 121.72 83.0025 120.947 83.6745 120.424C84.3465 119.901 85.2532 119.64 86.3945 119.64C87.2905 119.64 88.0425 119.789 88.6505 120.088C89.2692 120.387 89.7652 120.808 90.1385 121.352L89.1945 122.168C88.8852 121.763 88.5118 121.432 88.0745 121.176C87.6372 120.92 87.0718 120.792 86.3785 120.792C85.6212 120.792 85.0398 120.952 84.6345 121.272C84.2292 121.592 84.0265 122.072 84.0265 122.712C84.0265 123.213 84.1758 123.624 84.4745 123.944C84.7838 124.253 85.3332 124.477 86.1225 124.616L87.3225 124.824C87.8665 124.92 88.3252 125.064 88.6985 125.256C89.0718 125.448 89.3705 125.677 89.5945 125.944C89.8292 126.211 89.9945 126.509 90.0905 126.84C90.1865 127.171 90.2345 127.517 90.2345 127.88C90.2345 128.915 89.8932 129.725 89.2105 130.312C88.5385 130.899 87.5785 131.192 86.3305 131.192ZM92.7243 131V122.744H94.0043V124.088H94.0683C94.1536 123.885 94.2603 123.693 94.3883 123.512C94.5163 123.32 94.6709 123.155 94.8523 123.016C95.0443 122.877 95.2683 122.765 95.5243 122.68C95.7803 122.595 96.0789 122.552 96.4203 122.552C97.2843 122.552 97.9776 122.829 98.5003 123.384C99.0229 123.928 99.2843 124.701 99.2843 125.704V131H98.0043V125.928C98.0043 125.171 97.8389 124.611 97.5083 124.248C97.1776 123.875 96.6923 123.688 96.0523 123.688C95.7963 123.688 95.5456 123.72 95.3003 123.784C95.0549 123.848 94.8363 123.944 94.6443 124.072C94.4523 124.2 94.2976 124.365 94.1803 124.568C94.0629 124.771 94.0043 125.005 94.0043 125.272V131H92.7243ZM108.67 131C108.169 131 107.811 130.872 107.598 130.616C107.385 130.36 107.251 130.04 107.198 129.656H107.118C106.937 130.136 106.643 130.515 106.238 130.792C105.843 131.059 105.31 131.192 104.638 131.192C103.774 131.192 103.086 130.968 102.574 130.52C102.062 130.072 101.806 129.459 101.806 128.68C101.806 127.912 102.083 127.32 102.638 126.904C103.203 126.488 104.11 126.28 105.358 126.28H107.118V125.464C107.118 124.856 106.947 124.403 106.606 124.104C106.265 123.795 105.779 123.64 105.15 123.64C104.595 123.64 104.142 123.752 103.79 123.976C103.438 124.189 103.155 124.483 102.942 124.856L102.078 124.216C102.185 124.003 102.329 123.795 102.51 123.592C102.691 123.389 102.915 123.213 103.182 123.064C103.449 122.904 103.753 122.781 104.094 122.696C104.435 122.6 104.814 122.552 105.23 122.552C106.201 122.552 106.969 122.797 107.534 123.288C108.11 123.779 108.398 124.461 108.398 125.336V129.88H109.55V131H108.67ZM104.862 130.12C105.193 130.12 105.491 130.083 105.758 130.008C106.035 129.923 106.275 129.816 106.478 129.688C106.681 129.549 106.835 129.389 106.942 129.208C107.059 129.016 107.118 128.813 107.118 128.6V127.24H105.358C104.59 127.24 104.03 127.347 103.678 127.56C103.326 127.773 103.15 128.083 103.15 128.488V128.824C103.15 129.251 103.299 129.576 103.598 129.8C103.907 130.013 104.329 130.12 104.862 130.12ZM112.024 119.16H113.304V126.632H113.368L114.808 125.272L117.56 122.744H119.128L115.704 125.976L119.528 131H117.944L114.728 126.712L113.304 128.008V131H112.024V119.16ZM124.882 131.192C124.284 131.192 123.746 131.091 123.266 130.888C122.796 130.685 122.391 130.397 122.049 130.024C121.719 129.64 121.463 129.187 121.282 128.664C121.1 128.131 121.01 127.539 121.01 126.888C121.01 126.227 121.1 125.629 121.282 125.096C121.474 124.563 121.735 124.109 122.066 123.736C122.396 123.352 122.791 123.059 123.25 122.856C123.719 122.653 124.236 122.552 124.802 122.552C125.356 122.552 125.858 122.653 126.306 122.856C126.764 123.059 127.154 123.341 127.474 123.704C127.794 124.056 128.039 124.477 128.21 124.968C128.38 125.459 128.466 125.997 128.466 126.584V127.192H122.354V127.576C122.354 127.939 122.412 128.275 122.53 128.584C122.647 128.893 122.812 129.16 123.026 129.384C123.25 129.608 123.516 129.784 123.826 129.912C124.146 130.029 124.498 130.088 124.882 130.088C125.436 130.088 125.916 129.96 126.322 129.704C126.727 129.448 127.036 129.096 127.25 128.648L128.194 129.288C127.948 129.843 127.538 130.301 126.962 130.664C126.396 131.016 125.703 131.192 124.882 131.192ZM124.802 123.608C124.45 123.608 124.124 123.672 123.826 123.8C123.527 123.928 123.266 124.104 123.042 124.328C122.828 124.552 122.658 124.819 122.53 125.128C122.412 125.427 122.354 125.757 122.354 126.12V126.232H127.09V126.056C127.09 125.693 127.031 125.363 126.914 125.064C126.807 124.765 126.652 124.509 126.45 124.296C126.258 124.072 126.018 123.901 125.73 123.784C125.452 123.667 125.143 123.608 124.802 123.608Z" fill="white"/>
<path opacity="0.9" d="M28.32 34.8C29.8773 34.8 31.072 35.0987 31.904 35.696C32.7467 36.2827 33.168 37.1627 33.168 38.336C33.168 38.976 33.0507 39.5253 32.816 39.984C32.592 40.432 32.2613 40.8 31.824 41.088C31.3973 41.3653 30.8747 41.568 30.256 41.696C29.6373 41.824 28.9387 41.888 28.16 41.888H26.928V46H25.376V35.072C25.8133 34.9653 26.2987 34.896 26.832 34.864C27.376 34.8213 27.872 34.8 28.32 34.8ZM28.448 36.16C27.7867 36.16 27.28 36.176 26.928 36.208V40.56H28.096C28.6293 40.56 29.1093 40.528 29.536 40.464C29.9627 40.3893 30.32 40.272 30.608 40.112C30.9067 39.9413 31.136 39.712 31.296 39.424C31.456 39.136 31.536 38.768 31.536 38.32C31.536 37.8933 31.4507 37.5413 31.28 37.264C31.12 36.9867 30.896 36.768 30.608 36.608C30.3307 36.4373 30.0053 36.32 29.632 36.256C29.2587 36.192 28.864 36.16 28.448 36.16ZM38.0864 37.504C38.2144 37.504 38.3584 37.5147 38.5184 37.536C38.689 37.5467 38.8544 37.568 39.0144 37.6C39.1744 37.6213 39.3184 37.648 39.4464 37.68C39.585 37.7013 39.6864 37.7227 39.7504 37.744L39.4944 39.04C39.377 38.9973 39.1797 38.9493 38.9024 38.896C38.6357 38.832 38.289 38.8 37.8624 38.8C37.585 38.8 37.3077 38.832 37.0304 38.896C36.7637 38.9493 36.5877 38.9867 36.5024 39.008V46H35.0144V38.032C35.3664 37.904 35.8037 37.7867 36.3264 37.68C36.849 37.5627 37.4357 37.504 38.0864 37.504ZM40.7223 41.856C40.7223 41.12 40.8289 40.48 41.0423 39.936C41.2556 39.3813 41.5383 38.9227 41.8903 38.56C42.2423 38.1973 42.6476 37.9253 43.1063 37.744C43.5649 37.5627 44.0343 37.472 44.5143 37.472C45.6343 37.472 46.4929 37.824 47.0903 38.528C47.6876 39.2213 47.9862 40.2827 47.9862 41.712C47.9862 41.776 47.9862 41.8613 47.9862 41.968C47.9862 42.064 47.9809 42.1547 47.9703 42.24H42.2743C42.3383 43.104 42.5889 43.76 43.0263 44.208C43.4636 44.656 44.1463 44.88 45.0743 44.88C45.5969 44.88 46.0343 44.8373 46.3863 44.752C46.7489 44.656 47.0209 44.5653 47.2023 44.48L47.4103 45.728C47.2289 45.824 46.9089 45.9253 46.4503 46.032C46.0023 46.1387 45.4903 46.192 44.9143 46.192C44.1889 46.192 43.5596 46.0853 43.0263 45.872C42.5036 45.648 42.0716 45.344 41.7303 44.96C41.3889 44.576 41.1329 44.1227 40.9622 43.6C40.8023 43.0667 40.7223 42.4853 40.7223 41.856ZM46.4343 41.04C46.4449 40.368 46.2743 39.8187 45.9223 39.392C45.5809 38.9547 45.1063 38.736 44.4983 38.736C44.1569 38.736 43.8529 38.8053 43.5863 38.944C43.3303 39.072 43.1116 39.2427 42.9303 39.456C42.7489 39.6693 42.6049 39.9147 42.4983 40.192C42.4023 40.4693 42.3383 40.752 42.3063 41.04H46.4343ZM55.8998 41.856C55.8998 40.8853 55.6598 40.1387 55.1798 39.616C54.6998 39.0933 54.0598 38.832 53.2598 38.832C52.8118 38.832 52.4598 38.848 52.2038 38.88C51.9584 38.912 51.7611 38.9493 51.6118 38.992V44.24C51.7931 44.3893 52.0544 44.5333 52.3958 44.672C52.7371 44.8107 53.1104 44.88 53.5158 44.88C53.9424 44.88 54.3051 44.8053 54.6038 44.656C54.9131 44.496 55.1638 44.2827 55.3558 44.016C55.5478 43.7387 55.6864 43.4187 55.7718 43.056C55.8571 42.6827 55.8998 42.2827 55.8998 41.856ZM57.4518 41.856C57.4518 42.4853 57.3664 43.0667 57.1958 43.6C57.0358 44.1333 56.7958 44.592 56.4758 44.976C56.1558 45.36 55.7611 45.6587 55.2918 45.872C54.8331 46.0853 54.3051 46.192 53.7078 46.192C53.2278 46.192 52.8011 46.128 52.4278 46C52.0651 45.872 51.7931 45.7493 51.6118 45.632V48.96H50.1238V37.936C50.4758 37.8507 50.9131 37.76 51.4358 37.664C51.9691 37.5573 52.5824 37.504 53.2758 37.504C53.9158 37.504 54.4918 37.6053 55.0038 37.808C55.5158 38.0107 55.9531 38.2987 56.3158 38.672C56.6784 39.0453 56.9558 39.504 57.1478 40.048C57.3504 40.5813 57.4518 41.184 57.4518 41.856ZM62.3616 44.928C62.7136 44.928 63.023 44.9227 63.2896 44.912C63.567 44.8907 63.7963 44.8587 63.9776 44.816V42.336C63.871 42.2827 63.695 42.24 63.4496 42.208C63.215 42.1653 62.927 42.144 62.5856 42.144C62.3616 42.144 62.1216 42.16 61.8656 42.192C61.6203 42.224 61.391 42.2933 61.1776 42.4C60.975 42.496 60.8043 42.6347 60.6656 42.816C60.527 42.9867 60.4576 43.216 60.4576 43.504C60.4576 44.0373 60.6283 44.4107 60.9696 44.624C61.311 44.8267 61.775 44.928 62.3616 44.928ZM62.2336 37.472C62.831 37.472 63.3323 37.552 63.7376 37.712C64.1536 37.8613 64.4843 38.08 64.7296 38.368C64.9856 38.6453 65.167 38.9813 65.2736 39.376C65.3803 39.76 65.4336 40.1867 65.4336 40.656V45.856C65.3056 45.8773 65.1243 45.9093 64.8896 45.952C64.6656 45.984 64.4096 46.016 64.1216 46.048C63.8336 46.08 63.519 46.1067 63.1776 46.128C62.847 46.16 62.5163 46.176 62.1856 46.176C61.7163 46.176 61.2843 46.128 60.8896 46.032C60.495 45.936 60.1536 45.7867 59.8656 45.584C59.5776 45.3707 59.3536 45.0933 59.1936 44.752C59.0336 44.4107 58.9536 44 58.9536 43.52C58.9536 43.0613 59.0443 42.6667 59.2256 42.336C59.4176 42.0053 59.6736 41.7387 59.9936 41.536C60.3136 41.3333 60.687 41.184 61.1136 41.088C61.5403 40.992 61.9883 40.944 62.4576 40.944C62.607 40.944 62.7616 40.9547 62.9216 40.976C63.0816 40.9867 63.231 41.008 63.3696 41.04C63.519 41.0613 63.647 41.0827 63.7536 41.104C63.8603 41.1253 63.935 41.1413 63.9776 41.152V40.736C63.9776 40.4907 63.951 40.2507 63.8976 40.016C63.8443 39.7707 63.7483 39.5573 63.6096 39.376C63.471 39.184 63.279 39.0347 63.0336 38.928C62.799 38.8107 62.4896 38.752 62.1056 38.752C61.615 38.752 61.183 38.7893 60.8096 38.864C60.447 38.928 60.175 38.9973 59.9936 39.072L59.8176 37.84C60.0096 37.7547 60.3296 37.6747 60.7776 37.6C61.2256 37.5147 61.711 37.472 62.2336 37.472ZM69.393 46H67.905V37.68H69.393V46ZM68.641 36.176C68.3743 36.176 68.145 36.0907 67.953 35.92C67.7717 35.7387 67.681 35.4987 67.681 35.2C67.681 34.9013 67.7717 34.6667 67.953 34.496C68.145 34.3147 68.3743 34.224 68.641 34.224C68.9077 34.224 69.1317 34.3147 69.313 34.496C69.505 34.6667 69.601 34.9013 69.601 35.2C69.601 35.4987 69.505 35.7387 69.313 35.92C69.1317 36.0907 68.9077 36.176 68.641 36.176ZM77.3279 39.44C77.1465 39.2907 76.8852 39.1467 76.5439 39.008C76.2025 38.8693 75.8292 38.8 75.4239 38.8C74.9972 38.8 74.6292 38.88 74.3199 39.04C74.0212 39.1893 73.7759 39.4027 73.5839 39.68C73.3919 39.9467 73.2532 40.2667 73.1679 40.64C73.0825 41.0133 73.0399 41.4133 73.0399 41.84C73.0399 42.8107 73.2799 43.5627 73.7599 44.096C74.2399 44.6187 74.8799 44.88 75.6799 44.88C76.0852 44.88 76.4212 44.864 76.6879 44.832C76.9652 44.7893 77.1785 44.7467 77.3279 44.704V39.44ZM77.3279 33.84L78.8159 33.584V45.76C78.4745 45.856 78.0372 45.952 77.5039 46.048C76.9705 46.144 76.3572 46.192 75.6639 46.192C75.0239 46.192 74.4479 46.0907 73.9359 45.888C73.4239 45.6853 72.9865 45.3973 72.6239 45.024C72.2612 44.6507 71.9785 44.1973 71.7759 43.664C71.5839 43.12 71.4879 42.512 71.4879 41.84C71.4879 41.2 71.5679 40.6133 71.7279 40.08C71.8985 39.5467 72.1439 39.088 72.4639 38.704C72.7839 38.32 73.1732 38.0213 73.6319 37.808C74.1012 37.5947 74.6345 37.488 75.2319 37.488C75.7119 37.488 76.1332 37.552 76.4959 37.68C76.8692 37.808 77.1465 37.9307 77.3279 38.048V33.84ZM89.9409 46.24C89.1622 46.24 88.4529 46.112 87.8129 45.856C87.1729 45.6 86.6235 45.2267 86.1649 44.736C85.7062 44.2453 85.3489 43.6427 85.0929 42.928C84.8475 42.2027 84.7249 41.376 84.7249 40.448C84.7249 39.52 84.8635 38.6987 85.1409 37.984C85.4289 37.2587 85.8129 36.6507 86.2929 36.16C86.7729 35.6693 87.3329 35.296 87.9729 35.04C88.6129 34.784 89.2955 34.656 90.0209 34.656C90.4795 34.656 90.8902 34.688 91.2529 34.752C91.6262 34.816 91.9462 34.8907 92.2129 34.976C92.4902 35.0613 92.7142 35.1467 92.8849 35.232C93.0555 35.3173 93.1729 35.3813 93.2369 35.424L92.7889 36.704C92.6929 36.64 92.5542 36.5707 92.3729 36.496C92.1915 36.4213 91.9835 36.3467 91.7489 36.272C91.5249 36.1973 91.2742 36.1387 90.9969 36.096C90.7302 36.0427 90.4582 36.016 90.1809 36.016C89.5942 36.016 89.0662 36.1173 88.5969 36.32C88.1275 36.5227 87.7275 36.816 87.3969 37.2C87.0662 37.584 86.8102 38.0533 86.6289 38.608C86.4582 39.152 86.3729 39.7653 86.3729 40.448C86.3729 41.1093 86.4475 41.712 86.5969 42.256C86.7569 42.8 86.9915 43.2693 87.3009 43.664C87.6102 44.048 87.9942 44.3467 88.4529 44.56C88.9222 44.7733 89.4662 44.88 90.0849 44.88C90.7995 44.88 91.3915 44.8053 91.8609 44.656C92.3302 44.5067 92.6822 44.3733 92.9169 44.256L93.3169 45.536C93.2422 45.5893 93.1089 45.6587 92.9169 45.744C92.7249 45.8187 92.4849 45.8933 92.1969 45.968C91.9089 46.0427 91.5729 46.1067 91.1889 46.16C90.8049 46.2133 90.3889 46.24 89.9409 46.24ZM97.8148 44.928C98.1668 44.928 98.4761 44.9227 98.7428 44.912C99.0201 44.8907 99.2494 44.8587 99.4308 44.816V42.336C99.3241 42.2827 99.1481 42.24 98.9028 42.208C98.6681 42.1653 98.3801 42.144 98.0388 42.144C97.8148 42.144 97.5748 42.16 97.3188 42.192C97.0734 42.224 96.8441 42.2933 96.6308 42.4C96.4281 42.496 96.2574 42.6347 96.1188 42.816C95.9801 42.9867 95.9108 43.216 95.9108 43.504C95.9108 44.0373 96.0814 44.4107 96.4228 44.624C96.7641 44.8267 97.2281 44.928 97.8148 44.928ZM97.6868 37.472C98.2841 37.472 98.7854 37.552 99.1908 37.712C99.6068 37.8613 99.9374 38.08 100.183 38.368C100.439 38.6453 100.62 38.9813 100.727 39.376C100.833 39.76 100.887 40.1867 100.887 40.656V45.856C100.759 45.8773 100.577 45.9093 100.343 45.952C100.119 45.984 99.8628 46.016 99.5748 46.048C99.2868 46.08 98.9721 46.1067 98.6308 46.128C98.3001 46.16 97.9694 46.176 97.6388 46.176C97.1694 46.176 96.7374 46.128 96.3428 46.032C95.9481 45.936 95.6068 45.7867 95.3188 45.584C95.0308 45.3707 94.8068 45.0933 94.6468 44.752C94.4868 44.4107 94.4068 44 94.4068 43.52C94.4068 43.0613 94.4974 42.6667 94.6788 42.336C94.8708 42.0053 95.1268 41.7387 95.4468 41.536C95.7668 41.3333 96.1401 41.184 96.5668 41.088C96.9934 40.992 97.4414 40.944 97.9108 40.944C98.0601 40.944 98.2148 40.9547 98.3748 40.976C98.5348 40.9867 98.6841 41.008 98.8228 41.04C98.9721 41.0613 99.1001 41.0827 99.2068 41.104C99.3134 41.1253 99.3881 41.1413 99.4308 41.152V40.736C99.4308 40.4907 99.4041 40.2507 99.3508 40.016C99.2974 39.7707 99.2014 39.5573 99.0628 39.376C98.9241 39.184 98.7321 39.0347 98.4868 38.928C98.2521 38.8107 97.9428 38.752 97.5588 38.752C97.0681 38.752 96.6361 38.7893 96.2628 38.864C95.9001 38.928 95.6281 38.9973 95.4468 39.072L95.2708 37.84C95.4628 37.7547 95.7828 37.6747 96.2308 37.6C96.6788 37.5147 97.1641 37.472 97.6868 37.472ZM106.43 37.504C106.558 37.504 106.702 37.5147 106.862 37.536C107.033 37.5467 107.198 37.568 107.358 37.6C107.518 37.6213 107.662 37.648 107.79 37.68C107.929 37.7013 108.03 37.7227 108.094 37.744L107.838 39.04C107.721 38.9973 107.523 38.9493 107.246 38.896C106.979 38.832 106.633 38.8 106.206 38.8C105.929 38.8 105.651 38.832 105.374 38.896C105.107 38.9493 104.931 38.9867 104.846 39.008V46H103.358V38.032C103.71 37.904 104.147 37.7867 104.67 37.68C105.193 37.5627 105.779 37.504 106.43 37.504ZM114.906 39.44C114.725 39.2907 114.463 39.1467 114.122 39.008C113.781 38.8693 113.407 38.8 113.002 38.8C112.575 38.8 112.207 38.88 111.898 39.04C111.599 39.1893 111.354 39.4027 111.162 39.68C110.97 39.9467 110.831 40.2667 110.746 40.64C110.661 41.0133 110.618 41.4133 110.618 41.84C110.618 42.8107 110.858 43.5627 111.338 44.096C111.818 44.6187 112.458 44.88 113.258 44.88C113.663 44.88 113.999 44.864 114.266 44.832C114.543 44.7893 114.757 44.7467 114.906 44.704V39.44ZM114.906 33.84L116.394 33.584V45.76C116.053 45.856 115.615 45.952 115.082 46.048C114.549 46.144 113.935 46.192 113.242 46.192C112.602 46.192 112.026 46.0907 111.514 45.888C111.002 45.6853 110.565 45.3973 110.202 45.024C109.839 44.6507 109.557 44.1973 109.354 43.664C109.162 43.12 109.066 42.512 109.066 41.84C109.066 41.2 109.146 40.6133 109.306 40.08C109.477 39.5467 109.722 39.088 110.042 38.704C110.362 38.32 110.751 38.0213 111.21 37.808C111.679 37.5947 112.213 37.488 112.81 37.488C113.29 37.488 113.711 37.552 114.074 37.68C114.447 37.808 114.725 37.9307 114.906 38.048V33.84Z" fill="white"/>
<circle cx="278" cy="47.9412" r="15" fill="#EB001B"/>
<circle cx="296" cy="47.9412" r="15" fill="#F79E1B"/>
<path fill-rule="evenodd" clip-rule="evenodd" d="M287 59.9411C291.141 57.5458 293.927 53.0688 293.927 47.9412C293.927 42.8135 291.141 38.3365 287 35.9412C282.859 38.3365 280.073 42.8135 280.073 47.9412C280.073 53.0688 282.859 57.5458 287 59.9411Z" fill="#FF5F00"/>
<defs>
<filter id="filter0_b_960_1640" x="-80" y="-80" width="495" height="345" filterUnits="userSpaceOnUse" color-interpolation-filters="sRGB">
<feFlood flood-opacity="0" result="BackgroundImageFix"/>
<feGaussianBlur in="BackgroundImageFix" stdDeviation="40"/>
<feComposite in2="SourceAlpha" operator="in" result="effect1_backgroundBlur_960_1640"/>
<feBlend mode="normal" in="SourceGraphic" in2="effect1_backgroundBlur_960_1640" result="shape"/>
</filter>
<linearGradient id="paint0_linear_960_1640" x1="-85" y1="-38.5" x2="382" y2="205.5" gradientUnits="userSpaceOnUse">
<stop offset="0.0364583"/>
<stop offset="0.878935" stop-color="#0FB8B8"/>
</linearGradient>
</defs>
</svg>
