<svg width="406" height="209" viewBox="0 0 406 209" fill="none" xmlns="http://www.w3.org/2000/svg">
<rect width="377" height="208.194" rx="22.5075" fill="url(#paint0_linear_960_1759)"/>
<g filter="url(#filter0_b_960_1759)">
<rect width="377" height="208.194" rx="22.5075" fill="white" fill-opacity="0.03"/>
</g>
<path fill-rule="evenodd" clip-rule="evenodd" d="M150.644 65.0958C166.303 101.612 181.347 136.695 250.461 134.81C313.879 133.081 354.103 139.474 377 150.528V185.687C377 198.117 366.923 208.194 354.493 208.194H22.5074C10.0769 208.194 0 198.117 0 185.687V22.5075C0 10.077 10.0769 0 22.5075 0H101.051C129.167 15.0095 140.046 40.3807 150.644 65.0958Z" fill="white" fill-opacity="0.08"/>
<path fill-rule="evenodd" clip-rule="evenodd" d="M19.3415 0.220971C8.41003 1.75985 0 11.1516 0 22.5075V185.687C0 198.117 10.0769 208.194 22.5074 208.194H354.493C363.109 208.194 370.594 203.353 374.376 196.242C383.318 164.925 349.522 138.572 231.264 141.797C165.269 143.597 150.903 110.096 135.951 75.2279C119.782 37.5195 102.926 -1.78864 19.3415 0.220971Z" fill="white" fill-opacity="0.08"/>
<path d="M33.8152 174.176V171.709H27.6212V170.377L33.059 161.608H35.2557V170.467H37.1283V171.709H35.2557V174.176H33.8152ZM28.9716 170.467H33.8152V162.778H33.7432L28.9716 170.467ZM39.336 174.176V172.862H42.9372V162.724H42.8112L39.6421 165.677L38.7598 164.723L42.0909 161.608H44.4497V172.862H47.7628V174.176H39.336ZM50.1326 174.176V172.862H53.7338V162.724H53.6077L50.4387 165.677L49.5564 164.723L52.8875 161.608H55.2463V172.862H58.5594V174.176H50.1326ZM60.9291 174.176V172.862H64.5303V162.724H64.4043L61.2352 165.677L60.3529 164.723L63.684 161.608H66.0428V172.862H69.3559V174.176H60.9291ZM83.7826 169.459V167.946H89.0044V169.459H83.7826ZM104.115 174.176V172.862H107.717V162.724H107.59L104.421 165.677L103.539 164.723L106.87 161.608H109.229V172.862H112.542V174.176H104.115ZM114.912 174.176V172.862H118.513V162.724H118.387L115.218 165.677L114.336 164.723L117.667 161.608H120.026V172.862H123.339V174.176H114.912ZM125.708 174.176V172.862H129.31V162.724H129.184L126.015 165.677L125.132 164.723L128.463 161.608H130.822V172.862H134.135V174.176H125.708ZM136.505 174.176V172.862H140.106V162.724H139.98L136.811 165.677L135.929 164.723L139.26 161.608H141.619V172.862H144.932V174.176H136.505ZM159.358 169.459V167.946H164.58V169.459H159.358ZM179.691 174.176V172.862H183.292V162.724H183.166L179.997 165.677L179.115 164.723L182.446 161.608H184.805V172.862H188.118V174.176H179.691ZM190.488 174.176V172.862H194.089V162.724H193.963L190.794 165.677L189.912 164.723L193.243 161.608H195.601V172.862H198.914V174.176H190.488ZM201.284 174.176V172.862H204.885V162.724H204.759L201.59 165.677L200.708 164.723L204.039 161.608H206.398V172.862H209.711V174.176H201.284ZM212.081 174.176V172.862H215.682V162.724H215.556L212.387 165.677L211.505 164.723L214.836 161.608H217.194V172.862H220.508V174.176H212.081ZM234.934 169.459V167.946H240.156V169.459H234.934ZM255.267 174.176V172.862H258.868V162.724H258.742L255.573 165.677L254.691 164.723L258.022 161.608H260.381V172.862H263.694V174.176H255.267ZM266.064 174.176V172.862H269.665V162.724H269.539L266.37 165.677L265.487 164.723L268.818 161.608H271.177V172.862H274.49V174.176H266.064ZM276.86 174.176V172.862H280.461V162.724H280.335L277.166 165.677L276.284 164.723L279.615 161.608H281.974V172.862H285.287V174.176H276.86ZM287.657 174.176V172.862H291.258V162.724H291.132L287.963 165.677L287.08 164.723L290.412 161.608H292.77V172.862H296.083V174.176H287.657Z" fill="white"/>
<path d="M28.6295 147.167V134.599H36.3721V135.913H30.142V140.145H36.156V141.459H30.142V145.853H36.3721V147.167H28.6295ZM45.458 145.655H45.386C44.7858 146.807 43.8315 147.383 42.5231 147.383C41.3827 147.383 40.4884 146.957 39.8402 146.105C39.204 145.253 38.8859 144.058 38.8859 142.522C38.8859 140.985 39.204 139.791 39.8402 138.938C40.4884 138.086 41.3827 137.66 42.5231 137.66C43.8315 137.66 44.7858 138.236 45.386 139.389H45.458V133.843H46.8985V147.167H45.458V145.655ZM43.0813 146.105C43.4054 146.105 43.7115 146.063 43.9996 145.979C44.2877 145.895 44.5397 145.775 44.7558 145.619C44.9719 145.451 45.1399 145.253 45.26 145.024C45.392 144.784 45.458 144.508 45.458 144.196V140.847C45.458 140.535 45.392 140.265 45.26 140.037C45.1399 139.797 44.9719 139.599 44.7558 139.443C44.5397 139.275 44.2877 139.149 43.9996 139.064C43.7115 138.98 43.4054 138.938 43.0813 138.938C42.241 138.938 41.5868 139.197 41.1186 139.713C40.6625 140.217 40.4344 140.889 40.4344 141.729V143.314C40.4344 144.154 40.6625 144.832 41.1186 145.349C41.5868 145.853 42.241 146.105 43.0813 146.105ZM64.7644 147.383C63.636 147.383 62.7117 147.179 61.9915 146.771C61.2712 146.351 60.677 145.817 60.2089 145.169L61.3072 144.268C61.7994 144.88 62.3156 145.337 62.8558 145.637C63.4079 145.937 64.0622 146.087 64.8184 146.087C65.7307 146.087 66.4269 145.877 66.9071 145.457C67.3873 145.036 67.6273 144.448 67.6273 143.692C67.6273 143.08 67.4533 142.606 67.1052 142.27C66.757 141.921 66.1508 141.675 65.2866 141.531L63.8821 141.297C63.2699 141.189 62.7537 141.027 62.3336 140.811C61.9254 140.595 61.5953 140.337 61.3433 140.037C61.0912 139.725 60.9111 139.389 60.8031 139.028C60.695 138.656 60.641 138.272 60.641 137.876C60.641 136.724 61.0191 135.853 61.7754 135.265C62.5316 134.677 63.552 134.383 64.8364 134.383C65.8447 134.383 66.691 134.551 67.3753 134.887C68.0715 135.223 68.6297 135.697 69.0498 136.31L67.9875 137.228C67.6393 136.772 67.2192 136.4 66.727 136.112C66.2349 135.823 65.5987 135.679 64.8184 135.679C63.9661 135.679 63.3119 135.859 62.8558 136.22C62.3996 136.58 62.1715 137.12 62.1715 137.84C62.1715 138.404 62.3396 138.866 62.6757 139.227C63.0238 139.575 63.642 139.827 64.5303 139.983L65.8808 140.217C66.493 140.325 67.0091 140.487 67.4293 140.703C67.8494 140.919 68.1855 141.177 68.4376 141.477C68.7017 141.777 68.8878 142.113 68.9958 142.486C69.1038 142.858 69.1578 143.248 69.1578 143.656C69.1578 144.82 68.7737 145.733 68.0055 146.393C67.2492 147.053 66.1689 147.383 64.7644 147.383ZM71.9597 133.843H73.4002V139.389H73.4722C73.5683 139.161 73.6883 138.944 73.8324 138.74C73.9764 138.524 74.1505 138.338 74.3545 138.182C74.5706 138.026 74.8227 137.9 75.1108 137.804C75.3989 137.708 75.735 137.66 76.1191 137.66C77.0914 137.66 77.8717 137.972 78.4599 138.596C79.0481 139.209 79.3422 140.079 79.3422 141.207V147.167H77.9017V141.459C77.9017 140.607 77.7156 139.977 77.3435 139.569C76.9714 139.149 76.4252 138.938 75.705 138.938C75.4169 138.938 75.1348 138.974 74.8587 139.046C74.5826 139.119 74.3365 139.227 74.1205 139.371C73.9044 139.515 73.7303 139.701 73.5983 139.929C73.4662 140.157 73.4002 140.421 73.4002 140.721V147.167H71.9597V133.843ZM86.5555 147.383C85.8833 147.383 85.2771 147.269 84.7369 147.041C84.2088 146.813 83.7526 146.489 83.3685 146.069C82.9964 145.637 82.7083 145.126 82.5042 144.538C82.3001 143.938 82.1981 143.272 82.1981 142.54C82.1981 141.795 82.3001 141.123 82.5042 140.523C82.7203 139.923 83.0144 139.413 83.3865 138.992C83.7586 138.56 84.2028 138.23 84.7189 138.002C85.2471 137.774 85.8293 137.66 86.4655 137.66C87.0897 137.66 87.6539 137.774 88.1581 138.002C88.6742 138.23 89.1124 138.548 89.4725 138.956C89.8326 139.353 90.1087 139.827 90.3008 140.379C90.4929 140.931 90.5889 141.537 90.5889 142.198V142.882H83.7106V143.314C83.7106 143.722 83.7766 144.1 83.9087 144.448C84.0407 144.796 84.2268 145.096 84.4669 145.349C84.7189 145.601 85.019 145.799 85.3672 145.943C85.7273 146.075 86.1234 146.141 86.5555 146.141C87.1798 146.141 87.7199 145.997 88.1761 145.709C88.6322 145.421 88.9803 145.024 89.2204 144.52L90.2828 145.241C90.0067 145.865 89.5445 146.381 88.8963 146.789C88.2601 147.185 87.4799 147.383 86.5555 147.383ZM86.4655 138.848C86.0694 138.848 85.7033 138.92 85.3672 139.064C85.031 139.209 84.7369 139.407 84.4849 139.659C84.2448 139.911 84.0527 140.211 83.9087 140.559C83.7766 140.895 83.7106 141.267 83.7106 141.675V141.801H89.0404V141.603C89.0404 141.195 88.9743 140.823 88.8423 140.487C88.7223 140.151 88.5482 139.863 88.3201 139.623C88.1041 139.371 87.834 139.179 87.5099 139.046C87.1978 138.914 86.8496 138.848 86.4655 138.848ZM97.3521 147.383C96.6799 147.383 96.0737 147.269 95.5335 147.041C95.0053 146.813 94.5492 146.489 94.165 146.069C93.7929 145.637 93.5048 145.126 93.3008 144.538C93.0967 143.938 92.9947 143.272 92.9947 142.54C92.9947 141.795 93.0967 141.123 93.3008 140.523C93.5168 139.923 93.8109 139.413 94.183 138.992C94.5552 138.56 94.9993 138.23 95.5155 138.002C96.0437 137.774 96.6259 137.66 97.2621 137.66C97.8863 137.66 98.4505 137.774 98.9546 138.002C99.4708 138.23 99.9089 138.548 100.269 138.956C100.629 139.353 100.905 139.827 101.097 140.379C101.289 140.931 101.385 141.537 101.385 142.198V142.882H94.5072V143.314C94.5072 143.722 94.5732 144.1 94.7052 144.448C94.8373 144.796 95.0233 145.096 95.2634 145.349C95.5155 145.601 95.8156 145.799 96.1637 145.943C96.5238 146.075 96.92 146.141 97.3521 146.141C97.9763 146.141 98.5165 145.997 98.9726 145.709C99.4288 145.421 99.7769 145.024 100.017 144.52L101.079 145.241C100.803 145.865 100.341 146.381 99.6929 146.789C99.0567 147.185 98.2764 147.383 97.3521 147.383ZM97.2621 138.848C96.8659 138.848 96.4998 138.92 96.1637 139.064C95.8276 139.209 95.5335 139.407 95.2814 139.659C95.0413 139.911 94.8493 140.211 94.7052 140.559C94.5732 140.895 94.5072 141.267 94.5072 141.675V141.801H99.8369V141.603C99.8369 141.195 99.7709 140.823 99.6389 140.487C99.5188 140.151 99.3448 139.863 99.1167 139.623C98.9006 139.371 98.6305 139.179 98.3064 139.046C97.9943 138.914 97.6462 138.848 97.2621 138.848ZM103.971 145.943H106.69V139.101H103.971V137.876H108.131V140.217H108.221C108.413 139.485 108.773 138.914 109.301 138.506C109.841 138.086 110.525 137.876 111.354 137.876H112.65V139.317H110.904C110.075 139.317 109.403 139.557 108.887 140.037C108.383 140.517 108.131 141.147 108.131 141.927V145.943H111.732V147.167H103.971V145.943ZM122.294 147.167C121.73 147.167 121.328 147.023 121.088 146.735C120.848 146.447 120.698 146.087 120.638 145.655H120.548C120.344 146.195 120.014 146.621 119.557 146.933C119.113 147.233 118.513 147.383 117.757 147.383C116.784 147.383 116.01 147.131 115.434 146.627C114.858 146.123 114.57 145.433 114.57 144.556C114.57 143.692 114.882 143.026 115.506 142.558C116.142 142.089 117.163 141.855 118.567 141.855H120.548V140.937C120.548 140.253 120.356 139.743 119.972 139.407C119.587 139.058 119.041 138.884 118.333 138.884C117.709 138.884 117.199 139.01 116.802 139.263C116.406 139.503 116.088 139.833 115.848 140.253L114.876 139.533C114.996 139.293 115.158 139.058 115.362 138.83C115.566 138.602 115.818 138.404 116.118 138.236C116.418 138.056 116.76 137.918 117.145 137.822C117.529 137.714 117.955 137.66 118.423 137.66C119.515 137.66 120.38 137.936 121.016 138.488C121.664 139.04 121.988 139.809 121.988 140.793V145.907H123.285V147.167H122.294ZM118.009 146.177C118.381 146.177 118.717 146.135 119.017 146.051C119.329 145.955 119.599 145.835 119.827 145.691C120.056 145.535 120.23 145.355 120.35 145.151C120.482 144.934 120.548 144.706 120.548 144.466V142.936H118.567C117.703 142.936 117.073 143.056 116.676 143.296C116.28 143.536 116.082 143.884 116.082 144.34V144.718C116.082 145.199 116.25 145.565 116.586 145.817C116.935 146.057 117.409 146.177 118.009 146.177ZM125.942 147.167V137.876H127.383V139.389H127.455C127.551 139.161 127.671 138.944 127.815 138.74C127.959 138.524 128.133 138.338 128.337 138.182C128.553 138.026 128.805 137.9 129.094 137.804C129.382 137.708 129.718 137.66 130.102 137.66C131.074 137.66 131.854 137.972 132.443 138.596C133.031 139.209 133.325 140.079 133.325 141.207V147.167H131.884V141.459C131.884 140.607 131.698 139.977 131.326 139.569C130.954 139.149 130.408 138.938 129.688 138.938C129.4 138.938 129.118 138.974 128.841 139.046C128.565 139.119 128.319 139.227 128.103 139.371C127.887 139.515 127.713 139.701 127.581 139.929C127.449 140.157 127.383 140.421 127.383 140.721V147.167H125.942Z" fill="white"/>
<path opacity="0.9" d="M31.4564 50.2681C33.281 50.2681 34.1933 49.6439 34.1933 48.3955C34.1933 48.0113 34.1093 47.6872 33.9413 47.4231C33.7852 47.1471 33.5691 46.913 33.293 46.7209C33.0169 46.5168 32.6988 46.3428 32.3387 46.1987C31.9906 46.0547 31.6185 45.9106 31.2224 45.7666C30.7662 45.6105 30.3341 45.4365 29.9259 45.2444C29.5178 45.0404 29.1637 44.8063 28.8636 44.5422C28.5635 44.2661 28.3234 43.942 28.1433 43.5699C27.9753 43.1977 27.8912 42.7476 27.8912 42.2194C27.8912 41.1271 28.2634 40.2748 29.0076 39.6626C29.7519 39.0504 30.7782 38.7443 32.0866 38.7443C32.8429 38.7443 33.5271 38.8283 34.1393 38.9963C34.7635 39.1524 35.2197 39.3265 35.5078 39.5185L34.9496 40.941C34.6975 40.7849 34.3194 40.6349 33.8152 40.4908C33.3231 40.3348 32.7469 40.2568 32.0866 40.2568C31.7505 40.2568 31.4384 40.2928 31.1503 40.3648C30.8622 40.4368 30.6102 40.5449 30.3941 40.6889C30.178 40.833 30.0039 41.019 29.8719 41.2471C29.7519 41.4632 29.6918 41.7213 29.6918 42.0214C29.6918 42.3575 29.7579 42.6396 29.8899 42.8676C30.022 43.0957 30.208 43.2998 30.4481 43.4798C30.6882 43.6479 30.9643 43.8039 31.2764 43.948C31.6005 44.092 31.9546 44.2361 32.3387 44.3801C32.8789 44.5962 33.3711 44.8123 33.8152 45.0283C34.2714 45.2444 34.6615 45.5025 34.9856 45.8026C35.3217 46.1027 35.5798 46.4628 35.7599 46.883C35.9399 47.2911 36.0299 47.7893 36.0299 48.3775C36.0299 49.4698 35.6278 50.3101 34.8235 50.8983C34.0313 51.4865 32.9089 51.7806 31.4564 51.7806C30.9643 51.7806 30.5081 51.7446 30.088 51.6726C29.6798 51.6125 29.3137 51.5405 28.9896 51.4565C28.6655 51.3604 28.3834 51.2644 28.1433 51.1684C27.9153 51.0603 27.7352 50.9703 27.6032 50.8983L28.1253 49.4578C28.4014 49.6139 28.8216 49.7879 29.3857 49.98C29.9499 50.1721 30.6402 50.2681 31.4564 50.2681ZM39.5992 42.1474H43.1464V43.5519H39.5992V47.8733C39.5992 48.3414 39.6352 48.7316 39.7072 49.0437C39.7793 49.3438 39.8873 49.5839 40.0314 49.7639C40.1754 49.932 40.3555 50.052 40.5715 50.124C40.7876 50.1961 41.0397 50.2321 41.3278 50.2321C41.832 50.2321 42.2341 50.1781 42.5342 50.07C42.8463 49.95 43.0624 49.866 43.1824 49.8179L43.5065 51.2044C43.3384 51.2884 43.0444 51.3905 42.6242 51.5105C42.2041 51.6425 41.7239 51.7086 41.1837 51.7086C40.5475 51.7086 40.0193 51.6305 39.5992 51.4745C39.1911 51.3064 38.861 51.0603 38.6089 50.7362C38.3568 50.4121 38.1767 50.016 38.0687 49.5478C37.9727 49.0677 37.9247 48.5155 37.9247 47.8913V39.5365L39.5992 39.2484V42.1474ZM48.4463 50.3041C48.8425 50.3041 49.1906 50.2981 49.4907 50.2861C49.8028 50.2621 50.0609 50.2261 50.2649 50.1781V47.3871C50.1449 47.3271 49.9468 47.2791 49.6707 47.2431C49.4066 47.1951 49.0825 47.1711 48.6984 47.1711C48.4463 47.1711 48.1762 47.1891 47.8881 47.2251C47.6121 47.2611 47.354 47.3391 47.1139 47.4592C46.8858 47.5672 46.6937 47.7232 46.5377 47.9273C46.3816 48.1194 46.3036 48.3775 46.3036 48.7016C46.3036 49.3018 46.4957 49.7219 46.8798 49.962C47.2639 50.1901 47.7861 50.3041 48.4463 50.3041ZM48.3023 41.9133C48.9745 41.9133 49.5387 42.0033 49.9948 42.1834C50.463 42.3515 50.8351 42.5975 51.1112 42.9216C51.3993 43.2338 51.6034 43.6119 51.7234 44.056C51.8435 44.4882 51.9035 44.9683 51.9035 45.4965V51.3484C51.7594 51.3725 51.5554 51.4085 51.2913 51.4565C51.0392 51.4925 50.7511 51.5285 50.427 51.5645C50.1029 51.6005 49.7488 51.6305 49.3646 51.6545C48.9925 51.6906 48.6204 51.7086 48.2483 51.7086C47.7201 51.7086 47.2339 51.6545 46.7898 51.5465C46.3456 51.4385 45.9615 51.2704 45.6374 51.0423C45.3133 50.8023 45.0612 50.4902 44.8811 50.106C44.7011 49.7219 44.6111 49.2598 44.6111 48.7196C44.6111 48.2034 44.7131 47.7593 44.9172 47.3871C45.1332 47.015 45.4213 46.7149 45.7814 46.4868C46.1416 46.2588 46.5617 46.0907 47.0419 45.9827C47.522 45.8746 48.0262 45.8206 48.5544 45.8206C48.7224 45.8206 48.8965 45.8326 49.0765 45.8566C49.2566 45.8686 49.4247 45.8926 49.5807 45.9286C49.7488 45.9527 49.8928 45.9767 50.0128 46.0007C50.1329 46.0247 50.2169 46.0427 50.2649 46.0547V45.5865C50.2649 45.3104 50.2349 45.0404 50.1749 44.7763C50.1149 44.5002 50.0068 44.2601 49.8508 44.056C49.6947 43.84 49.4787 43.6719 49.2026 43.5519C48.9385 43.4198 48.5904 43.3538 48.1582 43.3538C47.6061 43.3538 47.1199 43.3958 46.6998 43.4798C46.2916 43.5519 45.9855 43.6299 45.7814 43.7139L45.5834 42.3275C45.7995 42.2314 46.1596 42.1414 46.6637 42.0574C47.1679 41.9613 47.7141 41.9133 48.3023 41.9133ZM54.6847 42.4175C55.0688 42.3215 55.579 42.2194 56.2152 42.1114C56.8514 42.0033 57.5837 41.9493 58.4119 41.9493C59.1562 41.9493 59.7744 42.0574 60.2665 42.2734C60.7587 42.4775 61.1488 42.7716 61.4369 43.1557C61.737 43.5279 61.9471 43.978 62.0671 44.5062C62.1872 45.0344 62.2472 45.6165 62.2472 46.2528V51.5105H60.5726V46.6129C60.5726 46.0367 60.5306 45.5445 60.4466 45.1364C60.3746 44.7282 60.2485 44.3981 60.0685 44.1461C59.8884 43.894 59.6483 43.7139 59.3482 43.6059C59.0481 43.4858 58.676 43.4258 58.2319 43.4258C58.0518 43.4258 57.8658 43.4318 57.6737 43.4438C57.4816 43.4558 57.2956 43.4738 57.1155 43.4978C56.9474 43.5098 56.7914 43.5279 56.6473 43.5519C56.5153 43.5759 56.4193 43.5939 56.3593 43.6059V51.5105H54.6847V42.4175ZM71.0741 44.128C70.87 43.96 70.5759 43.7979 70.1918 43.6419C69.8076 43.4858 69.3875 43.4078 68.9314 43.4078C68.4512 43.4078 68.0371 43.4978 67.6889 43.6779C67.3528 43.846 67.0767 44.086 66.8607 44.3981C66.6446 44.6982 66.4885 45.0584 66.3925 45.4785C66.2965 45.8986 66.2485 46.3488 66.2485 46.8289C66.2485 47.9213 66.5186 48.7676 67.0587 49.3678C67.5989 49.956 68.3192 50.2501 69.2195 50.2501C69.6756 50.2501 70.0537 50.2321 70.3538 50.1961C70.6659 50.148 70.906 50.1 71.0741 50.052V44.128ZM71.0741 37.826L72.7486 37.5379V51.2404C72.3645 51.3484 71.8723 51.4565 71.2721 51.5645C70.6719 51.6726 69.9817 51.7266 69.2014 51.7266C68.4812 51.7266 67.833 51.6125 67.2568 51.3845C66.6806 51.1564 66.1884 50.8323 65.7803 50.4121C65.3722 49.992 65.0541 49.4818 64.826 48.8816C64.6099 48.2694 64.5019 47.5852 64.5019 46.8289C64.5019 46.1087 64.5919 45.4485 64.772 44.8483C64.964 44.2481 65.2401 43.7319 65.6003 43.2998C65.9604 42.8676 66.3985 42.5315 66.9147 42.2914C67.4429 42.0514 68.0431 41.9313 68.7153 41.9313C69.2555 41.9313 69.7296 42.0033 70.1378 42.1474C70.5579 42.2914 70.87 42.4295 71.0741 42.5615V37.826ZM78.7962 50.3041C79.1924 50.3041 79.5405 50.2981 79.8406 50.2861C80.1527 50.2621 80.4108 50.2261 80.6148 50.1781V47.3871C80.4948 47.3271 80.2967 47.2791 80.0206 47.2431C79.7566 47.1951 79.4324 47.1711 79.0483 47.1711C78.7962 47.1711 78.5261 47.1891 78.2381 47.2251C77.962 47.2611 77.7039 47.3391 77.4638 47.4592C77.2357 47.5672 77.0437 47.7232 76.8876 47.9273C76.7316 48.1194 76.6535 48.3775 76.6535 48.7016C76.6535 49.3018 76.8456 49.7219 77.2297 49.962C77.6138 50.1901 78.136 50.3041 78.7962 50.3041ZM78.6522 41.9133C79.3244 41.9133 79.8886 42.0033 80.3448 42.1834C80.8129 42.3515 81.185 42.5975 81.4611 42.9216C81.7492 43.2338 81.9533 43.6119 82.0733 44.056C82.1934 44.4882 82.2534 44.9683 82.2534 45.4965V51.3484C82.1093 51.3725 81.9053 51.4085 81.6412 51.4565C81.3891 51.4925 81.101 51.5285 80.7769 51.5645C80.4528 51.6005 80.0987 51.6305 79.7145 51.6545C79.3424 51.6906 78.9703 51.7086 78.5982 51.7086C78.07 51.7086 77.5838 51.6545 77.1397 51.5465C76.6955 51.4385 76.3114 51.2704 75.9873 51.0423C75.6632 50.8023 75.4111 50.4902 75.2311 50.106C75.051 49.7219 74.961 49.2598 74.961 48.7196C74.961 48.2034 75.063 47.7593 75.2671 47.3871C75.4831 47.015 75.7712 46.7149 76.1314 46.4868C76.4915 46.2588 76.9116 46.0907 77.3918 45.9827C77.8719 45.8746 78.3761 45.8206 78.9043 45.8206C79.0723 45.8206 79.2464 45.8326 79.4264 45.8566C79.6065 45.8686 79.7746 45.8926 79.9306 45.9286C80.0987 45.9527 80.2427 45.9767 80.3628 46.0007C80.4828 46.0247 80.5668 46.0427 80.6148 46.0547V45.5865C80.6148 45.3104 80.5848 45.0404 80.5248 44.7763C80.4648 44.5002 80.3568 44.2601 80.2007 44.056C80.0447 43.84 79.8286 43.6719 79.5525 43.5519C79.2884 43.4198 78.9403 43.3538 78.5081 43.3538C77.956 43.3538 77.4698 43.3958 77.0497 43.4798C76.6415 43.5519 76.3354 43.6299 76.1314 43.7139L75.9333 42.3275C76.1494 42.2314 76.5095 42.1414 77.0136 42.0574C77.5178 41.9613 78.064 41.9133 78.6522 41.9133ZM88.4917 41.9493C88.6358 41.9493 88.7978 41.9613 88.9779 41.9853C89.17 41.9973 89.356 42.0214 89.5361 42.0574C89.7162 42.0814 89.8782 42.1114 90.0223 42.1474C90.1783 42.1714 90.2923 42.1954 90.3644 42.2194L90.0763 43.6779C89.9442 43.6299 89.7222 43.5759 89.4101 43.5158C89.11 43.4438 88.7198 43.4078 88.2397 43.4078C87.9276 43.4078 87.6155 43.4438 87.3034 43.5158C87.0033 43.5759 86.8052 43.6179 86.7092 43.6419V51.5105H85.0346V42.5435C85.4307 42.3995 85.9229 42.2674 86.5111 42.1474C87.0993 42.0153 87.7595 41.9493 88.4917 41.9493ZM98.0303 44.128C97.8262 43.96 97.5321 43.7979 97.148 43.6419C96.7639 43.4858 96.3437 43.4078 95.8876 43.4078C95.4074 43.4078 94.9933 43.4978 94.6451 43.6779C94.309 43.846 94.0329 44.086 93.8169 44.3981C93.6008 44.6982 93.4448 45.0584 93.3487 45.4785C93.2527 45.8986 93.2047 46.3488 93.2047 46.8289C93.2047 47.9213 93.4748 48.7676 94.0149 49.3678C94.5551 49.956 95.2754 50.2501 96.1757 50.2501C96.6318 50.2501 97.0099 50.2321 97.31 50.1961C97.6221 50.148 97.8622 50.1 98.0303 50.052V44.128ZM98.0303 37.826L99.7048 37.5379V51.2404C99.3207 51.3484 98.8285 51.4565 98.2283 51.5645C97.6281 51.6726 96.9379 51.7266 96.1577 51.7266C95.4374 51.7266 94.7892 51.6125 94.213 51.3845C93.6368 51.1564 93.1447 50.8323 92.7365 50.4121C92.3284 49.992 92.0103 49.4818 91.7822 48.8816C91.5661 48.2694 91.4581 47.5852 91.4581 46.8289C91.4581 46.1087 91.5481 45.4485 91.7282 44.8483C91.9202 44.2481 92.1963 43.7319 92.5565 43.2998C92.9166 42.8676 93.3547 42.5315 93.8709 42.2914C94.3991 42.0514 94.9993 41.9313 95.6715 41.9313C96.2117 41.9313 96.6858 42.0033 97.094 42.1474C97.5141 42.2914 97.8262 42.4295 98.0303 42.5615V37.826ZM112.225 51.7806C111.348 51.7806 110.55 51.6365 109.83 51.3484C109.11 51.0603 108.491 50.6402 107.975 50.088C107.459 49.5358 107.057 48.8576 106.769 48.0534C106.493 47.2371 106.355 46.3068 106.355 45.2624C106.355 44.2181 106.511 43.2938 106.823 42.4895C107.147 41.6732 107.579 40.989 108.119 40.4368C108.659 39.8846 109.29 39.4645 110.01 39.1764C110.73 38.8883 111.498 38.7443 112.315 38.7443C112.831 38.7443 113.293 38.7803 113.701 38.8523C114.121 38.9243 114.481 39.0084 114.781 39.1044C115.094 39.2004 115.346 39.2964 115.538 39.3925C115.73 39.4885 115.862 39.5605 115.934 39.6086L115.43 41.049C115.322 40.977 115.166 40.899 114.962 40.815C114.757 40.7309 114.523 40.6469 114.259 40.5629C114.007 40.4788 113.725 40.4128 113.413 40.3648C113.113 40.3048 112.807 40.2748 112.495 40.2748C111.834 40.2748 111.24 40.3888 110.712 40.6169C110.184 40.845 109.734 41.1751 109.362 41.6072C108.99 42.0394 108.701 42.5675 108.497 43.1917C108.305 43.8039 108.209 44.4942 108.209 45.2624C108.209 46.0067 108.293 46.6849 108.461 47.2971C108.641 47.9093 108.906 48.4375 109.254 48.8816C109.602 49.3138 110.034 49.6499 110.55 49.89C111.078 50.13 111.69 50.2501 112.387 50.2501C113.191 50.2501 113.857 50.1661 114.385 49.998C114.913 49.8299 115.31 49.6799 115.574 49.5478L116.024 50.9883C115.94 51.0483 115.79 51.1264 115.574 51.2224C115.358 51.3064 115.088 51.3905 114.763 51.4745C114.439 51.5585 114.061 51.6305 113.629 51.6906C113.197 51.7506 112.729 51.7806 112.225 51.7806ZM121.086 50.3041C121.482 50.3041 121.83 50.2981 122.13 50.2861C122.442 50.2621 122.7 50.2261 122.904 50.1781V47.3871C122.784 47.3271 122.586 47.2791 122.31 47.2431C122.046 47.1951 121.722 47.1711 121.338 47.1711C121.086 47.1711 120.816 47.1891 120.527 47.2251C120.251 47.2611 119.993 47.3391 119.753 47.4592C119.525 47.5672 119.333 47.7232 119.177 47.9273C119.021 48.1194 118.943 48.3775 118.943 48.7016C118.943 49.3018 119.135 49.7219 119.519 49.962C119.903 50.1901 120.425 50.3041 121.086 50.3041ZM120.942 41.9133C121.614 41.9133 122.178 42.0033 122.634 42.1834C123.102 42.3515 123.474 42.5975 123.751 42.9216C124.039 43.2338 124.243 43.6119 124.363 44.056C124.483 44.4882 124.543 44.9683 124.543 45.4965V51.3484C124.399 51.3725 124.195 51.4085 123.931 51.4565C123.679 51.4925 123.39 51.5285 123.066 51.5645C122.742 51.6005 122.388 51.6305 122.004 51.6545C121.632 51.6906 121.26 51.7086 120.888 51.7086C120.359 51.7086 119.873 51.6545 119.429 51.5465C118.985 51.4385 118.601 51.2704 118.277 51.0423C117.953 50.8023 117.701 50.4902 117.52 50.106C117.34 49.7219 117.25 49.2598 117.25 48.7196C117.25 48.2034 117.352 47.7593 117.556 47.3871C117.773 47.015 118.061 46.7149 118.421 46.4868C118.781 46.2588 119.201 46.0907 119.681 45.9827C120.161 45.8746 120.666 45.8206 121.194 45.8206C121.362 45.8206 121.536 45.8326 121.716 45.8566C121.896 45.8686 122.064 45.8926 122.22 45.9286C122.388 45.9527 122.532 45.9767 122.652 46.0007C122.772 46.0247 122.856 46.0427 122.904 46.0547V45.5865C122.904 45.3104 122.874 45.0404 122.814 44.7763C122.754 44.5002 122.646 44.2601 122.49 44.056C122.334 43.84 122.118 43.6719 121.842 43.5519C121.578 43.4198 121.23 43.3538 120.798 43.3538C120.245 43.3538 119.759 43.3958 119.339 43.4798C118.931 43.5519 118.625 43.6299 118.421 43.7139L118.223 42.3275C118.439 42.2314 118.799 42.1414 119.303 42.0574C119.807 41.9613 120.353 41.9133 120.942 41.9133ZM130.781 41.9493C130.925 41.9493 131.087 41.9613 131.267 41.9853C131.459 41.9973 131.645 42.0214 131.826 42.0574C132.006 42.0814 132.168 42.1114 132.312 42.1474C132.468 42.1714 132.582 42.1954 132.654 42.2194L132.366 43.6779C132.234 43.6299 132.012 43.5759 131.699 43.5158C131.399 43.4438 131.009 43.4078 130.529 43.4078C130.217 43.4078 129.905 43.4438 129.593 43.5158C129.293 43.5759 129.095 43.6179 128.999 43.6419V51.5105H127.324V42.5435C127.72 42.3995 128.212 42.2674 128.801 42.1474C129.389 42.0153 130.049 41.9493 130.781 41.9493ZM140.32 44.128C140.116 43.96 139.822 43.7979 139.437 43.6419C139.053 43.4858 138.633 43.4078 138.177 43.4078C137.697 43.4078 137.283 43.4978 136.935 43.6779C136.598 43.846 136.322 44.086 136.106 44.3981C135.89 44.6982 135.734 45.0584 135.638 45.4785C135.542 45.8986 135.494 46.3488 135.494 46.8289C135.494 47.9213 135.764 48.7676 136.304 49.3678C136.845 49.956 137.565 50.2501 138.465 50.2501C138.921 50.2501 139.299 50.2321 139.599 50.1961C139.912 50.148 140.152 50.1 140.32 50.052V44.128ZM140.32 37.826L141.994 37.5379V51.2404C141.61 51.3484 141.118 51.4565 140.518 51.5645C139.918 51.6726 139.227 51.7266 138.447 51.7266C137.727 51.7266 137.079 51.6125 136.502 51.3845C135.926 51.1564 135.434 50.8323 135.026 50.4121C134.618 49.992 134.3 49.4818 134.072 48.8816C133.856 48.2694 133.748 47.5852 133.748 46.8289C133.748 46.1087 133.838 45.4485 134.018 44.8483C134.21 44.2481 134.486 43.7319 134.846 43.2998C135.206 42.8676 135.644 42.5315 136.16 42.2914C136.688 42.0514 137.289 41.9313 137.961 41.9313C138.501 41.9313 138.975 42.0033 139.383 42.1474C139.804 42.2914 140.116 42.4295 140.32 42.5615V37.826Z" fill="white"/>
<g clip-path="url(#clip0_960_1759)">
<path d="M316.482 32.1002L309.41 48.9718H304.796L301.316 35.5056C301.105 34.6773 300.923 34.3735 300.279 34.0246C299.23 33.4552 297.497 32.9217 295.973 32.5886L296.077 32.1002H303.504C303.99 32.0997 304.459 32.2728 304.828 32.5881C305.197 32.9034 305.441 33.3403 305.516 33.8198L307.355 43.5835L311.897 32.1002H316.482ZM334.562 43.4642C334.58 39.01 328.404 38.7647 328.447 36.775C328.46 36.1696 329.037 35.5259 330.297 35.3615C331.774 35.2213 333.262 35.4825 334.603 36.1178L335.368 32.5391C334.062 32.0483 332.68 31.7945 331.285 31.7896C326.97 31.7896 323.934 34.0854 323.907 37.3692C323.88 39.7978 326.075 41.1505 327.729 41.9607C329.43 42.7868 330.002 43.3179 329.993 44.0562C329.982 45.1906 328.638 45.688 327.382 45.7082C325.188 45.742 323.916 45.1163 322.899 44.6436L322.109 48.3393C323.128 48.8075 325.01 49.2171 326.961 49.2351C331.546 49.2351 334.546 46.9709 334.562 43.4642ZM345.953 48.9718H349.991L346.469 32.1002H342.741C342.343 32.0965 341.953 32.2126 341.621 32.4333C341.29 32.654 341.032 32.9693 340.882 33.3381L334.335 48.9718H338.917L339.829 46.451H345.429L345.953 48.9718ZM341.085 42.9938L343.381 36.658L344.704 42.9938H341.085ZM322.719 32.1002L319.111 48.9718H314.744L318.357 32.1002H322.719Z" fill="white"/>
</g>
<defs>
<filter id="filter0_b_960_1759" x="-90.0298" y="-90.0298" width="557.06" height="388.254" filterUnits="userSpaceOnUse" color-interpolation-filters="sRGB">
<feFlood flood-opacity="0" result="BackgroundImageFix"/>
<feGaussianBlur in="BackgroundImageFix" stdDeviation="45.0149"/>
<feComposite in2="SourceAlpha" operator="in" result="effect1_backgroundBlur_960_1759"/>
<feBlend mode="normal" in="SourceGraphic" in2="effect1_backgroundBlur_960_1759" result="shape"/>
</filter>
<linearGradient id="paint0_linear_960_1759" x1="-54.0179" y1="-22.5075" x2="429.893" y2="231.264" gradientUnits="userSpaceOnUse">
<stop offset="0.122247" stop-color="#52B6FE"/>
<stop offset="0.878935" stop-color="#6154FE"/>
</linearGradient>
<clipPath id="clip0_960_1759">
<rect width="54.0179" height="54.0179" fill="white" transform="translate(295.973 13.5045)"/>
</clipPath>
</defs>
</svg>
