<svg width="335" height="185" viewBox="0 0 335 185" fill="none" xmlns="http://www.w3.org/2000/svg">
<rect width="335" height="185" rx="20" fill="url(#paint0_linear_960_1662)"/>
<g filter="url(#filter0_b_960_1662)">
<rect width="335" height="185" rx="20" fill="white" fill-opacity="0.03"/>
</g>
<path fill-rule="evenodd" clip-rule="evenodd" d="M236.139 0H218.081L109.367 185H315C326.046 185 335 176.046 335 165V81.1594L236.139 0Z" fill="white" fill-opacity="0.08"/>
<path fill-rule="evenodd" clip-rule="evenodd" d="M321.476 183.928C319.445 184.623 317.267 185 315 185H20C14.1358 185 8.86113 182.476 5.20285 178.455L105.957 7L321.476 183.928Z" fill="white" fill-opacity="0.08"/>
<path fill-rule="evenodd" clip-rule="evenodd" d="M159.041 185H20C8.95431 185 0 176.046 0 165V118.96L18.9575 70L159.041 185Z" fill="white" fill-opacity="0.08"/>
<path d="M28.816 155.192C28.2293 155.192 27.7013 155.096 27.232 154.904C26.7627 154.701 26.3627 154.419 26.032 154.056C25.712 153.683 25.4613 153.229 25.28 152.696C25.1093 152.163 25.024 151.565 25.024 150.904C25.024 150.072 25.1467 149.293 25.392 148.568C25.648 147.832 25.968 147.165 26.352 146.568C26.7467 145.96 27.184 145.427 27.664 144.968C28.144 144.499 28.6133 144.12 29.072 143.832H30.8C30.192 144.269 29.648 144.696 29.168 145.112C28.6987 145.528 28.2827 145.965 27.92 146.424C27.5573 146.872 27.2533 147.357 27.008 147.88C26.7627 148.392 26.56 148.973 26.4 149.624L26.48 149.656C26.7467 149.197 27.0987 148.819 27.536 148.52C27.9733 148.211 28.5387 148.056 29.232 148.056C29.7227 148.056 30.1707 148.136 30.576 148.296C30.9813 148.456 31.3333 148.685 31.632 148.984C31.9307 149.283 32.16 149.645 32.32 150.072C32.4907 150.499 32.576 150.973 32.576 151.496C32.576 152.04 32.4853 152.541 32.304 153C32.1227 153.448 31.8667 153.837 31.536 154.168C31.216 154.488 30.8213 154.739 30.352 154.92C29.8933 155.101 29.3813 155.192 28.816 155.192ZM28.8 154.056C29.568 154.056 30.16 153.848 30.576 153.432C31.0027 153.016 31.216 152.429 31.216 151.672V151.544C31.216 150.787 31.0027 150.2 30.576 149.784C30.16 149.368 29.568 149.16 28.8 149.16C28.032 149.16 27.4347 149.368 27.008 149.784C26.592 150.2 26.384 150.787 26.384 151.544V151.672C26.384 152.429 26.592 153.016 27.008 153.432C27.4347 153.848 28.032 154.056 28.8 154.056ZM38.3938 155.192C37.7111 155.192 37.1244 155.064 36.6338 154.808C36.1431 154.541 35.7378 154.163 35.4178 153.672C35.0978 153.181 34.8631 152.579 34.7138 151.864C34.5644 151.149 34.4898 150.333 34.4898 149.416C34.4898 148.509 34.5644 147.699 34.7138 146.984C34.8631 146.259 35.0978 145.651 35.4178 145.16C35.7378 144.669 36.1431 144.296 36.6338 144.04C37.1244 143.773 37.7111 143.64 38.3938 143.64C39.0764 143.64 39.6631 143.773 40.1538 144.04C40.6444 144.296 41.0498 144.669 41.3698 145.16C41.6898 145.651 41.9244 146.259 42.0738 146.984C42.2231 147.699 42.2978 148.509 42.2978 149.416C42.2978 150.333 42.2231 151.149 42.0738 151.864C41.9244 152.579 41.6898 153.181 41.3698 153.672C41.0498 154.163 40.6444 154.541 40.1538 154.808C39.6631 155.064 39.0764 155.192 38.3938 155.192ZM38.3938 154.024C38.8418 154.024 39.2258 153.939 39.5458 153.768C39.8658 153.587 40.1218 153.336 40.3138 153.016C40.5164 152.696 40.6658 152.312 40.7618 151.864C40.8578 151.405 40.9058 150.893 40.9058 150.328V148.504C40.9058 147.949 40.8578 147.443 40.7618 146.984C40.6658 146.525 40.5164 146.136 40.3138 145.816C40.1218 145.496 39.8658 145.251 39.5458 145.08C39.2258 144.899 38.8418 144.808 38.3938 144.808C37.9458 144.808 37.5618 144.899 37.2418 145.08C36.9218 145.251 36.6604 145.496 36.4578 145.816C36.2658 146.136 36.1218 146.525 36.0258 146.984C35.9298 147.443 35.8818 147.949 35.8818 148.504V150.328C35.8818 150.893 35.9298 151.405 36.0258 151.864C36.1218 152.312 36.2658 152.696 36.4578 153.016C36.6604 153.336 36.9218 153.587 37.2418 153.768C37.5618 153.939 37.9458 154.024 38.3938 154.024ZM38.3938 150.36C38.0204 150.36 37.7591 150.285 37.6098 150.136C37.4711 149.987 37.4018 149.805 37.4018 149.592V149.24C37.4018 149.027 37.4711 148.845 37.6098 148.696C37.7591 148.547 38.0204 148.472 38.3938 148.472C38.7671 148.472 39.0231 148.547 39.1618 148.696C39.3111 148.845 39.3858 149.027 39.3858 149.24V149.592C39.3858 149.805 39.3111 149.987 39.1618 150.136C39.0231 150.285 38.7671 150.36 38.3938 150.36ZM44.5475 155V153.832H47.7475V144.824H47.6355L44.8195 147.448L44.0355 146.6L46.9955 143.832H49.0915V153.832H52.0355V155H44.5475ZM54.1413 155V153.832H57.3413V144.824H57.2293L54.4133 147.448L53.6293 146.6L56.5893 143.832H58.6853V153.832H61.6293V155H54.1413ZM74.4488 150.808V149.464H79.0888V150.808H74.4488ZM92.5163 155V153.832H95.7163V144.824H95.6043L92.7883 147.448L92.0043 146.6L94.9643 143.832H97.0603V153.832H100.004V155H92.5163ZM102.11 155V153.832H105.31V144.824H105.198L102.382 147.448L101.598 146.6L104.558 143.832H106.654V153.832H109.598V155H102.11ZM111.704 155V153.832H114.904V144.824H114.792L111.976 147.448L111.192 146.6L114.152 143.832H116.248V153.832H119.192V155H111.704ZM121.298 155V153.832H124.498V144.824H124.386L121.57 147.448L120.786 146.6L123.746 143.832H125.842V153.832H128.786V155H121.298ZM141.605 150.808V149.464H146.245V150.808H141.605ZM159.673 155V153.832H162.873V144.824H162.761L159.945 147.448L159.161 146.6L162.121 143.832H164.217V153.832H167.161V155H159.673ZM169.266 155V153.832H172.466V144.824H172.354L169.538 147.448L168.754 146.6L171.714 143.832H173.81V153.832H176.754V155H169.266ZM178.86 155V153.832H182.06V144.824H181.948L179.132 147.448L178.348 146.6L181.308 143.832H183.404V153.832H186.348V155H178.86ZM188.454 155V153.832H191.654V144.824H191.542L188.726 147.448L187.942 146.6L190.902 143.832H192.998V153.832H195.942V155H188.454ZM208.761 150.808V149.464H213.401V150.808H208.761ZM226.829 155V153.832H230.029V144.824H229.917L227.101 147.448L226.317 146.6L229.277 143.832H231.373V153.832H234.317V155H226.829ZM236.423 155V153.832H239.623V144.824H239.511L236.695 147.448L235.911 146.6L238.871 143.832H240.967V153.832H243.911V155H236.423ZM246.016 155V153.832H249.216V144.824H249.104L246.288 147.448L245.504 146.6L248.464 143.832H250.56V153.832H253.504V155H246.016ZM257.018 155L261.386 144.984H256.49V147.064H255.29V143.832H262.746V145.016L258.458 155H257.018Z" fill="white"/>
<path d="M31.68 119.832V128.104C31.68 128.573 31.6 129 31.44 129.384C31.28 129.768 31.0507 130.093 30.752 130.36C30.464 130.627 30.1173 130.835 29.712 130.984C29.3067 131.123 28.864 131.192 28.384 131.192C27.5307 131.192 26.8267 130.973 26.272 130.536C25.7173 130.088 25.3547 129.464 25.184 128.664L26.464 128.392C26.5173 128.616 26.5867 128.829 26.672 129.032C26.768 129.224 26.8907 129.395 27.04 129.544C27.2 129.683 27.392 129.795 27.616 129.88C27.84 129.965 28.1067 130.008 28.416 130.008C29.024 130.008 29.4933 129.837 29.824 129.496C30.1653 129.144 30.336 128.6 30.336 127.864V121H26.304V119.832H31.68ZM44.5955 119.832H48.3875C49.3475 119.832 50.0995 120.093 50.6435 120.616C51.1875 121.139 51.4595 121.837 51.4595 122.712C51.4595 123.384 51.2942 123.912 50.9635 124.296C50.6435 124.68 50.2275 124.952 49.7155 125.112V125.16C50.3448 125.309 50.8622 125.592 51.2675 126.008C51.6728 126.413 51.8755 127.005 51.8755 127.784C51.8755 128.232 51.8008 128.653 51.6515 129.048C51.5022 129.443 51.2888 129.784 51.0115 130.072C50.7448 130.36 50.4248 130.589 50.0515 130.76C49.6888 130.92 49.2942 131 48.8675 131H44.5955V119.832ZM48.4675 129.832C49.0862 129.832 49.5715 129.693 49.9235 129.416C50.2755 129.139 50.4515 128.712 50.4515 128.136V127.48C50.4515 126.915 50.2755 126.493 49.9235 126.216C49.5715 125.928 49.0862 125.784 48.4675 125.784H45.9395V129.832H48.4675ZM48.2435 124.68C48.8088 124.68 49.2515 124.557 49.5715 124.312C49.8915 124.056 50.0515 123.672 50.0515 123.16V122.536C50.0515 122.024 49.8915 121.64 49.5715 121.384C49.2515 121.128 48.8088 121 48.2435 121H45.9395V124.68H48.2435ZM60.7013 131C60.1999 131 59.8426 130.872 59.6293 130.616C59.4159 130.36 59.2826 130.04 59.2293 129.656H59.1493C58.9679 130.136 58.6746 130.515 58.2693 130.792C57.8746 131.059 57.3413 131.192 56.6693 131.192C55.8053 131.192 55.1173 130.968 54.6053 130.52C54.0933 130.072 53.8372 129.459 53.8372 128.68C53.8372 127.912 54.1146 127.32 54.6693 126.904C55.2346 126.488 56.1413 126.28 57.3893 126.28H59.1493V125.464C59.1493 124.856 58.9786 124.403 58.6373 124.104C58.2959 123.795 57.8106 123.64 57.1813 123.64C56.6266 123.64 56.1733 123.752 55.8213 123.976C55.4693 124.189 55.1866 124.483 54.9733 124.856L54.1093 124.216C54.2159 124.003 54.3599 123.795 54.5413 123.592C54.7226 123.389 54.9466 123.213 55.2133 123.064C55.4799 122.904 55.7839 122.781 56.1253 122.696C56.4666 122.6 56.8453 122.552 57.2613 122.552C58.2319 122.552 58.9999 122.797 59.5653 123.288C60.1413 123.779 60.4293 124.461 60.4293 125.336V129.88H61.5813V131H60.7013ZM56.8932 130.12C57.2239 130.12 57.5226 130.083 57.7893 130.008C58.0666 129.923 58.3066 129.816 58.5093 129.688C58.7119 129.549 58.8666 129.389 58.9733 129.208C59.0906 129.016 59.1493 128.813 59.1493 128.6V127.24H57.3893C56.6213 127.24 56.0613 127.347 55.7093 127.56C55.3573 127.773 55.1813 128.083 55.1813 128.488V128.824C55.1813 129.251 55.3306 129.576 55.6293 129.8C55.9386 130.013 56.3599 130.12 56.8932 130.12ZM63.655 129.912H66.535V120.248H63.655V119.16H67.815V129.912H70.695V131H63.655V129.912ZM75.9528 131L72.9928 122.744H74.2888L75.4728 126.2L76.7528 129.928H76.8168L78.0968 126.2L79.2808 122.744H80.5448L77.5848 131H75.9528ZM86.8745 120.92C86.5012 120.92 86.2398 120.845 86.0905 120.696C85.9412 120.536 85.8665 120.339 85.8665 120.104V119.848C85.8665 119.613 85.9412 119.421 86.0905 119.272C86.2398 119.112 86.5012 119.032 86.8745 119.032C87.2478 119.032 87.5092 119.112 87.6585 119.272C87.8078 119.421 87.8825 119.613 87.8825 119.848V120.104C87.8825 120.339 87.8078 120.536 87.6585 120.696C87.5092 120.845 87.2478 120.92 86.8745 120.92ZM83.2585 129.912H86.2345V123.832H83.2585V122.744H87.5145V129.912H90.2985V131H83.2585V129.912ZM92.7243 131V122.744H94.0043V124.088H94.0683C94.1536 123.885 94.2603 123.693 94.3883 123.512C94.5163 123.32 94.6709 123.155 94.8523 123.016C95.0443 122.877 95.2683 122.765 95.5243 122.68C95.7803 122.595 96.0789 122.552 96.4203 122.552C97.2843 122.552 97.9776 122.829 98.5003 123.384C99.0229 123.928 99.2843 124.701 99.2843 125.704V131H98.0043V125.928C98.0043 125.171 97.8389 124.611 97.5083 124.248C97.1776 123.875 96.6923 123.688 96.0523 123.688C95.7963 123.688 95.5456 123.72 95.3003 123.784C95.0549 123.848 94.8363 123.944 94.6443 124.072C94.4523 124.2 94.2976 124.365 94.1803 124.568C94.0629 124.771 94.0043 125.005 94.0043 125.272V131H92.7243Z" fill="white"/>
<path opacity="0.9" d="M28.32 34.8C29.8773 34.8 31.072 35.0987 31.904 35.696C32.7467 36.2827 33.168 37.1627 33.168 38.336C33.168 38.976 33.0507 39.5253 32.816 39.984C32.592 40.432 32.2613 40.8 31.824 41.088C31.3973 41.3653 30.8747 41.568 30.256 41.696C29.6373 41.824 28.9387 41.888 28.16 41.888H26.928V46H25.376V35.072C25.8133 34.9653 26.2987 34.896 26.832 34.864C27.376 34.8213 27.872 34.8 28.32 34.8ZM28.448 36.16C27.7867 36.16 27.28 36.176 26.928 36.208V40.56H28.096C28.6293 40.56 29.1093 40.528 29.536 40.464C29.9627 40.3893 30.32 40.272 30.608 40.112C30.9067 39.9413 31.136 39.712 31.296 39.424C31.456 39.136 31.536 38.768 31.536 38.32C31.536 37.8933 31.4507 37.5413 31.28 37.264C31.12 36.9867 30.896 36.768 30.608 36.608C30.3307 36.4373 30.0053 36.32 29.632 36.256C29.2587 36.192 28.864 36.16 28.448 36.16ZM38.0864 37.504C38.2144 37.504 38.3584 37.5147 38.5184 37.536C38.689 37.5467 38.8544 37.568 39.0144 37.6C39.1744 37.6213 39.3184 37.648 39.4464 37.68C39.585 37.7013 39.6864 37.7227 39.7504 37.744L39.4944 39.04C39.377 38.9973 39.1797 38.9493 38.9024 38.896C38.6357 38.832 38.289 38.8 37.8624 38.8C37.585 38.8 37.3077 38.832 37.0304 38.896C36.7637 38.9493 36.5877 38.9867 36.5024 39.008V46H35.0144V38.032C35.3664 37.904 35.8037 37.7867 36.3264 37.68C36.849 37.5627 37.4357 37.504 38.0864 37.504ZM40.7223 41.856C40.7223 41.12 40.8289 40.48 41.0423 39.936C41.2556 39.3813 41.5383 38.9227 41.8903 38.56C42.2423 38.1973 42.6476 37.9253 43.1063 37.744C43.5649 37.5627 44.0343 37.472 44.5143 37.472C45.6343 37.472 46.4929 37.824 47.0903 38.528C47.6876 39.2213 47.9862 40.2827 47.9862 41.712C47.9862 41.776 47.9862 41.8613 47.9862 41.968C47.9862 42.064 47.9809 42.1547 47.9703 42.24H42.2743C42.3383 43.104 42.5889 43.76 43.0263 44.208C43.4636 44.656 44.1463 44.88 45.0743 44.88C45.5969 44.88 46.0343 44.8373 46.3863 44.752C46.7489 44.656 47.0209 44.5653 47.2023 44.48L47.4103 45.728C47.2289 45.824 46.9089 45.9253 46.4503 46.032C46.0023 46.1387 45.4903 46.192 44.9143 46.192C44.1889 46.192 43.5596 46.0853 43.0263 45.872C42.5036 45.648 42.0716 45.344 41.7303 44.96C41.3889 44.576 41.1329 44.1227 40.9622 43.6C40.8023 43.0667 40.7223 42.4853 40.7223 41.856ZM46.4343 41.04C46.4449 40.368 46.2743 39.8187 45.9223 39.392C45.5809 38.9547 45.1063 38.736 44.4983 38.736C44.1569 38.736 43.8529 38.8053 43.5863 38.944C43.3303 39.072 43.1116 39.2427 42.9303 39.456C42.7489 39.6693 42.6049 39.9147 42.4983 40.192C42.4023 40.4693 42.3383 40.752 42.3063 41.04H46.4343ZM55.8998 41.856C55.8998 40.8853 55.6598 40.1387 55.1798 39.616C54.6998 39.0933 54.0598 38.832 53.2598 38.832C52.8118 38.832 52.4598 38.848 52.2038 38.88C51.9584 38.912 51.7611 38.9493 51.6118 38.992V44.24C51.7931 44.3893 52.0544 44.5333 52.3958 44.672C52.7371 44.8107 53.1104 44.88 53.5158 44.88C53.9424 44.88 54.3051 44.8053 54.6038 44.656C54.9131 44.496 55.1638 44.2827 55.3558 44.016C55.5478 43.7387 55.6864 43.4187 55.7718 43.056C55.8571 42.6827 55.8998 42.2827 55.8998 41.856ZM57.4518 41.856C57.4518 42.4853 57.3664 43.0667 57.1958 43.6C57.0358 44.1333 56.7958 44.592 56.4758 44.976C56.1558 45.36 55.7611 45.6587 55.2918 45.872C54.8331 46.0853 54.3051 46.192 53.7078 46.192C53.2278 46.192 52.8011 46.128 52.4278 46C52.0651 45.872 51.7931 45.7493 51.6118 45.632V48.96H50.1238V37.936C50.4758 37.8507 50.9131 37.76 51.4358 37.664C51.9691 37.5573 52.5824 37.504 53.2758 37.504C53.9158 37.504 54.4918 37.6053 55.0038 37.808C55.5158 38.0107 55.9531 38.2987 56.3158 38.672C56.6784 39.0453 56.9558 39.504 57.1478 40.048C57.3504 40.5813 57.4518 41.184 57.4518 41.856ZM62.3616 44.928C62.7136 44.928 63.023 44.9227 63.2896 44.912C63.567 44.8907 63.7963 44.8587 63.9776 44.816V42.336C63.871 42.2827 63.695 42.24 63.4496 42.208C63.215 42.1653 62.927 42.144 62.5856 42.144C62.3616 42.144 62.1216 42.16 61.8656 42.192C61.6203 42.224 61.391 42.2933 61.1776 42.4C60.975 42.496 60.8043 42.6347 60.6656 42.816C60.527 42.9867 60.4576 43.216 60.4576 43.504C60.4576 44.0373 60.6283 44.4107 60.9696 44.624C61.311 44.8267 61.775 44.928 62.3616 44.928ZM62.2336 37.472C62.831 37.472 63.3323 37.552 63.7376 37.712C64.1536 37.8613 64.4843 38.08 64.7296 38.368C64.9856 38.6453 65.167 38.9813 65.2736 39.376C65.3803 39.76 65.4336 40.1867 65.4336 40.656V45.856C65.3056 45.8773 65.1243 45.9093 64.8896 45.952C64.6656 45.984 64.4096 46.016 64.1216 46.048C63.8336 46.08 63.519 46.1067 63.1776 46.128C62.847 46.16 62.5163 46.176 62.1856 46.176C61.7163 46.176 61.2843 46.128 60.8896 46.032C60.495 45.936 60.1536 45.7867 59.8656 45.584C59.5776 45.3707 59.3536 45.0933 59.1936 44.752C59.0336 44.4107 58.9536 44 58.9536 43.52C58.9536 43.0613 59.0443 42.6667 59.2256 42.336C59.4176 42.0053 59.6736 41.7387 59.9936 41.536C60.3136 41.3333 60.687 41.184 61.1136 41.088C61.5403 40.992 61.9883 40.944 62.4576 40.944C62.607 40.944 62.7616 40.9547 62.9216 40.976C63.0816 40.9867 63.231 41.008 63.3696 41.04C63.519 41.0613 63.647 41.0827 63.7536 41.104C63.8603 41.1253 63.935 41.1413 63.9776 41.152V40.736C63.9776 40.4907 63.951 40.2507 63.8976 40.016C63.8443 39.7707 63.7483 39.5573 63.6096 39.376C63.471 39.184 63.279 39.0347 63.0336 38.928C62.799 38.8107 62.4896 38.752 62.1056 38.752C61.615 38.752 61.183 38.7893 60.8096 38.864C60.447 38.928 60.175 38.9973 59.9936 39.072L59.8176 37.84C60.0096 37.7547 60.3296 37.6747 60.7776 37.6C61.2256 37.5147 61.711 37.472 62.2336 37.472ZM69.393 46H67.905V37.68H69.393V46ZM68.641 36.176C68.3743 36.176 68.145 36.0907 67.953 35.92C67.7717 35.7387 67.681 35.4987 67.681 35.2C67.681 34.9013 67.7717 34.6667 67.953 34.496C68.145 34.3147 68.3743 34.224 68.641 34.224C68.9077 34.224 69.1317 34.3147 69.313 34.496C69.505 34.6667 69.601 34.9013 69.601 35.2C69.601 35.4987 69.505 35.7387 69.313 35.92C69.1317 36.0907 68.9077 36.176 68.641 36.176ZM77.3279 39.44C77.1465 39.2907 76.8852 39.1467 76.5439 39.008C76.2025 38.8693 75.8292 38.8 75.4239 38.8C74.9972 38.8 74.6292 38.88 74.3199 39.04C74.0212 39.1893 73.7759 39.4027 73.5839 39.68C73.3919 39.9467 73.2532 40.2667 73.1679 40.64C73.0825 41.0133 73.0399 41.4133 73.0399 41.84C73.0399 42.8107 73.2799 43.5627 73.7599 44.096C74.2399 44.6187 74.8799 44.88 75.6799 44.88C76.0852 44.88 76.4212 44.864 76.6879 44.832C76.9652 44.7893 77.1785 44.7467 77.3279 44.704V39.44ZM77.3279 33.84L78.8159 33.584V45.76C78.4745 45.856 78.0372 45.952 77.5039 46.048C76.9705 46.144 76.3572 46.192 75.6639 46.192C75.0239 46.192 74.4479 46.0907 73.9359 45.888C73.4239 45.6853 72.9865 45.3973 72.6239 45.024C72.2612 44.6507 71.9785 44.1973 71.7759 43.664C71.5839 43.12 71.4879 42.512 71.4879 41.84C71.4879 41.2 71.5679 40.6133 71.7279 40.08C71.8985 39.5467 72.1439 39.088 72.4639 38.704C72.7839 38.32 73.1732 38.0213 73.6319 37.808C74.1012 37.5947 74.6345 37.488 75.2319 37.488C75.7119 37.488 76.1332 37.552 76.4959 37.68C76.8692 37.808 77.1465 37.9307 77.3279 38.048V33.84ZM89.9409 46.24C89.1622 46.24 88.4529 46.112 87.8129 45.856C87.1729 45.6 86.6235 45.2267 86.1649 44.736C85.7062 44.2453 85.3489 43.6427 85.0929 42.928C84.8475 42.2027 84.7249 41.376 84.7249 40.448C84.7249 39.52 84.8635 38.6987 85.1409 37.984C85.4289 37.2587 85.8129 36.6507 86.2929 36.16C86.7729 35.6693 87.3329 35.296 87.9729 35.04C88.6129 34.784 89.2955 34.656 90.0209 34.656C90.4795 34.656 90.8902 34.688 91.2529 34.752C91.6262 34.816 91.9462 34.8907 92.2129 34.976C92.4902 35.0613 92.7142 35.1467 92.8849 35.232C93.0555 35.3173 93.1729 35.3813 93.2369 35.424L92.7889 36.704C92.6929 36.64 92.5542 36.5707 92.3729 36.496C92.1915 36.4213 91.9835 36.3467 91.7489 36.272C91.5249 36.1973 91.2742 36.1387 90.9969 36.096C90.7302 36.0427 90.4582 36.016 90.1809 36.016C89.5942 36.016 89.0662 36.1173 88.5969 36.32C88.1275 36.5227 87.7275 36.816 87.3969 37.2C87.0662 37.584 86.8102 38.0533 86.6289 38.608C86.4582 39.152 86.3729 39.7653 86.3729 40.448C86.3729 41.1093 86.4475 41.712 86.5969 42.256C86.7569 42.8 86.9915 43.2693 87.3009 43.664C87.6102 44.048 87.9942 44.3467 88.4529 44.56C88.9222 44.7733 89.4662 44.88 90.0849 44.88C90.7995 44.88 91.3915 44.8053 91.8609 44.656C92.3302 44.5067 92.6822 44.3733 92.9169 44.256L93.3169 45.536C93.2422 45.5893 93.1089 45.6587 92.9169 45.744C92.7249 45.8187 92.4849 45.8933 92.1969 45.968C91.9089 46.0427 91.5729 46.1067 91.1889 46.16C90.8049 46.2133 90.3889 46.24 89.9409 46.24ZM97.8148 44.928C98.1668 44.928 98.4761 44.9227 98.7428 44.912C99.0201 44.8907 99.2494 44.8587 99.4308 44.816V42.336C99.3241 42.2827 99.1481 42.24 98.9028 42.208C98.6681 42.1653 98.3801 42.144 98.0388 42.144C97.8148 42.144 97.5748 42.16 97.3188 42.192C97.0734 42.224 96.8441 42.2933 96.6308 42.4C96.4281 42.496 96.2574 42.6347 96.1188 42.816C95.9801 42.9867 95.9108 43.216 95.9108 43.504C95.9108 44.0373 96.0814 44.4107 96.4228 44.624C96.7641 44.8267 97.2281 44.928 97.8148 44.928ZM97.6868 37.472C98.2841 37.472 98.7854 37.552 99.1908 37.712C99.6068 37.8613 99.9374 38.08 100.183 38.368C100.439 38.6453 100.62 38.9813 100.727 39.376C100.833 39.76 100.887 40.1867 100.887 40.656V45.856C100.759 45.8773 100.577 45.9093 100.343 45.952C100.119 45.984 99.8628 46.016 99.5748 46.048C99.2868 46.08 98.9721 46.1067 98.6308 46.128C98.3001 46.16 97.9694 46.176 97.6388 46.176C97.1694 46.176 96.7374 46.128 96.3428 46.032C95.9481 45.936 95.6068 45.7867 95.3188 45.584C95.0308 45.3707 94.8068 45.0933 94.6468 44.752C94.4868 44.4107 94.4068 44 94.4068 43.52C94.4068 43.0613 94.4974 42.6667 94.6788 42.336C94.8708 42.0053 95.1268 41.7387 95.4468 41.536C95.7668 41.3333 96.1401 41.184 96.5668 41.088C96.9934 40.992 97.4414 40.944 97.9108 40.944C98.0601 40.944 98.2148 40.9547 98.3748 40.976C98.5348 40.9867 98.6841 41.008 98.8228 41.04C98.9721 41.0613 99.1001 41.0827 99.2068 41.104C99.3134 41.1253 99.3881 41.1413 99.4308 41.152V40.736C99.4308 40.4907 99.4041 40.2507 99.3508 40.016C99.2974 39.7707 99.2014 39.5573 99.0628 39.376C98.9241 39.184 98.7321 39.0347 98.4868 38.928C98.2521 38.8107 97.9428 38.752 97.5588 38.752C97.0681 38.752 96.6361 38.7893 96.2628 38.864C95.9001 38.928 95.6281 38.9973 95.4468 39.072L95.2708 37.84C95.4628 37.7547 95.7828 37.6747 96.2308 37.6C96.6788 37.5147 97.1641 37.472 97.6868 37.472ZM106.43 37.504C106.558 37.504 106.702 37.5147 106.862 37.536C107.033 37.5467 107.198 37.568 107.358 37.6C107.518 37.6213 107.662 37.648 107.79 37.68C107.929 37.7013 108.03 37.7227 108.094 37.744L107.838 39.04C107.721 38.9973 107.523 38.9493 107.246 38.896C106.979 38.832 106.633 38.8 106.206 38.8C105.929 38.8 105.651 38.832 105.374 38.896C105.107 38.9493 104.931 38.9867 104.846 39.008V46H103.358V38.032C103.71 37.904 104.147 37.7867 104.67 37.68C105.193 37.5627 105.779 37.504 106.43 37.504ZM114.906 39.44C114.725 39.2907 114.463 39.1467 114.122 39.008C113.781 38.8693 113.407 38.8 113.002 38.8C112.575 38.8 112.207 38.88 111.898 39.04C111.599 39.1893 111.354 39.4027 111.162 39.68C110.97 39.9467 110.831 40.2667 110.746 40.64C110.661 41.0133 110.618 41.4133 110.618 41.84C110.618 42.8107 110.858 43.5627 111.338 44.096C111.818 44.6187 112.458 44.88 113.258 44.88C113.663 44.88 113.999 44.864 114.266 44.832C114.543 44.7893 114.757 44.7467 114.906 44.704V39.44ZM114.906 33.84L116.394 33.584V45.76C116.053 45.856 115.615 45.952 115.082 46.048C114.549 46.144 113.935 46.192 113.242 46.192C112.602 46.192 112.026 46.0907 111.514 45.888C111.002 45.6853 110.565 45.3973 110.202 45.024C109.839 44.6507 109.557 44.1973 109.354 43.664C109.162 43.12 109.066 42.512 109.066 41.84C109.066 41.2 109.146 40.6133 109.306 40.08C109.477 39.5467 109.722 39.088 110.042 38.704C110.362 38.32 110.751 38.0213 111.21 37.808C111.679 37.5947 112.213 37.488 112.81 37.488C113.29 37.488 113.711 37.552 114.074 37.68C114.447 37.808 114.725 37.9307 114.906 38.048V33.84Z" fill="white"/>
<path d="M280.224 28.524L273.94 43.516H269.84L266.748 31.55C266.56 30.814 266.398 30.544 265.826 30.234C264.894 29.728 263.354 29.254 262 28.958L262.092 28.524H268.692C269.123 28.5236 269.541 28.6774 269.868 28.9576C270.196 29.2378 270.413 29.626 270.48 30.052L272.114 38.728L276.15 28.524H280.224ZM296.29 38.622C296.306 34.664 290.818 34.446 290.856 32.678C290.868 32.14 291.38 31.568 292.5 31.422C293.813 31.2974 295.134 31.5296 296.326 32.094L297.006 28.914C295.846 28.4779 294.617 28.2524 293.378 28.248C289.544 28.248 286.846 30.288 286.822 33.206C286.798 35.364 288.748 36.566 290.218 37.286C291.73 38.02 292.238 38.492 292.23 39.148C292.22 40.156 291.026 40.598 289.91 40.616C287.96 40.646 286.83 40.09 285.926 39.67L285.224 42.954C286.13 43.37 287.802 43.734 289.536 43.75C293.61 43.75 296.276 41.738 296.29 38.622ZM306.412 43.516H310L306.87 28.524H303.558C303.204 28.5208 302.857 28.6239 302.563 28.82C302.268 29.0162 302.039 29.2963 301.906 29.624L296.088 43.516H300.16L300.97 41.276H305.946L306.412 43.516ZM302.086 38.204L304.126 32.574L305.302 38.204H302.086ZM285.766 28.524L282.56 43.516H278.68L281.89 28.524H285.766Z" fill="white"/>
<defs>
<filter id="filter0_b_960_1662" x="-80" y="-80" width="495" height="345" filterUnits="userSpaceOnUse" color-interpolation-filters="sRGB">
<feFlood flood-opacity="0" result="BackgroundImageFix"/>
<feGaussianBlur in="BackgroundImageFix" stdDeviation="40"/>
<feComposite in2="SourceAlpha" operator="in" result="effect1_backgroundBlur_960_1662"/>
<feBlend mode="normal" in="SourceGraphic" in2="effect1_backgroundBlur_960_1662" result="shape"/>
</filter>
<linearGradient id="paint0_linear_960_1662" x1="-86.5" y1="-37" x2="580.5" y2="314.5" gradientUnits="userSpaceOnUse">
<stop stop-color="#A5DB92"/>
<stop offset="1" stop-color="#007C05"/>
</linearGradient>
</defs>
</svg>
